<svg width="333" height="316" viewBox="0 0 333 316" fill="none" xmlns="http://www.w3.org/2000/svg">
<g filter="url(#filter0_d_130_107)">
<path d="M312.797 225.333C331.753 187.352 333.072 136.803 319.949 96.2525C308.631 61.3265 283.495 34.7327 254.54 18.8319C220.934 0.500945 180.8 -4.98446 144.693 6.61127C135.181 9.66644 125.946 12.4439 116.989 17.5127C80.2572 38.0656 87.3397 88.7535 74.4941 106.39C63.6622 121.249 42.9009 116.875 29.8471 128.193C-5.42619 158.883 -5.49563 236.373 35.1936 260.606C78.313 286.367 265.789 319.349 312.797 225.333Z" fill="#164A41"/>
<path opacity="0.8" d="M312.797 225.333C331.753 187.352 333.072 136.803 319.949 96.2525C308.631 61.3265 283.495 34.7327 254.54 18.8319C220.934 0.500945 180.8 -4.98446 144.693 6.61127C135.181 9.66644 125.946 12.4439 116.989 17.5127C80.2572 38.0656 87.3397 88.7535 74.4941 106.39C63.6622 121.249 42.9009 116.875 29.8471 128.193C-5.42619 158.883 -5.49563 236.373 35.1936 260.606C78.313 286.367 265.789 319.349 312.797 225.333Z" fill="white"/>
<path d="M326.475 302.754H147.609C147.401 302.754 147.262 302.615 147.262 302.407C147.262 302.198 147.401 302.059 147.609 302.059H326.475C326.684 302.059 326.822 302.198 326.822 302.407C326.822 302.615 326.684 302.754 326.475 302.754Z" fill="#263238"/>
<path d="M142.055 302.754H14.2933C14.085 302.754 13.9462 302.615 13.9462 302.407C13.9462 302.199 14.085 302.06 14.2933 302.06H141.985C142.194 302.06 142.332 302.199 142.332 302.407C142.332 302.615 142.194 302.754 142.055 302.754Z" fill="#263238"/>
<path d="M293.841 275.951C292.799 276.298 290.3 275.882 290.3 275.882C290.3 275.882 291.063 274.354 291.063 274.215C291.758 273.174 293.702 271.507 295.091 271.855C295.993 272.132 296.479 273.035 296.202 273.938C296.202 274.007 296.132 274.077 296.132 274.146C295.716 275.049 294.882 275.674 293.841 275.951Z" fill="#263238"/>
<path d="M270.788 274.91C270.788 274.91 270.51 273.174 270.51 273.104C270.51 271.855 271.205 269.355 272.524 268.938C273.427 268.661 274.329 269.147 274.607 270.049C274.607 270.119 274.677 270.188 274.677 270.258C274.746 271.299 274.399 272.271 273.705 273.035C273.08 273.799 270.788 274.91 270.788 274.91Z" fill="#263238"/>
<path d="M265.511 270.327C266.483 270.674 267.455 270.883 268.427 270.952C268.636 271.23 268.844 271.577 269.122 271.924C269.538 272.549 270.025 273.313 270.511 274.077C270.649 274.285 270.788 274.563 270.858 274.771C270.58 274.424 270.163 273.938 270.094 273.938C269.261 273.174 267.247 272.202 266.136 272.827C265.442 273.244 265.233 274.146 265.65 274.841C265.65 274.91 265.719 274.91 265.719 274.979C266.344 275.674 267.178 276.021 268.15 276.021C269.191 275.882 270.163 275.674 271.066 275.257C271.344 275.743 271.622 276.299 271.83 276.854C272.316 277.896 272.663 278.937 272.941 280.048H272.871C272.663 279.701 272.108 279.007 272.108 278.937C271.413 278.104 269.469 276.924 268.289 277.41C267.525 277.757 267.247 278.66 267.594 279.354C267.594 279.423 267.664 279.423 267.664 279.493C268.219 280.257 269.052 280.673 269.955 280.743C270.997 280.743 272.038 280.534 273.01 280.257C273.219 281.368 273.427 282.478 273.496 283.589C273.566 284.423 273.566 285.256 273.635 286.089C273.496 285.811 272.802 284.909 272.802 284.839C272.038 284.006 270.163 282.826 268.983 283.312C268.219 283.659 267.941 284.562 268.289 285.256C268.289 285.325 268.358 285.325 268.358 285.395C268.914 286.159 269.747 286.575 270.649 286.645C271.691 286.645 272.732 286.506 273.705 286.159C273.705 286.575 273.705 286.922 273.705 287.339C273.705 288.589 273.774 289.839 273.843 291.088C273.843 291.505 273.913 291.922 273.913 292.408C273.635 292.061 273.219 291.366 273.149 291.297C272.385 290.464 270.511 289.283 269.33 289.769C268.566 290.116 268.289 291.019 268.636 291.713C268.636 291.783 268.705 291.783 268.705 291.852C269.261 292.616 270.094 293.033 270.997 293.102C271.969 293.102 273.01 292.963 273.913 292.686C273.982 293.38 274.052 294.074 274.191 294.769C274.26 295.046 274.26 295.393 274.33 295.671L274.538 296.504C274.677 297.06 274.816 297.615 274.954 298.101L275.163 298.865C274.954 298.449 274.677 297.824 274.607 297.754C273.982 296.782 272.316 295.324 271.135 295.671C270.372 295.88 269.886 296.713 270.094 297.477C270.094 297.546 270.094 297.546 270.163 297.615C270.58 298.449 271.344 299.004 272.246 299.212C273.288 299.351 274.26 299.351 275.302 299.212C275.51 299.837 275.649 300.462 275.857 301.018C275.996 301.504 276.135 301.92 276.274 302.337H277.107C276.899 301.851 276.76 301.296 276.551 300.809C276.343 300.323 276.204 299.768 275.996 299.212C276.899 298.865 277.801 298.379 278.565 297.824C279.121 298.171 279.676 298.449 280.232 298.726C280.023 299.351 279.884 299.976 279.676 300.532C279.468 301.087 279.329 301.782 279.19 302.406H280.023C280.162 301.851 280.301 301.365 280.44 300.74C280.579 300.115 280.718 299.698 280.856 299.074C281.829 299.282 282.87 299.351 283.912 299.282C284.814 299.143 285.578 298.588 286.064 297.824C286.411 297.06 286.134 296.227 285.37 295.81C285.3 295.81 285.3 295.741 285.231 295.741C284.05 295.324 282.245 296.713 281.62 297.615C281.551 297.685 281.134 298.379 280.926 298.796C280.995 298.449 281.134 298.101 281.204 297.754C281.342 297.268 281.551 296.713 281.69 296.157L281.967 295.324C282.037 295.046 282.176 294.769 282.315 294.491C282.453 294.074 282.662 293.727 282.87 293.31C283.773 293.658 284.745 293.866 285.717 293.935C286.62 293.935 287.453 293.519 288.078 292.824C288.564 292.13 288.355 291.227 287.731 290.741C287.661 290.741 287.661 290.672 287.592 290.672C286.481 290.116 284.467 291.158 283.703 291.922L283.356 292.338C283.564 291.991 283.773 291.575 283.981 291.227C284.606 290.186 285.231 289.075 285.856 287.964C285.995 287.756 286.134 287.478 286.272 287.27C287.175 287.617 288.217 287.825 289.189 287.964C290.091 287.964 290.925 287.547 291.55 286.853C292.036 286.159 291.827 285.256 291.202 284.77C291.133 284.77 291.133 284.7 291.063 284.7C289.952 284.145 287.939 285.186 287.175 285.95L286.758 286.436C287.106 285.811 287.453 285.256 287.731 284.631C288.286 283.589 288.703 282.548 289.119 281.437C290.091 281.854 291.063 282.062 292.105 282.131C293.008 282.131 293.841 281.715 294.466 281.02C294.952 280.326 294.744 279.423 294.119 278.937C294.049 278.937 294.049 278.868 293.98 278.868C292.869 278.312 290.855 279.354 290.091 280.118C290.022 280.187 289.397 280.951 289.189 281.229C289.536 280.118 289.814 279.007 290.022 277.896C290.161 276.854 290.3 275.882 290.3 274.841C290.369 273.868 290.3 273.035 290.3 272.271C290.3 271.855 290.3 271.508 290.23 271.091C290.23 271.091 290.786 269.702 290.786 269.563C291.063 268.453 290.925 266.231 289.883 265.606C289.189 265.189 288.286 265.467 287.869 266.161C287.869 266.231 287.8 266.231 287.8 266.3C287.522 267.133 287.592 268.105 288.078 268.869C288.633 269.702 289.328 270.397 290.161 271.022C290.161 271.369 290.161 271.785 290.23 272.202C290.23 272.966 290.23 273.868 290.161 274.771C290.161 275.049 290.091 275.327 290.091 275.535C290.022 275.118 289.953 274.493 289.953 274.424C289.675 273.313 288.564 271.369 287.314 271.299C286.481 271.23 285.786 271.924 285.786 272.688C285.786 272.758 285.786 272.827 285.786 272.827C285.925 273.73 286.481 274.493 287.245 274.979C288.147 275.466 289.119 275.743 290.091 275.952C290.022 276.507 289.952 277.132 289.814 277.757C289.605 278.868 289.328 279.979 288.911 281.02H288.842C288.842 280.604 288.842 279.701 288.842 279.632C288.703 278.521 287.8 276.507 286.55 276.229C285.717 276.09 285.023 276.646 284.884 277.479C284.884 277.549 284.884 277.618 284.884 277.618C284.953 278.521 285.37 279.354 286.064 279.909C286.967 280.465 287.869 280.881 288.911 281.159C288.494 282.201 288.008 283.242 287.453 284.214C287.036 284.909 286.62 285.673 286.203 286.367C286.203 286.089 286.203 284.909 286.203 284.839C286.064 283.728 285.092 281.715 283.912 281.437C283.078 281.298 282.384 281.854 282.245 282.687C282.245 282.756 282.245 282.756 282.245 282.826C282.315 283.728 282.731 284.562 283.426 285.117C284.259 285.673 285.231 286.089 286.203 286.367C285.995 286.714 285.786 287.061 285.578 287.339C284.884 288.381 284.259 289.491 283.634 290.533C283.426 290.88 283.217 291.297 283.009 291.644C283.009 291.227 283.009 290.394 283.009 290.325C282.87 289.214 281.898 287.2 280.718 286.922C279.884 286.783 279.19 287.339 279.051 288.172C279.051 288.242 279.051 288.242 279.051 288.311C279.121 289.214 279.537 290.047 280.232 290.602C281.065 291.158 281.967 291.575 282.94 291.852C282.592 292.477 282.315 293.102 281.967 293.727C281.829 294.005 281.69 294.283 281.62 294.56C281.551 294.838 281.412 295.116 281.342 295.393C281.134 295.949 280.995 296.435 280.787 296.991C280.718 297.268 280.648 297.477 280.509 297.754C280.579 297.338 280.648 296.574 280.648 296.504C280.648 295.393 280.023 293.241 278.912 292.824C278.148 292.547 277.315 293.033 277.037 293.796C277.037 293.866 277.037 293.935 276.968 293.935C276.968 294.074 276.899 294.144 276.899 294.283C276.343 295.116 275.996 296.018 275.927 296.991C275.927 297.06 275.996 297.893 275.996 298.379C275.857 298.032 275.788 297.685 275.649 297.338C275.51 296.852 275.302 296.296 275.163 295.741C275.093 295.463 275.024 295.185 274.954 294.907C274.885 294.63 274.816 294.352 274.816 294.074C274.746 293.658 274.677 293.241 274.607 292.755C275.579 292.547 276.482 292.199 277.315 291.713C278.079 291.227 278.565 290.394 278.635 289.491C278.635 288.658 278.01 287.964 277.176 287.964C277.107 287.964 277.037 287.964 277.037 287.964C275.788 288.103 274.746 290.047 274.538 291.158C274.538 291.227 274.538 291.436 274.468 291.713C274.399 291.297 274.399 290.88 274.33 290.394C274.26 289.144 274.191 287.894 274.121 286.645L274.052 285.881C275.024 285.673 275.996 285.325 276.829 284.839C277.593 284.353 278.079 283.52 278.148 282.617C278.148 281.784 277.524 281.09 276.69 281.09C276.621 281.09 276.551 281.09 276.551 281.09C275.302 281.229 274.26 283.173 274.052 284.284C274.052 284.284 274.052 284.631 273.982 284.909C273.913 284.214 273.913 283.52 273.843 282.895C273.705 281.715 273.566 280.534 273.288 279.423C274.33 279.215 275.302 278.868 276.204 278.382C276.968 277.896 277.454 277.063 277.524 276.16C277.524 275.327 276.899 274.632 276.065 274.632C275.996 274.632 275.996 274.632 275.927 274.632C274.677 274.771 273.635 276.715 273.427 277.826C273.427 277.896 273.288 278.937 273.288 279.284C273.288 279.284 273.288 279.284 273.288 279.215C273.01 278.104 272.594 277.063 272.108 276.021C271.691 275.118 271.205 274.216 270.649 273.313C270.163 272.48 269.677 271.785 269.261 271.161C268.983 270.813 268.775 270.536 268.566 270.258C268.566 270.258 268.219 268.8 268.219 268.73C267.872 267.689 266.483 265.883 265.233 265.953C264.4 266.022 263.775 266.717 263.845 267.48C263.845 267.55 263.845 267.619 263.845 267.689C264.053 269.147 264.678 269.911 265.511 270.327Z" fill="#263238"/>
<path d="M183.022 113.195C184.202 112.709 185.382 112.084 186.493 111.389C187.396 110.695 187.743 107.501 185.938 102.849C184.133 98.1966 176.772 91.5308 169.273 91.392C162.746 91.2531 156.775 95.2109 154.345 101.252C152.47 106.251 155.525 114.167 155.525 114.167L161.358 114.722C161.358 114.722 170.732 112.57 174.689 112.361C177.536 112.361 180.314 112.639 183.022 113.195Z" fill="#263238"/>
<path d="M161.358 115.069L155.247 114.514L155.178 114.305C155.039 113.958 152.053 106.251 153.998 101.182C156.497 95.0718 162.399 91.114 168.996 91.114H169.204C176.842 91.1834 184.341 98.0576 186.216 102.779C188.021 107.362 187.813 110.834 186.632 111.736C185.521 112.431 184.341 113.056 183.091 113.611L182.952 113.681H182.813C180.105 113.125 177.328 112.847 174.55 112.847C170.662 112.986 161.358 115.208 161.288 115.208L161.358 115.069ZM155.803 113.889L161.358 114.444C162.191 114.236 170.801 112.292 174.689 112.084C177.467 112.014 180.314 112.292 183.022 112.847C184.133 112.361 185.244 111.806 186.285 111.111C186.979 110.556 187.465 107.64 185.66 102.987C183.924 98.4742 176.633 91.8778 169.273 91.8084C162.885 91.7389 157.122 95.5579 154.692 101.46C153.025 105.834 155.386 112.639 155.803 113.889Z" fill="#263238"/>
<path d="M153.998 107.431C153.998 107.431 150.942 103.89 145.388 106.459C139.833 109.028 136.847 115 138.513 120.624C140.18 126.248 144.693 127.359 148.026 126.595C149.97 126.179 151.637 124.859 152.47 123.054C152.47 123.054 150.942 122.151 150.665 121.388C150.387 120.624 151.914 120.554 151.914 120.554C150.873 119.582 150.317 118.263 150.248 116.805C150.248 114.514 151.984 110.347 154.067 110.347L153.998 107.431Z" fill="#263238"/>
<path d="M146.151 127.082C143.027 127.082 139.555 125.415 138.166 120.624C136.5 114.861 139.486 108.681 145.249 106.043C151.012 103.404 154.206 107.084 154.275 107.154L154.345 107.223L154.484 110.695H154.136C152.401 110.695 150.665 114.583 150.665 116.805C150.665 118.124 151.22 119.374 152.192 120.277L152.817 120.832L151.984 120.902C151.637 120.902 151.29 120.971 151.012 121.18C151.151 121.666 152.123 122.36 152.678 122.707L152.956 122.846L152.817 123.124C151.914 125.068 150.179 126.457 148.096 126.873C147.471 127.012 146.846 127.082 146.151 127.082ZM149.276 105.834C147.957 105.834 146.707 106.181 145.526 106.737C140.041 109.237 137.264 115 138.791 120.485C140.319 125.971 144.693 126.943 147.887 126.248C149.623 125.901 151.151 124.79 151.984 123.193C151.29 122.777 150.734 122.221 150.317 121.527C150.179 121.318 150.248 121.041 150.387 120.832C150.595 120.555 150.873 120.416 151.22 120.346C150.387 119.374 149.97 118.124 149.901 116.875C149.901 114.653 151.498 110.556 153.72 110.139L153.65 107.64C152.47 106.459 150.942 105.834 149.276 105.834Z" fill="#263238"/>
<path d="M167.19 228.388L171.842 240.539C171.842 240.539 165.802 247.552 164.343 254.288C162.885 261.023 158.927 273.591 157.122 277.479C155.317 281.367 151.567 286.922 151.498 287.408C151.428 287.894 150.734 289.491 151.22 290.741C151.706 291.991 154.692 292.824 155.247 293.935C155.803 295.046 157.33 298.101 159.413 299.698C161.497 301.295 164.829 304.142 166.01 303.517C167.19 302.892 167.607 302.754 167.26 301.712C166.913 300.601 164.205 295.671 163.718 292.894C163.232 290.116 161.635 285.186 161.983 283.45C162.33 281.715 170.94 269.702 176.217 261.995C181.494 254.288 189.479 239.428 189.479 237.554C189.479 235.679 187.674 222.972 187.674 222.972C187.674 222.972 170.176 225.68 167.19 228.388Z" fill="white"/>
<path d="M165.663 303.934C164.413 303.934 162.469 302.476 160.108 300.67C159.83 300.462 159.483 300.184 159.275 299.976C157.4 298.518 156.011 295.949 155.247 294.56L154.97 294.074C154.484 293.519 153.859 293.033 153.164 292.755C152.192 292.199 151.22 291.644 150.873 290.88C150.387 289.7 150.804 288.311 151.012 287.617C151.012 287.547 151.081 287.408 151.081 287.339C151.428 286.575 151.915 285.811 152.401 285.047C153.65 282.964 155.595 279.84 156.775 277.34C158.65 273.382 162.538 260.815 163.996 254.218C165.385 247.969 170.523 241.581 171.426 240.47L166.774 228.319L166.913 228.18C169.898 225.402 186.841 222.694 187.604 222.556L187.952 222.486L188.021 222.833C188.09 223.389 189.826 235.679 189.826 237.484C189.826 239.498 181.772 254.426 176.495 262.134C175.245 263.939 173.787 266.022 172.329 268.175C167.746 274.771 162.608 282.201 162.33 283.45C162.122 284.492 162.746 287.131 163.302 289.422C163.58 290.672 163.857 291.852 164.066 292.755C164.413 294.699 165.802 297.685 166.774 299.629C167.19 300.532 167.538 301.157 167.607 301.504C168.024 302.823 167.468 303.17 166.357 303.656L166.218 303.726C166.079 303.865 165.941 303.934 165.663 303.934ZM167.607 228.458L172.259 240.609L172.12 240.748C172.051 240.817 166.149 247.761 164.691 254.357C163.233 260.953 159.275 273.66 157.4 277.618C156.22 280.118 154.275 283.312 153.026 285.395C152.401 286.367 151.845 287.339 151.776 287.478C151.706 287.617 151.706 287.617 151.706 287.755C151.498 288.38 151.151 289.63 151.498 290.602C151.706 291.158 152.678 291.644 153.512 292.13C154.345 292.477 155.039 293.033 155.525 293.727C155.595 293.866 155.664 294.005 155.803 294.213C156.497 295.532 157.817 298.032 159.622 299.421L160.455 300.115C162.122 301.434 164.968 303.656 165.871 303.24L166.01 303.17C167.121 302.615 167.19 302.615 166.913 301.851C166.843 301.573 166.496 300.879 166.079 300.046C165.107 298.032 163.719 294.977 163.302 292.963C163.163 291.991 162.885 290.88 162.538 289.63C161.913 287.131 161.288 284.561 161.566 283.381C161.844 282.201 165.732 276.368 171.704 267.827C173.162 265.675 174.62 263.592 175.87 261.787C181.147 254.01 189.063 239.22 189.063 237.554C189.063 235.887 187.604 225.402 187.257 223.319C184.966 223.666 170.662 226.166 167.607 228.458Z" fill="#263238"/>
<path d="M187.674 222.833C187.674 222.833 170.107 225.68 167.19 228.388L171.843 240.539C171.843 240.539 165.802 247.552 164.343 254.288C162.608 261.578 160.455 268.8 157.817 275.813C158.789 277.201 160.663 278.937 164.205 279.493C167.19 274.91 172.537 267.342 176.217 261.926C181.494 254.218 189.479 239.359 189.479 237.484C189.479 235.61 187.674 222.833 187.674 222.833Z" fill="#263238"/>
<path d="M164.413 279.84L164.205 279.77C160.525 279.215 158.58 277.41 157.539 275.951L157.4 275.813L157.469 275.674C160.108 268.661 162.26 261.509 163.996 254.218C165.385 247.969 170.523 241.581 171.426 240.47L166.774 228.319L166.913 228.18C169.898 225.402 186.841 222.694 187.604 222.556L187.952 222.486L188.021 222.833C188.09 223.389 189.896 235.679 189.896 237.484C189.896 239.498 181.772 254.426 176.564 262.134C175.314 263.939 173.856 266.022 172.398 268.175C169.551 272.341 166.565 276.646 164.552 279.701L164.413 279.84ZM158.233 275.743C159.622 277.618 161.774 278.798 164.066 279.076C166.079 276.021 168.996 271.785 171.773 267.758C173.231 265.606 174.689 263.592 175.939 261.717C181.216 253.94 189.132 239.151 189.132 237.484C189.132 235.818 187.674 225.333 187.327 223.25C184.896 223.666 170.593 226.097 167.537 228.458L172.19 240.609L172.051 240.748C171.981 240.817 166.079 247.761 164.621 254.357C163.024 261.578 160.872 268.73 158.233 275.743Z" fill="#263238"/>
<path d="M167.329 301.643C166.982 300.532 164.274 295.602 163.788 292.824C163.58 291.505 163.094 289.7 162.677 287.964L162.538 287.894C161.774 287.755 161.08 287.964 160.455 288.38L159.691 289.144C157.678 288.38 156.011 286.922 154.9 285.117L153.859 283.381C152.609 285.464 151.498 287.2 151.498 287.408C151.359 287.894 150.734 289.491 151.22 290.741C151.706 291.991 154.692 292.824 155.248 293.935C155.803 295.046 157.331 298.101 159.414 299.698C161.497 301.295 164.83 304.142 166.01 303.517C167.19 302.892 167.676 302.753 167.329 301.643Z" fill="white"/>
<path d="M165.663 303.934C164.413 303.934 162.469 302.476 160.108 300.671C159.83 300.462 159.483 300.185 159.275 299.976C157.4 298.518 156.011 295.949 155.247 294.56L154.97 294.074C154.484 293.519 153.859 293.033 153.164 292.755C152.192 292.2 151.22 291.644 150.873 290.88C150.387 289.7 150.804 288.311 151.012 287.617C151.012 287.547 151.081 287.408 151.081 287.339C151.498 286.575 151.915 285.742 152.401 285.048C152.748 284.492 153.095 283.867 153.512 283.173L153.789 282.687L154.067 283.173C154.345 283.659 154.692 284.214 155.109 284.909C156.15 286.575 157.678 287.964 159.483 288.728L160.038 288.172C160.733 287.617 161.566 287.408 162.399 287.617L162.538 287.686L162.746 287.825V287.964C162.885 288.45 163.024 288.936 163.094 289.422C163.371 290.672 163.649 291.852 163.857 292.755C164.205 294.699 165.593 297.685 166.565 299.629C166.982 300.532 167.329 301.157 167.399 301.504C167.815 302.823 167.26 303.17 166.149 303.656L166.01 303.726C166.079 303.865 165.871 303.934 165.663 303.934ZM153.859 284.006L153.026 285.395C152.401 286.367 151.845 287.339 151.776 287.478C151.706 287.617 151.706 287.617 151.706 287.756C151.498 288.381 151.151 289.63 151.498 290.603C151.706 291.158 152.678 291.644 153.442 292.13C154.275 292.477 154.97 293.033 155.456 293.727C155.525 293.866 155.595 294.005 155.733 294.213C156.428 295.532 157.747 298.032 159.552 299.421L160.386 300.115C162.052 301.434 164.899 303.656 165.802 303.24L165.941 303.17C167.051 302.615 167.051 302.615 166.843 301.851C166.774 301.573 166.427 300.879 166.01 300.046C165.038 298.032 163.649 294.977 163.233 292.963C163.094 291.991 162.816 290.88 162.469 289.63C162.33 289.214 162.26 288.728 162.122 288.311C161.566 288.242 160.941 288.381 160.455 288.728L159.552 289.63L159.344 289.561C157.261 288.728 155.525 287.27 154.345 285.395L153.859 284.006Z" fill="#263238"/>
<path d="M142.541 228.111C142.541 228.111 144.138 244.636 143.652 248.386C143.166 252.135 142.402 264.356 143.999 272.133C145.665 279.91 148.165 289.144 149.068 291.922C149.97 294.699 148.512 298.241 148.165 300.81C147.818 303.379 147.818 304.42 148.859 304.767C149.901 305.115 158.303 307.267 162.608 307.128C166.982 306.92 168.232 305.878 168.024 304.767C167.815 303.657 165.871 303.101 164.205 301.851C162.191 300.185 160.386 298.31 158.789 296.296C157.331 294.283 156.22 291.366 156.22 290.117C156.22 288.867 157.331 268.036 157.331 262.551C157.331 257.065 159.9 246.025 161.149 240.956C162.399 235.887 163.649 228.805 163.649 228.25C163.649 227.694 142.541 228.111 142.541 228.111Z" fill="white"/>
<path d="M162.122 307.475C157.678 307.475 149.901 305.461 148.79 305.114C147.401 304.628 147.471 303.17 147.818 300.74C147.887 300.046 148.096 299.212 148.304 298.379C148.79 296.296 149.345 293.866 148.721 292.06C147.887 289.491 145.249 280.187 143.652 272.271C141.985 264.217 142.818 251.788 143.305 248.385C143.86 244.636 142.194 228.319 142.194 228.18L142.124 227.833H142.471C151.984 227.694 163.371 227.555 163.927 228.11L163.996 228.18V228.319C163.996 228.944 162.677 236.165 161.427 241.095C160.802 243.594 157.608 256.579 157.608 262.55C157.608 266.23 157.122 276.854 156.775 283.867C156.636 287.131 156.497 289.7 156.497 290.116C156.497 291.297 157.608 294.144 158.997 296.088C160.525 298.171 162.33 300.046 164.344 301.643C164.899 302.059 165.524 302.406 166.149 302.754C167.19 303.378 168.093 303.864 168.301 304.698C168.371 305.114 168.232 305.6 167.954 305.948C167.19 306.85 165.385 307.336 162.538 307.475H162.122ZM142.957 228.458C143.166 230.957 144.485 244.914 143.999 248.455C143.513 251.788 142.68 264.147 144.346 272.063C146.013 279.979 148.582 289.214 149.415 291.783C150.109 293.866 149.484 296.296 148.998 298.518C148.79 299.351 148.651 300.115 148.512 300.809C148.165 303.448 148.234 304.142 148.998 304.42C150.179 304.767 158.372 306.92 162.677 306.781C166.149 306.642 167.26 305.948 167.607 305.461C167.746 305.253 167.815 305.045 167.815 304.767C167.746 304.212 166.982 303.795 166.01 303.309C165.316 302.962 164.691 302.545 164.135 302.129C162.052 300.462 160.247 298.587 158.65 296.435C157.122 294.352 156.011 291.366 156.011 290.047C156.011 289.63 156.15 287.2 156.289 283.798C156.636 276.785 157.122 266.161 157.122 262.55C157.122 256.648 160.039 244.497 160.941 240.886C162.122 236.095 163.302 229.846 163.441 228.527C161.636 228.249 150.526 228.319 142.957 228.458Z" fill="#263238"/>
<path d="M156.497 286.02C156.775 279.354 157.4 266.647 157.4 262.551C157.4 257.135 159.969 246.025 161.219 240.956C162.469 235.887 163.719 228.805 163.719 228.249C163.719 227.694 142.541 228.041 142.541 228.041C142.541 228.041 144.207 244.567 143.652 248.316C143.096 252.135 142.332 264.286 143.999 272.063C145.04 276.993 146.429 282.548 147.54 286.645C150.526 287.617 153.65 287.339 156.497 286.02Z" fill="#263238"/>
<path d="M151.22 287.547C149.97 287.547 148.651 287.339 147.471 287.061L147.262 286.992L147.193 286.783C146.568 284.423 144.902 278.312 143.652 272.202C141.985 264.147 142.818 251.719 143.305 248.316C143.86 244.567 142.194 228.249 142.194 228.11L142.124 227.763H142.471C151.984 227.624 163.371 227.486 163.857 228.041L163.996 228.11V228.249C163.996 228.874 162.677 236.096 161.427 241.025C160.802 243.525 157.608 256.51 157.608 262.481C157.608 266.161 157.122 276.785 156.775 283.798L156.636 286.159L156.428 286.228C154.97 287.131 153.095 287.547 151.22 287.547ZM147.818 286.436C150.595 287.2 153.512 286.992 156.15 285.811L156.22 283.867C156.567 276.854 157.053 266.231 157.053 262.55C157.053 256.648 159.969 244.497 160.872 240.887C162.052 236.096 163.233 229.846 163.371 228.527C161.636 228.249 150.526 228.319 142.957 228.458C143.235 230.957 144.485 244.914 143.999 248.455C143.513 251.788 142.68 264.147 144.346 272.063C145.526 277.965 147.124 283.937 147.818 286.436Z" fill="#263238"/>
<path d="M162.677 307.128C167.052 306.92 168.301 305.878 168.093 304.767C167.885 303.656 165.941 303.101 164.274 301.851C162.261 300.185 160.455 298.31 158.858 296.296C158.372 295.602 157.886 294.838 157.539 294.074C156.914 293.866 156.22 294.144 155.942 294.769C155.872 294.838 155.873 294.977 155.873 295.116C155.595 296.574 155.525 297.963 155.525 297.963C155.525 297.963 151.845 297.407 148.998 296.921C148.721 298.31 148.304 299.699 148.165 300.809C147.818 303.309 147.818 304.42 148.86 304.767C149.901 305.114 158.303 307.267 162.677 307.128Z" fill="white"/>
<path d="M162.121 307.475C157.678 307.475 149.901 305.462 148.79 305.114C147.401 304.628 147.471 303.17 147.818 300.74C147.887 300.046 148.096 299.212 148.304 298.379C148.443 297.893 148.582 297.338 148.651 296.852L148.72 296.504L149.068 296.574C151.428 296.921 154.275 297.407 155.247 297.546C155.317 297.06 155.386 296.088 155.595 295.046C155.664 294.63 155.872 294.213 156.219 293.935C156.636 293.727 157.122 293.658 157.608 293.796H157.747L157.816 293.935C158.164 294.699 158.58 295.463 159.136 296.088C160.663 298.171 162.469 300.046 164.482 301.643C165.038 302.059 165.663 302.406 166.288 302.754C167.329 303.379 168.232 303.865 168.44 304.698C168.51 305.114 168.371 305.601 168.093 305.948C167.329 306.85 165.524 307.336 162.677 307.475H162.121ZM149.276 297.268C149.206 297.685 149.068 298.101 148.998 298.518C148.79 299.351 148.651 300.115 148.512 300.809C148.165 303.448 148.234 304.142 148.998 304.42C150.179 304.767 158.372 306.92 162.677 306.781C166.149 306.642 167.26 305.948 167.607 305.462C167.746 305.253 167.815 305.045 167.815 304.767C167.746 304.212 166.982 303.795 166.01 303.309C165.316 302.962 164.691 302.545 164.135 302.129C162.052 300.462 160.247 298.588 158.65 296.435C158.164 295.81 157.747 295.046 157.33 294.352C157.122 294.283 156.844 294.352 156.636 294.491C156.428 294.63 156.289 294.907 156.289 295.116C156.081 296.574 155.942 297.893 155.942 297.893V298.24L155.595 298.171C155.525 298.171 152.053 297.685 149.276 297.268Z" fill="#263238"/>
<path d="M152.262 129.443C152.262 129.443 139.694 134.581 139.694 135.831C139.694 137.081 144.068 178.395 144.068 178.395C140.597 187.977 137.819 197.837 135.805 207.835C133.028 222.695 135.111 230.749 135.111 230.749C135.111 230.749 148.026 233.388 160.177 231.791C172.329 230.194 185.313 228.666 187.535 228.18C188.785 227.902 190.104 227.694 191.423 227.624C191.423 227.624 189.757 213.737 185.868 202.072C181.98 190.407 177.675 176.034 177.675 176.034C177.675 176.034 176.634 138.261 176.425 137.358C176.217 136.456 168.857 131.456 164.552 130.97C160.247 130.484 152.262 129.443 152.262 129.443Z" fill="#164A41"/>
<path d="M151.706 232.624C146.082 232.624 140.458 232.068 134.972 231.096L134.764 231.027L134.695 230.819C134.695 230.749 132.612 222.556 135.389 207.766C137.403 197.767 140.111 187.977 143.652 178.395C143.374 175.826 139.347 137.15 139.347 135.9C139.347 134.65 147.401 131.109 152.123 129.165L152.192 129.095H152.262C152.331 129.095 160.316 130.137 164.552 130.623C168.649 131.109 176.356 136.039 176.703 137.289C176.911 138.192 177.883 171.868 177.953 175.964C178.231 176.867 182.466 190.685 186.146 201.864C190.035 213.46 191.701 227.347 191.701 227.486L191.771 227.833H191.423C190.104 227.972 188.854 228.111 187.604 228.388C186.146 228.666 180.661 229.36 173.648 230.263C169.482 230.819 164.76 231.374 160.177 231.999C157.4 232.416 154.553 232.624 151.706 232.624ZM135.389 230.471C137.125 230.819 149.068 232.902 160.108 231.443C164.691 230.818 169.412 230.263 173.579 229.708C180.522 228.805 186.077 228.111 187.466 227.833C189.132 227.486 190.451 227.347 191.007 227.277C190.729 225.055 188.993 212.626 185.521 202.142C181.702 190.615 177.328 176.312 177.259 176.173V176.103C176.981 165.688 176.217 138.469 176.009 137.497C175.662 136.664 168.649 131.873 164.482 131.387C160.455 130.901 153.164 129.998 152.262 129.859C146.429 132.22 140.249 135.136 139.972 135.97C139.972 136.942 142.819 164.16 144.346 178.464V178.534V178.603C140.874 188.185 138.097 197.976 136.083 207.974C133.653 221.236 135.042 229.083 135.389 230.471Z" fill="#263238"/>
<path d="M164.899 219.431C164.76 219.084 164.552 217.973 164.135 215.959L164.829 215.82C165.246 217.765 165.454 218.875 165.593 219.223L164.899 219.431Z" fill="#263238"/>
<path d="M163.51 212.904C162.191 206.377 160.455 197.212 160.455 197.073L161.15 196.934C161.15 197.003 162.885 206.169 164.205 212.765L163.51 212.904Z" fill="#263238"/>
<path d="M163.927 202.072C163.441 200.614 160.524 191.518 160.524 191.518L161.219 191.309C161.219 191.309 164.135 200.336 164.621 201.864L163.927 202.072Z" fill="#263238"/>
<path d="M176.078 197.003L175.453 196.656C175.8 196.031 176.148 195.268 176.564 194.295L177.189 194.573C176.773 195.476 176.425 196.309 176.078 197.003Z" fill="#263238"/>
<path d="M178.231 191.865L177.606 191.657C178.647 188.879 179.342 186.241 179.342 186.241L180.036 186.449C180.036 186.38 179.272 189.018 178.231 191.865Z" fill="#263238"/>
<path d="M176.564 188.116L175.87 187.907C176.356 186.449 177.328 181.658 177.328 181.589L178.022 181.727C178.022 181.866 177.05 186.657 176.564 188.116Z" fill="#263238"/>
<path d="M156.483 162.54L155.791 162.601L155.96 164.538L156.652 164.477L156.483 162.54Z" fill="#263238"/>
<path d="M155.595 160.341L154.9 152.425H172.329V153.12H155.664L156.289 160.272L155.595 160.341Z" fill="#263238"/>
<path d="M173.372 154.9L172.684 154.994L173.37 160.016L174.058 159.922L173.372 154.9Z" fill="#263238"/>
<path d="M175.037 146.524C176.009 150.065 176.634 153.676 176.842 157.286L177.12 157.078C176.842 147.496 176.495 137.844 176.425 137.358C176.356 136.872 173.578 134.789 170.523 133.192C171.565 136.247 173.926 142.844 175.037 146.524Z" fill="#B5B5B5"/>
<path d="M176.564 157.981L176.495 157.286C176.217 153.676 175.661 150.134 174.689 146.593C173.578 142.844 171.217 136.039 170.176 133.262L169.898 132.428L170.662 132.845C173.37 134.303 176.564 136.456 176.772 137.219C176.842 137.358 176.911 137.844 177.536 157.009V157.147L176.564 157.981ZM171.079 133.886C172.19 137.011 174.273 142.983 175.314 146.385C175.87 148.26 176.286 150.204 176.564 152.079C176.217 139.927 176.078 137.636 176.009 137.358C175.939 137.081 173.925 135.484 171.079 133.886Z" fill="#263238"/>
<path d="M145.526 132.359C142.541 133.748 139.624 135.275 139.624 135.831C139.624 137.081 143.652 175.478 143.929 178.256L151.012 178.047C151.012 178.047 151.914 168.535 151.914 166.868C151.914 165.202 151.428 151.662 149.276 144.232C147.609 138.191 146.082 133.817 145.526 132.359Z" fill="#B5B5B5"/>
<path d="M143.652 178.672V178.325C142.957 171.451 139.347 137.08 139.347 135.9C139.347 135.553 139.347 134.928 145.457 132.081L145.804 131.942L145.943 132.289C146.499 133.886 148.026 138.191 149.762 144.163C151.915 151.523 152.401 164.785 152.401 166.938C152.401 168.674 151.498 177.77 151.498 178.186V178.464L143.652 178.672ZM145.388 132.845C140.527 135.136 140.041 135.761 140.041 135.9C140.041 136.733 142.332 159.022 144.346 177.909L150.804 177.77C150.942 176.103 151.706 168.396 151.706 166.868C151.706 164.785 151.22 151.593 149.068 144.302C147.401 138.747 146.012 134.65 145.388 132.845Z" fill="#263238"/>
<path d="M172.12 147.565C172.12 147.565 171.079 143.538 169.621 139.094C168.718 136.456 167.607 133.887 166.288 131.387C165.732 131.179 165.107 131.109 164.552 130.97C160.247 130.484 152.262 129.443 152.262 129.443C152.262 129.443 150.873 129.998 148.998 130.831C149.484 132.081 150.248 134.095 151.081 136.108C152.47 139.441 154.067 147.774 154.067 147.774L172.12 147.565Z" fill="#B5B5B5"/>
<path d="M153.789 148.121L153.72 147.843C153.72 147.774 152.123 139.511 150.804 136.247C149.97 134.234 149.207 132.289 148.721 130.97L148.582 130.692L148.859 130.554C150.734 129.72 152.123 129.165 152.123 129.165L152.192 129.095H152.262C152.331 129.095 160.316 130.137 164.552 130.623C165.177 130.692 165.732 130.831 166.357 131.04L166.496 131.109L166.565 131.248C167.885 133.748 168.996 136.317 169.968 139.025C171.426 143.469 172.467 147.496 172.467 147.496L172.606 147.912L153.789 148.121ZM149.415 131.04C149.901 132.359 150.665 134.164 151.429 135.97C152.678 138.955 154.067 145.899 154.345 147.426L171.704 147.218C171.357 146.107 170.454 142.774 169.273 139.233C168.371 136.664 167.26 134.095 166.01 131.734C165.524 131.595 164.968 131.456 164.482 131.387C160.455 130.901 153.164 129.998 152.262 129.859C151.984 129.929 150.873 130.415 149.415 131.04Z" fill="#263238"/>
<path d="M155.525 122.29C155.525 122.29 153.998 122.29 153.72 123.193C153.442 124.096 150.804 129.165 150.942 130.414C151.081 131.664 152.401 135.414 157.678 136.594C162.955 137.775 164.413 135.969 164.552 135.414C164.691 134.858 166.635 130.345 166.635 130.345C166.635 130.345 158.164 122.36 155.525 122.29Z" fill="#B5B5B5"/>
<path d="M160.733 137.358C159.691 137.358 158.58 137.219 157.539 136.942C152.123 135.692 150.665 131.873 150.526 130.484C150.456 129.582 151.429 127.429 152.539 124.929C152.887 124.096 153.234 123.402 153.303 123.124C153.65 122.013 155.386 121.944 155.456 121.944C158.164 122.013 165.871 129.304 166.774 130.137L166.982 130.276L166.913 130.484C166.288 132.012 164.968 135.136 164.83 135.553C164.621 136.247 163.441 137.358 160.733 137.358ZM155.595 122.638C155.525 122.638 154.275 122.707 154.137 123.263C154.067 123.541 153.72 124.235 153.303 125.138C152.539 126.804 151.29 129.582 151.359 130.345C151.429 131.595 152.748 135.067 157.817 136.178C163.371 137.428 164.344 135.275 164.344 135.275C164.482 134.789 165.941 131.317 166.357 130.415C163.788 128.123 157.539 122.707 155.595 122.638Z" fill="#263238"/>
<path d="M156.706 114.653C156.706 114.653 156.497 118.888 156.081 120.346C155.664 121.804 155.178 124.026 155.178 124.026C155.178 124.026 156.567 128.748 161.011 130.276C163.649 131.178 164.552 130.9 164.552 130.9L165.732 128.47C165.732 128.54 160.941 114.444 156.706 114.653Z" fill="white"/>
<path d="M164.135 131.387C163.024 131.317 161.913 131.109 160.941 130.692C156.358 129.095 154.97 124.374 154.9 124.165V124.096V124.026C154.9 123.957 155.386 121.735 155.803 120.277C156.289 118.819 156.428 114.722 156.428 114.653V114.375H156.775H156.844C161.149 114.375 165.593 127.012 166.079 128.47L166.149 128.609L164.83 131.317L164.691 131.387C164.482 131.387 164.274 131.387 164.135 131.387ZM155.525 124.096C155.734 124.721 157.192 128.679 161.08 130.067C162.122 130.484 163.163 130.692 164.274 130.692L165.316 128.54C163.996 124.721 160.177 115.486 157.053 115.069C156.983 116.875 156.775 118.749 156.428 120.555C156.011 121.735 155.664 123.61 155.525 124.096Z" fill="#263238"/>
<path d="M181.841 106.251C181.841 106.251 183.369 110.973 183.021 113.264C182.674 115.556 180.383 118.958 180.036 120.694C179.55 122.707 178.647 124.582 177.397 126.249C176.286 127.498 171.287 130.97 169.829 131.595C168.371 132.22 165.177 131.526 164.552 130.415C163.927 129.304 160.802 125.485 160.108 122.985C159.761 121.944 159.552 120.833 159.413 119.722C159.413 119.722 156.08 117.847 155.178 115.07C154.483 112.986 155.178 110.14 156.567 109.931C157.955 109.723 159.552 112.223 159.552 112.223C159.552 112.223 166.635 111.389 170.731 111.251C174.828 110.973 181.841 106.251 181.841 106.251Z" fill="white"/>
<path d="M168.51 132.151C166.843 132.151 164.899 131.456 164.343 130.554C164.205 130.276 163.857 129.79 163.441 129.234C162.26 127.568 160.455 124.999 159.9 123.055C159.622 122.013 159.344 120.972 159.205 119.93C158.511 119.513 155.803 117.708 154.97 115.208C154.484 113.681 154.553 112.084 155.317 110.626C155.595 110.14 156.011 109.723 156.567 109.584C157.955 109.306 159.344 111.181 159.83 111.806C161.011 111.667 167.121 110.973 170.801 110.834C174.759 110.695 181.702 106.043 181.772 105.973C181.841 105.904 181.98 105.904 182.05 105.904C182.188 105.973 182.258 106.043 182.258 106.112C182.327 106.321 183.785 110.903 183.438 113.264C183.022 114.792 182.466 116.319 181.702 117.708C181.216 118.68 180.8 119.652 180.453 120.694C179.966 122.777 179.064 124.721 177.745 126.388C176.634 127.707 171.634 131.179 170.107 131.873C169.551 132.081 168.996 132.151 168.51 132.151ZM156.775 110.209H156.636C156.289 110.348 156.011 110.556 155.803 110.903C155.178 112.153 155.109 113.611 155.525 114.931C156.358 117.5 159.622 119.375 159.622 119.375C159.761 119.444 159.83 119.583 159.761 119.652C159.9 120.763 160.108 121.805 160.455 122.846C160.941 124.652 162.746 127.151 163.927 128.818C164.343 129.443 164.691 129.929 164.899 130.206C165.385 131.04 168.371 131.804 169.69 131.248C171.148 130.623 176.078 127.221 177.12 125.971C178.369 124.374 179.203 122.569 179.689 120.555C180.036 119.444 180.453 118.402 181.008 117.43C181.772 116.111 182.327 114.653 182.744 113.125C183.022 111.32 182.05 107.918 181.702 106.737C180.175 107.709 174.342 111.32 170.732 111.459C166.704 111.667 159.691 112.431 159.622 112.431C159.483 112.431 159.344 112.362 159.275 112.292C158.858 111.737 157.678 110.209 156.775 110.209Z" fill="#263238"/>
<path d="M176.009 122.082C175.8 122.082 175.661 121.943 175.661 121.735C175.731 120.832 175.8 119.93 176.009 119.027C176.356 117.014 178.439 115.139 178.578 115C178.717 114.861 178.925 114.861 179.064 115C179.203 115.139 179.203 115.347 179.064 115.486C179.064 115.486 177.05 117.361 176.703 119.097C176.495 119.93 176.425 120.832 176.356 121.666C176.425 121.943 176.286 122.082 176.009 122.082C176.078 122.082 176.078 122.082 176.009 122.082Z" fill="#263238"/>
<path d="M174.412 125.623C174.273 125.623 174.134 125.623 173.995 125.554C173.162 125.415 172.398 125.068 171.634 124.582C171.495 124.443 171.426 124.235 171.565 124.096C171.704 123.957 171.912 123.888 172.051 124.026C172.676 124.443 173.37 124.721 174.064 124.86C174.898 124.998 175.037 124.582 175.037 124.582C175.106 124.374 175.314 124.304 175.453 124.374C175.662 124.443 175.731 124.582 175.662 124.79C175.523 125.346 174.967 125.693 174.412 125.623Z" fill="#263238"/>
<path d="M171.704 127.776C171.704 127.776 167.954 127.498 167.538 123.193C167.538 122.985 167.676 122.846 167.885 122.846C168.093 122.846 168.232 122.985 168.232 123.193C168.579 126.943 171.565 127.151 171.704 127.151C171.912 127.151 172.051 127.29 172.051 127.498C172.051 127.637 171.912 127.776 171.704 127.776Z" fill="#263238"/>
<path d="M175.523 115.069C175.453 115.069 175.384 115.069 175.314 115C174.064 113.958 172.398 113.68 170.87 114.236C170.662 114.305 170.523 114.166 170.454 114.028C170.384 113.889 170.454 113.68 170.593 113.611C172.329 112.986 174.342 113.264 175.731 114.514C175.87 114.652 175.87 114.861 175.731 115C175.661 115.069 175.592 115.069 175.523 115.069Z" fill="#263238"/>
<path d="M181.077 117.43C180.939 117.43 180.8 117.36 180.73 117.222C180.591 116.736 180.244 116.388 179.758 116.25C179.411 116.18 179.064 116.18 178.717 116.319C178.578 116.388 178.3 116.319 178.231 116.18C178.161 116.041 178.231 115.763 178.369 115.694C178.856 115.486 179.411 115.416 179.897 115.555C180.522 115.833 181.008 116.319 181.286 116.944C181.355 117.083 181.286 117.291 181.147 117.43H181.077Z" fill="#263238"/>
<path d="M172.815 118.541C172.537 119.236 172.051 119.652 171.634 119.513C171.287 119.374 171.218 118.68 171.495 118.055C171.773 117.361 172.329 116.944 172.676 117.083C173.023 117.222 173.092 117.916 172.815 118.541Z" fill="#263238"/>
<path d="M178.439 120.485C178.161 121.18 177.675 121.596 177.258 121.457C176.842 121.319 176.842 120.624 177.12 119.999C177.397 119.374 177.883 118.888 178.3 119.027C178.717 119.166 178.717 119.791 178.439 120.485Z" fill="#263238"/>
<path d="M181.425 153.745C181.425 153.745 183.855 148.606 183.924 148.259C184.063 147.912 186.563 146.662 187.674 146.454C188.924 146.176 190.243 146.246 191.423 146.593C192.256 146.94 193.159 151.314 193.02 151.731C192.951 152.148 181.425 153.745 181.425 153.745Z" fill="white"/>
<path d="M180.869 154.161L181.147 153.606C182.119 151.523 183.577 148.398 183.647 148.12C183.855 147.495 186.702 146.246 187.674 146.037C188.993 145.76 190.382 145.829 191.632 146.176C192.673 146.662 193.576 151.314 193.437 151.731C193.368 152.009 193.298 152.425 181.494 154.022L180.869 154.161ZM189.549 146.593C188.993 146.593 188.368 146.662 187.813 146.732C186.563 147.079 185.382 147.634 184.271 148.398C184.202 148.676 182.674 151.87 182.05 153.328C186.007 152.773 191.84 151.87 192.812 151.523C192.812 150.62 191.909 147.148 191.423 146.871C190.798 146.662 190.174 146.523 189.549 146.593Z" fill="#263238"/>
<path d="M191.493 146.524C191.493 146.524 193.298 146.871 193.784 147.287C194.27 147.704 195.242 149.926 194.687 150.967C194.409 151.523 193.715 151.87 193.09 151.662L191.493 146.524Z" fill="white"/>
<path d="M193.506 152.079C193.368 152.079 193.159 152.079 193.02 152.009L192.881 151.94L191.076 146.107L191.632 146.176C191.979 146.246 193.576 146.593 194.131 147.079C194.687 147.565 195.798 149.926 195.103 151.176C194.687 151.731 194.131 152.079 193.506 152.079ZM193.368 151.384C193.784 151.454 194.201 151.245 194.409 150.829C194.895 149.995 193.992 147.982 193.576 147.565C193.09 147.287 192.604 147.079 192.048 147.01L193.368 151.384Z" fill="#263238"/>
<path d="M186.563 148.259C186.563 148.259 190.312 151.245 191.007 151.106C191.493 150.967 191.909 150.689 192.257 150.342C192.257 150.342 188.507 144.649 187.118 144.718C185.73 144.857 184.341 146.662 184.341 146.662C184.341 146.662 182.397 151.245 182.05 151.592C181.702 151.939 186.771 151.939 186.771 151.939" fill="white"/>
<path d="M186.771 152.217C181.98 152.217 181.841 151.94 181.772 151.731L181.841 151.315C182.049 151.037 183.16 148.676 184.063 146.524L184.133 146.454C184.202 146.385 185.591 144.51 187.118 144.371C188.646 144.232 191.701 148.746 192.604 150.134L192.743 150.343L192.604 150.551C192.256 151.037 191.701 151.315 191.146 151.454C190.451 151.592 187.882 149.648 186.424 148.537L186.841 147.982C188.507 149.301 190.659 150.759 191.076 150.759C191.423 150.69 191.701 150.482 191.909 150.273C190.173 147.704 187.882 144.996 187.257 145.066C186.285 145.135 185.174 146.315 184.757 146.871C184.271 148.051 183.23 150.482 182.674 151.454C184.063 151.592 185.452 151.662 186.841 151.592L186.771 152.217Z" fill="#263238"/>
<path d="M179.55 151.801L170.593 173.673C170.454 174.02 170.662 174.437 171.009 174.575C171.148 174.645 171.287 174.645 171.356 174.575L188.021 170.201C188.229 170.132 188.368 169.993 188.438 169.854L198.089 150.065C198.228 149.717 198.089 149.301 197.742 149.162C197.673 149.093 197.534 149.093 197.395 149.093L180.036 151.384C179.828 151.453 179.619 151.592 179.55 151.801Z" fill="#263238"/>
<path d="M171.218 174.923C170.94 174.923 170.662 174.784 170.454 174.576C170.176 174.298 170.107 173.881 170.245 173.534L179.203 151.662C179.342 151.315 179.619 151.106 180.036 151.037L197.395 148.746C197.742 148.676 198.159 148.884 198.367 149.162C198.575 149.44 198.645 149.856 198.436 150.204L188.854 169.993C188.715 170.271 188.507 170.479 188.229 170.548L171.495 174.923C171.426 174.923 171.287 174.923 171.218 174.923ZM197.534 149.44L180.105 151.731C179.966 151.731 179.897 151.801 179.828 151.94L170.87 173.812C170.801 173.951 170.87 174.089 170.94 174.159C171.009 174.228 171.148 174.298 171.287 174.228L188.021 169.854C188.09 169.854 188.16 169.784 188.229 169.715L197.881 149.995C197.95 149.926 197.95 149.787 197.881 149.648C197.811 149.509 197.673 149.44 197.534 149.44Z" fill="#263238"/>
<path d="M144.207 133.123C144.207 133.123 133.097 136.803 132.889 137.567C132.681 138.4 133.028 181.936 134.139 182.561C135.319 183.116 166.843 173.395 166.843 173.395H173.787C175.522 173.326 177.189 172.84 178.786 172.146C179.827 171.59 181.98 170.201 181.216 170.201C180.452 170.201 181.008 170.063 179.758 170.549C178.717 170.896 177.606 171.104 176.564 171.243C176.564 171.243 180.938 169.09 181.494 168.396L183.23 166.313C183.23 166.313 185.521 164.23 184.619 164.022C183.716 163.813 181.633 164.785 181.633 164.785L177.953 164.994C177.953 164.994 180.8 163.258 181.702 162.841C182.605 162.355 184.827 161.383 184.896 160.758C185.035 160.133 183.855 160.272 182.813 160.619C181.772 160.966 175.939 162.008 175.453 162.077C174.967 162.147 173.301 161.939 172.051 162.633C170.801 163.327 167.26 168.257 166.774 168.674C166.288 169.09 145.943 169.715 145.943 169.715L146.29 149.926" fill="#B5B5B5"/>
<path d="M134.208 182.908C134.139 182.908 134.069 182.908 134 182.908C133.653 182.769 133.097 182.422 132.681 160.203C132.542 150.69 132.403 138.053 132.611 137.567C132.82 136.733 138.999 134.581 144.138 132.845L144.346 133.539C139.277 135.206 133.792 137.219 133.236 137.775C132.889 140.413 133.514 179.922 134.347 182.283C136.222 182.283 154.622 176.867 166.704 173.118H166.843H173.787C175.453 172.979 177.05 172.632 178.578 171.868C179.272 171.521 179.966 171.035 180.591 170.618L180.452 170.687C180.314 170.757 180.105 170.826 179.758 170.965C178.717 171.312 177.606 171.521 176.495 171.659L174.55 171.868L176.286 170.965C177.953 170.132 180.73 168.674 181.077 168.188L182.813 166.105C183.438 165.619 183.924 165.063 184.271 164.369C183.299 164.438 182.397 164.716 181.563 165.132V165.202L176.495 165.549L177.744 164.785C177.883 164.716 180.591 163.049 181.563 162.633L181.841 162.494C183.508 161.661 184.41 161.105 184.549 160.827C183.994 160.758 183.438 160.897 182.952 161.105C182.188 161.383 179.203 161.938 177.189 162.286C176.425 162.424 175.731 162.563 175.592 162.633C175.314 162.702 175.106 162.702 174.828 162.702C173.925 162.633 173.023 162.841 172.19 163.188C171.356 163.674 169.134 166.452 168.023 167.979C167.468 168.674 167.19 169.09 167.051 169.229C166.704 169.576 159.622 169.993 146.012 170.34H145.665L146.012 150.204H146.707L146.36 169.646C154.136 169.437 165.593 169.021 166.635 168.674C166.774 168.535 167.121 168.049 167.537 167.563C169.273 165.341 171.079 163.119 171.981 162.633C172.884 162.216 173.925 162.008 174.898 162.077C175.106 162.077 175.314 162.077 175.453 162.077C175.592 162.077 176.147 161.938 177.12 161.73C178.994 161.383 182.049 160.827 182.744 160.55C183.299 160.411 184.549 159.994 185.035 160.48C185.174 160.619 185.313 160.827 185.243 161.105C185.105 161.661 184.063 162.355 182.119 163.258L181.841 163.397C181.355 163.674 180.244 164.299 179.341 164.785L181.494 164.646C181.911 164.438 183.716 163.605 184.619 163.883C184.827 163.952 185.035 164.091 185.105 164.299C185.243 164.994 184.132 166.105 183.438 166.73L181.772 168.743C180.869 169.507 179.828 170.132 178.786 170.618C179.064 170.548 179.411 170.479 179.689 170.34L180.314 170.062C180.522 169.993 180.73 169.924 180.938 169.924H181.286C181.633 169.924 181.772 170.132 181.772 170.271C181.772 170.34 181.911 170.896 178.994 172.562C177.397 173.326 175.661 173.743 173.925 173.881H166.982C159.761 175.964 136.986 182.908 134.208 182.908Z" fill="#263238"/>
<path d="M184.827 160.828C184.966 160.272 183.785 160.341 182.744 160.689C181.702 161.036 175.87 162.077 175.453 162.147C175.037 162.216 173.301 162.008 172.051 162.702C170.801 163.397 167.26 168.327 166.774 168.743C166.496 169.021 159.205 169.299 153.373 169.507C153.234 170.687 153.164 171.868 153.164 173.048C153.234 174.437 153.512 175.826 153.998 177.145C160.872 175.131 166.913 173.256 166.913 173.256H173.856C175.592 173.187 177.259 172.701 178.856 172.007C179.897 171.451 182.05 170.062 181.286 170.062C180.522 170.062 181.078 169.924 179.828 170.41C178.786 170.757 177.675 170.965 176.634 171.104C176.634 171.104 181.008 168.951 181.564 168.257L183.299 166.174C183.299 166.174 185.591 164.091 184.688 163.883C183.786 163.674 181.702 164.646 181.702 164.646L178.022 164.855C178.022 164.855 180.869 163.119 181.772 162.702C182.605 162.425 184.758 161.383 184.827 160.828Z" fill="white"/>
<path d="M153.789 177.7L153.65 177.422C153.164 176.103 152.817 174.645 152.817 173.187C152.817 172.006 152.817 170.756 153.025 169.576L153.095 169.298H153.373C164.205 168.951 166.288 168.673 166.635 168.604C166.774 168.465 167.121 167.979 167.537 167.493C169.273 165.271 171.079 163.049 171.981 162.563C172.884 162.146 173.926 161.938 174.898 162.008C175.106 162.008 175.314 162.008 175.453 162.008C175.592 162.008 176.147 161.869 177.12 161.66C178.994 161.313 182.049 160.758 182.744 160.48C183.299 160.341 184.549 159.924 185.035 160.411C185.174 160.549 185.313 160.758 185.244 161.035C185.105 161.591 184.063 162.285 182.119 163.188L181.841 163.327C181.355 163.605 180.175 164.229 179.342 164.715L181.494 164.577C181.911 164.368 183.716 163.535 184.619 163.813C184.827 163.882 185.035 164.021 185.105 164.229C185.244 164.924 184.133 166.035 183.438 166.66L181.772 168.673C180.869 169.437 179.828 170.062 178.786 170.548C179.064 170.479 179.411 170.409 179.689 170.27L180.383 169.993C180.591 169.923 180.8 169.854 181.008 169.854H181.355C181.772 169.854 181.841 170.062 181.841 170.201C181.841 170.34 181.98 170.826 179.064 172.492C177.467 173.256 175.731 173.673 173.995 173.812H167.051C166.427 174.02 160.663 175.756 154.206 177.7H153.789ZM153.65 169.923C153.511 170.965 153.442 172.076 153.511 173.117C153.581 174.367 153.789 175.617 154.206 176.797C160.872 174.784 166.704 173.048 166.774 172.978H166.843H173.787C175.453 172.839 177.05 172.492 178.578 171.728C179.272 171.381 179.966 170.895 180.591 170.479L180.452 170.548C180.314 170.618 180.105 170.687 179.758 170.826C178.717 171.173 177.606 171.381 176.495 171.52L174.55 171.728L176.356 170.826C178.022 169.993 180.8 168.534 181.147 168.048L182.883 165.965C183.508 165.479 183.994 164.924 184.341 164.229C183.369 164.299 182.466 164.577 181.633 164.993L181.563 165.132L176.495 165.479L177.744 164.715C177.883 164.646 180.591 162.98 181.563 162.563L181.841 162.424C183.508 161.591 184.41 161.035 184.549 160.758C183.994 160.688 183.438 160.827 182.952 161.035C182.188 161.313 179.203 161.869 177.189 162.216C176.425 162.355 175.731 162.494 175.592 162.563C175.314 162.632 175.106 162.632 174.828 162.632C173.926 162.563 173.023 162.771 172.19 163.118C171.356 163.605 169.134 166.382 168.024 167.91C167.468 168.604 167.19 169.021 167.051 169.159C166.982 169.229 166.635 169.507 153.65 169.923Z" fill="#263238"/>
<path d="M175.87 168.674L175.731 167.979C175.939 167.91 180.869 166.59 181.494 166.521C182.049 166.382 182.536 166.174 183.022 165.966L183.299 166.59C182.744 166.799 182.188 167.007 181.633 167.215C181.077 167.354 175.939 168.674 175.87 168.674Z" fill="#263238"/>
</g>
<defs>
<filter id="filter0_d_130_107" x="0" y="0.530273" width="332.613" height="314.945" filterUnits="userSpaceOnUse" color-interpolation-filters="sRGB">
<feFlood flood-opacity="0" result="BackgroundImageFix"/>
<feColorMatrix in="SourceAlpha" type="matrix" values="0 0 0 0 0 0 0 0 0 0 0 0 0 0 0 0 0 0 127 0" result="hardAlpha"/>
<feOffset dy="4"/>
<feGaussianBlur stdDeviation="2"/>
<feComposite in2="hardAlpha" operator="out"/>
<feColorMatrix type="matrix" values="0 0 0 0 0 0 0 0 0 0 0 0 0 0 0 0 0 0 0.25 0"/>
<feBlend mode="normal" in2="BackgroundImageFix" result="effect1_dropShadow_130_107"/>
<feBlend mode="normal" in="SourceGraphic" in2="effect1_dropShadow_130_107" result="shape"/>
</filter>
</defs>
</svg>
