<svg width="3729" height="1723" viewBox="0 0 3729 1723" fill="none" xmlns="http://www.w3.org/2000/svg">
<mask id="mask0_186_309" style="mask-type:luminance" maskUnits="userSpaceOnUse" x="1378" y="8" width="972" height="978">
<path d="M2349.36 8.97852H1378.24V985.773H2349.36V8.97852Z" fill="white"/>
</mask>
<g mask="url(#mask0_186_309)">
<path fill-rule="evenodd" clip-rule="evenodd" d="M1995.46 469.396C1982.38 462.882 1977.03 447.228 1983.54 434.201L2104.83 187.94L2152 211.211L2030.71 457.471C2024.41 470.289 2008.49 475.647 1995.46 469.396ZM2075.52 71.7441L2076.36 72.322C2280.28 183.948 2361.81 437.615 2258.17 648.365C2227.75 709.983 2184.62 761.41 2133.77 800.912C2047.73 867.363 1938.94 899.774 1830.15 890.686L1961.69 623.676C1981.28 585.329 1990.11 578.816 2027.03 563.477C2065.64 547.298 2079.04 543.883 2099.74 507.795C2139.24 439.033 2182.1 312.962 2208.79 238.789L2176.95 223.713C2143.44 297.57 2126.11 341.328 2090.86 410.352C2009.91 569.15 1997.98 488.727 1938.89 548.401C1932.06 555.23 1906.79 600.668 1876.38 658.031L1736.33 942.06L1723.57 967.905C1857.05 1005.41 2005.34 986.343 2129.47 903.135C2214.41 846.351 2275.76 767.923 2311.54 680.146C2309.54 684.401 2307.86 688.971 2305.86 693.226C2411.82 463.723 2316.11 190.199 2088.02 77.7326C2083.5 75.4738 2079.51 73.7403 2075.52 71.7441ZM1927.86 436.197C1914.78 429.683 1909.42 414.029 1915.93 401.002L2037.22 154.741L2084.4 178.012L1963.11 424.273C1956.8 437.037 1940.88 442.448 1927.86 436.197Z" fill="#EDEDED"/>
</g>
<mask id="mask1_186_309" style="mask-type:luminance" maskUnits="userSpaceOnUse" x="1378" y="8" width="972" height="978">
<path d="M2349.36 8.97852H1378.24V985.773H2349.36V8.97852Z" fill="white"/>
</mask>
<g mask="url(#mask1_186_309)">
<path fill-rule="evenodd" clip-rule="evenodd" d="M1404.08 454.123L1412.33 443.617C1418.32 433.951 1415.43 439.939 1421.16 428.278L1454.67 358.991C1495.59 285.712 1594.98 157.906 1709.76 123.236C1631.91 178.918 1518.02 257.608 1443.32 462.37C1376.3 646.697 1420.89 787.898 1511.77 854.926C1595.87 916.859 1704.34 932.198 1746.95 848.938C1780.46 783.906 1816.55 713.725 1851.48 645.542C1878.48 586.761 1898.92 539.011 1900.33 529.345C1911.68 446.138 1840.66 485.588 1917.09 324.531C1950.34 254.666 1974.45 214.061 2012.54 142.462L1981.28 126.283C1938.68 192.734 1864.82 303.257 1834.41 376.536C1818.49 414.883 1823.9 427.385 1834.67 467.99C1844.91 506.6 1845.18 517.421 1826.42 556.346L1722.2 759.742C1673.61 854.611 1578.22 829.344 1516.87 759.164C1467.43 703.482 1447.58 614.286 1477.68 518.577C1529.68 489.58 1596.4 494.991 1669.41 447.294C1791.86 366.923 1812.29 140.519 1952.86 43.6536C1796.06 -76.4824 1257.21 131.116 1404.08 454.123Z" fill="#EDEDED"/>
</g>
<mask id="mask2_186_309" style="mask-type:luminance" maskUnits="userSpaceOnUse" x="1378" y="0" width="972" height="977">
<path d="M2349.35 0H1378.23V976.794H2349.35V0Z" fill="white"/>
</mask>
<g mask="url(#mask2_186_309)">
<path fill-rule="evenodd" clip-rule="evenodd" d="M2202.49 166.351L2156.47 125.43L2116.18 96.1706V151.012L2075.52 71.7441L2177.8 74.3181L2117.86 94.227L2157.36 123.434L2202.49 166.351Z" fill="#EDEDED"/>
</g>
<path d="M64.1499 1698.35C57.6092 1698.35 52.5778 1695.59 49.0558 1690.05C45.5339 1685.02 43.0182 1678.48 41.5088 1670.43C39.9994 1662.38 39.2447 1653.83 39.2447 1644.77C39.2447 1634.71 39.9994 1621.88 41.5088 1606.28C43.0182 1590.18 44.7792 1571.06 46.7917 1548.92L86.7911 1176.1H199.242C234.965 1176.1 262.637 1175.59 282.26 1174.59C301.882 1173.08 316.473 1171.82 326.033 1170.81C335.592 1169.31 342.888 1168.55 347.919 1168.55C353.454 1168.55 357.227 1169.56 359.24 1171.57C361.755 1173.08 363.013 1177.61 363.013 1185.15C363.013 1194.21 361.252 1204.02 357.73 1214.59C354.208 1225.15 349.428 1234.21 343.391 1241.76C337.856 1249.3 331.316 1253.08 323.768 1253.08C320.75 1253.08 316.725 1253.08 311.693 1253.08C307.165 1252.57 301.63 1252.07 295.09 1251.57C289.052 1250.56 282.511 1249.56 275.467 1248.55L169.054 1232.7L124.526 1698.35H64.1499ZM104.904 1466.66L114.715 1408.55H150.941C172.576 1408.55 193.456 1407.79 213.582 1406.28C234.21 1404.77 251.568 1403.26 265.656 1401.75C280.247 1400.24 289.304 1399.49 292.826 1399.49C296.851 1399.49 299.869 1400.75 301.882 1403.26C303.895 1405.28 304.901 1408.3 304.901 1412.32C304.901 1419.87 299.618 1427.67 289.052 1435.72C278.989 1443.77 265.908 1450.56 249.807 1456.09C234.21 1461.63 218.11 1464.65 201.506 1465.15L104.904 1466.66ZM447.257 1700.62C403.987 1700.62 370.277 1688.04 346.127 1662.88C322.479 1637.22 310.655 1599.74 310.655 1550.43C310.655 1517.73 315.938 1487.54 326.504 1459.87C337.573 1431.69 352.416 1407.04 371.032 1385.91C389.648 1364.77 411.031 1348.42 435.182 1336.85C459.835 1324.77 485.747 1318.74 512.916 1318.74C556.186 1318.74 589.142 1331.57 611.783 1357.23C634.927 1382.89 646.499 1421.63 646.499 1473.45C646.499 1504.65 641.216 1534.08 630.65 1561.75C620.588 1588.92 606.5 1613.07 588.387 1634.2C570.274 1654.83 549.142 1671.18 524.992 1683.26C500.841 1694.83 474.93 1700.62 447.257 1700.62ZM465.37 1644.01C484.489 1644.01 500.841 1636.97 514.426 1622.88C528.514 1608.8 539.08 1589.42 546.123 1564.77C553.67 1540.12 557.444 1512.44 557.444 1481.75C557.444 1449.05 552.413 1423.14 542.35 1404.02C532.79 1384.9 516.69 1375.34 494.049 1375.34C475.433 1375.34 458.829 1382.38 444.238 1396.47C430.15 1410.56 419.081 1429.93 411.031 1454.58C403.484 1478.73 399.711 1506.41 399.711 1537.6C399.711 1572.32 405.245 1598.73 416.314 1616.85C427.383 1634.96 443.735 1644.01 465.37 1644.01ZM815.765 1700.62C772.496 1700.62 738.785 1688.04 714.635 1662.88C690.987 1637.22 679.164 1599.74 679.164 1550.43C679.164 1517.73 684.447 1487.54 695.013 1459.87C706.082 1431.69 720.924 1407.04 739.54 1385.91C758.156 1364.77 779.54 1348.42 803.69 1336.85C828.344 1324.77 854.255 1318.74 881.425 1318.74C924.694 1318.74 957.65 1331.57 980.291 1357.23C1003.44 1382.89 1015.01 1421.63 1015.01 1473.45C1015.01 1504.65 1009.72 1534.08 999.159 1561.75C989.096 1588.92 975.008 1613.07 956.895 1634.2C938.782 1654.83 917.651 1671.18 893.5 1683.26C869.349 1694.83 843.438 1700.62 815.765 1700.62ZM833.878 1644.01C852.997 1644.01 869.349 1636.97 882.934 1622.88C897.022 1608.8 907.588 1589.42 914.632 1564.77C922.179 1540.12 925.952 1512.44 925.952 1481.75C925.952 1449.05 920.921 1423.14 910.858 1404.02C901.299 1384.9 885.198 1375.34 862.557 1375.34C843.941 1375.34 827.338 1382.38 812.747 1396.47C798.659 1410.56 787.59 1429.93 779.54 1454.58C771.992 1478.73 768.219 1506.41 768.219 1537.6C768.219 1572.32 773.753 1598.73 784.822 1616.85C795.891 1634.96 812.243 1644.01 833.878 1644.01ZM1126.16 1701.37C1098.99 1701.37 1079.37 1690.3 1067.29 1668.17C1055.72 1646.03 1049.94 1613.57 1049.94 1570.81C1049.94 1534.08 1054.97 1500.37 1065.03 1469.68C1075.6 1438.99 1090.19 1412.57 1108.8 1390.43C1127.42 1367.79 1149.05 1350.43 1173.71 1338.36C1198.36 1325.78 1225.03 1319.49 1253.71 1319.49C1271.32 1319.49 1288.67 1322.51 1305.78 1328.55C1323.39 1334.08 1338.49 1339.87 1351.06 1345.91L1326.91 1419.87C1313.33 1410.81 1298.99 1403.01 1283.89 1396.47C1269.3 1389.93 1255.72 1384.9 1243.14 1381.38C1231.07 1377.86 1221.76 1376.09 1215.22 1376.09C1200.63 1376.09 1187.29 1383.14 1175.22 1397.23C1163.14 1410.81 1153.33 1429.93 1145.78 1454.58C1138.74 1478.73 1135.22 1506.66 1135.22 1538.36C1135.22 1567.54 1137.23 1589.68 1141.26 1604.77C1145.78 1619.86 1152.83 1627.41 1162.39 1627.41C1170.44 1627.41 1182.76 1620.12 1199.37 1605.52C1216.47 1590.43 1236.1 1565.53 1258.23 1530.81C1280.88 1496.09 1304.52 1449.05 1329.18 1389.68L1351.06 1456.85C1324.4 1517.22 1297.98 1565.27 1271.82 1601C1245.66 1636.72 1220.25 1662.38 1195.59 1677.98C1171.44 1693.57 1148.3 1701.37 1126.16 1701.37ZM1325.4 1696.84C1319.87 1696.84 1315.09 1693.83 1311.06 1687.79C1307.04 1681.25 1304.02 1673.45 1302.01 1664.39C1300 1655.34 1298.99 1647.03 1298.99 1639.49C1298.99 1626.91 1301 1612.57 1305.03 1596.47C1309.55 1580.37 1315.09 1559.99 1321.63 1535.34L1336.72 1478.73L1314.84 1454.58L1323.14 1375.34L1333.71 1362.51L1339.74 1164.02H1398.61C1406.16 1164.02 1412.19 1167.29 1416.72 1173.83C1421.75 1180.37 1425.28 1188.17 1427.29 1197.23C1429.8 1205.78 1431.06 1214.08 1431.06 1222.13C1431.06 1227.17 1430.81 1232.95 1430.31 1239.49C1429.8 1245.53 1428.8 1254.08 1427.29 1265.15C1425.78 1275.72 1423.52 1290.56 1420.5 1309.68L1395.59 1483.26C1392.07 1507.41 1389.05 1532.07 1386.53 1557.22C1384.02 1582.38 1382.01 1606.78 1380.5 1630.43C1379.49 1654.08 1378.74 1676.22 1378.23 1696.84H1325.4ZM1958.52 1696.09C1945.44 1696.09 1930.35 1686.28 1913.24 1666.66C1896.64 1646.53 1879.78 1620.62 1862.68 1588.92C1845.57 1556.72 1829.22 1522.26 1813.62 1485.53C1811.61 1481 1809.34 1476.47 1806.83 1471.94C1804.82 1466.91 1803.81 1461.88 1803.81 1456.85C1803.81 1451.31 1805.57 1447.54 1809.09 1445.53C1812.61 1443.01 1816.39 1441.5 1820.41 1441C1854.63 1434.46 1883.05 1420.87 1905.7 1400.24C1928.84 1379.62 1940.41 1353.2 1940.41 1321C1940.41 1302.89 1936.39 1286.79 1928.34 1272.7C1920.79 1258.11 1907.2 1246.54 1887.58 1237.98C1867.96 1229.43 1840.79 1225.15 1806.07 1225.15H1803.06L1753.24 1695.33H1692.11C1683.56 1695.33 1677.52 1691.31 1674 1683.26C1670.48 1675.21 1668.72 1664.39 1668.72 1650.81C1668.72 1640.74 1669.47 1629.42 1670.98 1616.85L1719.28 1176.1C1741.42 1173.58 1763.31 1171.82 1784.94 1170.81C1807.08 1169.31 1828.97 1168.55 1850.6 1168.55C1887.33 1168.55 1920.03 1173.58 1948.71 1183.64C1977.39 1193.71 1999.78 1209.3 2015.88 1230.44C2032.49 1251.57 2040.79 1278.99 2040.79 1312.7C2040.79 1336.35 2036.01 1357.48 2026.45 1376.09C2017.39 1394.71 2004.81 1410.81 1988.71 1424.4C1973.12 1437.48 1955.76 1448.29 1936.64 1456.85C1917.52 1465.4 1898.15 1471.69 1878.53 1475.72L1884.56 1437.98C1901.67 1473.7 1918.27 1504.14 1934.37 1529.3C1950.98 1554.46 1965.82 1574.58 1978.9 1589.68C1991.98 1604.27 2002.05 1614.58 2009.09 1620.62C2021.67 1630.18 2030.72 1636.97 2036.26 1641C2042.3 1644.52 2045.32 1648.54 2045.32 1653.07C2045.32 1657.6 2042.05 1662.38 2035.5 1667.41C2029.47 1671.94 2021.67 1676.47 2012.11 1681C2002.55 1685.52 1992.74 1689.05 1982.67 1691.56C1973.12 1694.58 1965.07 1696.09 1958.52 1696.09ZM2186.24 1701.37C2147.5 1701.37 2117.57 1689.3 2096.43 1665.15C2075.3 1640.49 2064.74 1606.78 2064.74 1564.02C2064.74 1528.29 2069.77 1495.59 2079.83 1465.9C2089.89 1436.22 2103.98 1410.31 2122.09 1388.17C2140.21 1366.03 2161.34 1348.92 2185.49 1336.85C2210.14 1324.77 2236.81 1318.74 2265.49 1318.74C2299.7 1318.74 2325.87 1326.03 2343.98 1340.62C2362.09 1355.21 2371.15 1376.09 2371.15 1403.26C2371.15 1430.94 2361.84 1455.09 2343.22 1475.72C2325.11 1496.34 2298.7 1513.95 2263.98 1528.54C2229.77 1543.14 2188.76 1555.46 2140.96 1565.53L2131.15 1520.24C2158.82 1516.72 2184.23 1510.68 2207.38 1502.13C2230.52 1493.58 2249.14 1482.26 2263.22 1468.17C2277.31 1453.58 2284.36 1436.47 2284.36 1416.85C2284.36 1403.26 2281.59 1392.95 2276.05 1385.91C2271.02 1378.86 2261.72 1375.34 2248.13 1375.34C2227.5 1375.34 2209.89 1382.89 2195.3 1397.98C2181.21 1413.07 2170.4 1432.7 2162.85 1456.85C2155.8 1481 2152.28 1506.66 2152.28 1533.83C2152.28 1570.56 2157.82 1595.21 2168.89 1607.79C2180.46 1619.86 2197.31 1625.9 2219.45 1625.9C2242.6 1625.9 2262.72 1622.38 2279.83 1615.34C2297.44 1607.79 2312.53 1599.99 2325.11 1591.94C2329.14 1589.42 2332.66 1587.41 2335.68 1585.9C2338.7 1584.39 2341.21 1583.64 2343.22 1583.64C2345.74 1583.64 2347.75 1584.64 2349.26 1586.66C2350.77 1588.67 2351.53 1590.93 2351.53 1593.45C2351.53 1602.51 2347.5 1613.07 2339.45 1625.15C2331.4 1637.22 2319.83 1649.05 2304.73 1660.62C2290.14 1672.19 2272.78 1681.75 2252.66 1689.3C2232.53 1697.35 2210.4 1701.37 2186.24 1701.37ZM2508.79 1701.37C2470.55 1701.37 2440.37 1695.59 2418.23 1684.01C2396.59 1671.94 2385.78 1655.84 2385.78 1635.71C2385.78 1626.66 2387.03 1618.35 2389.55 1610.81C2392.57 1602.76 2396.84 1598.73 2402.38 1598.73C2404.39 1598.73 2406.66 1599.24 2409.17 1600.24C2411.69 1601.25 2416.47 1604.02 2423.51 1608.54C2433.57 1615.08 2444.64 1621.12 2456.72 1626.66C2469.3 1632.19 2481.87 1636.72 2494.45 1640.24C2507.53 1643.26 2519.61 1644.77 2530.68 1644.77C2546.78 1644.77 2558.35 1641 2565.4 1633.45C2572.94 1625.4 2576.72 1614.83 2576.72 1601.75C2576.72 1592.19 2573.7 1584.39 2567.66 1578.36C2562.13 1571.81 2553.07 1564.52 2540.49 1556.47L2493.7 1526.28C2474.08 1513.7 2457.47 1500.37 2443.89 1486.28C2430.81 1471.69 2424.27 1452.82 2424.27 1429.68C2424.27 1396.97 2436.84 1370.56 2462 1350.43C2487.16 1329.81 2522.63 1319.49 2568.41 1319.49C2600.62 1319.49 2624.26 1322.76 2639.36 1329.3C2654.45 1335.84 2662 1347.16 2662 1363.26C2662 1375.84 2659.99 1386.41 2655.96 1394.96C2652.44 1403.52 2647.41 1407.79 2640.87 1407.79C2638.85 1407.79 2636.09 1407.29 2632.56 1406.28C2629.55 1405.28 2626.78 1404.02 2624.26 1402.51C2620.24 1399.99 2613.95 1396.47 2605.39 1391.94C2596.84 1387.41 2587.28 1383.39 2576.72 1379.87C2566.15 1375.84 2555.08 1373.83 2543.51 1373.83C2531.94 1373.83 2522.38 1377.35 2514.83 1384.4C2507.79 1390.94 2504.26 1399.99 2504.26 1411.57C2504.26 1421.13 2507.28 1429.18 2513.32 1435.72C2519.36 1442.26 2529.42 1449.05 2543.51 1456.09L2592.57 1478.73C2613.19 1488.29 2629.8 1499.61 2642.38 1512.7C2655.46 1525.27 2662 1544.14 2662 1569.3C2662 1598.98 2654.7 1623.64 2640.11 1643.26C2626.02 1662.88 2607.16 1677.47 2583.51 1687.03C2560.36 1696.59 2535.46 1701.37 2508.79 1701.37ZM2826.77 1701.37C2787.02 1701.37 2756.58 1689.05 2735.45 1664.39C2714.31 1639.74 2703.75 1604.27 2703.75 1557.98C2703.75 1512.7 2712.55 1471.94 2730.16 1435.72C2748.28 1399.49 2772.68 1371.06 2803.37 1350.43C2834.56 1329.3 2870.04 1318.74 2909.78 1318.74C2930.91 1318.74 2949.53 1321.5 2965.63 1327.04C2981.73 1332.57 2989.78 1344.15 2989.78 1361.75C2989.78 1369.3 2988.52 1376.85 2986.01 1384.4C2983.49 1391.94 2980.22 1398.23 2976.2 1403.26C2972.17 1408.3 2968.15 1410.81 2964.12 1410.81C2962.11 1410.81 2959.34 1410.31 2955.82 1409.3C2952.3 1407.79 2949.28 1406.28 2946.76 1404.77C2941.23 1401.25 2934.44 1397.23 2926.39 1392.7C2918.84 1388.17 2910.29 1384.14 2900.73 1380.62C2891.67 1377.1 2882.11 1375.34 2872.05 1375.34C2856.45 1375.34 2842.36 1382.64 2829.78 1397.23C2817.71 1411.82 2808.15 1431.19 2801.11 1455.34C2794.06 1479.49 2790.54 1505.65 2790.54 1533.83C2790.54 1571.06 2796.07 1595.97 2807.14 1608.54C2818.72 1620.62 2835.32 1626.66 2856.95 1626.66C2875.07 1626.66 2890.41 1623.64 2902.99 1617.6C2915.57 1611.06 2927.64 1603.76 2939.22 1595.71C2943.74 1592.69 2947.27 1590.93 2949.78 1590.43C2952.3 1589.42 2954.56 1588.92 2956.57 1588.92C2959.09 1588.92 2961.1 1589.93 2962.61 1591.94C2964.12 1593.95 2964.88 1596.22 2964.88 1598.73C2964.88 1607.79 2961.1 1618.35 2953.56 1630.43C2946.01 1642 2935.69 1653.32 2922.61 1664.39C2909.53 1674.96 2894.69 1683.76 2878.09 1690.81C2861.98 1697.85 2844.88 1701.37 2826.77 1701.37ZM3092.54 1699.11C3072.92 1699.11 3057.57 1693.83 3046.5 1683.26C3035.94 1672.19 3030.65 1655.84 3030.65 1634.2C3030.65 1626.66 3030.65 1619.11 3030.65 1611.56C3031.16 1604.02 3031.91 1594.96 3032.92 1584.39C3034.43 1573.83 3036.19 1560.24 3038.2 1543.64L3066.88 1318.74H3119.71C3128.26 1318.74 3133.8 1323.77 3136.31 1333.83C3139.33 1343.39 3140.84 1355.21 3140.84 1369.3C3140.84 1379.87 3140.09 1393.7 3138.58 1410.81C3137.07 1427.92 3134.8 1446.78 3131.78 1467.41L3122.73 1529.3C3120.72 1543.39 3119.21 1555.97 3118.2 1567.03C3117.7 1578.1 3117.44 1587.16 3117.44 1594.2C3117.44 1604.27 3118.45 1612.07 3120.46 1617.6C3122.98 1622.63 3127.51 1625.15 3134.05 1625.15C3141.6 1625.15 3151.15 1619.61 3162.73 1608.54C3174.3 1597.47 3186.37 1582.88 3198.95 1564.77C3212.03 1546.66 3224.11 1527.29 3235.18 1506.66C3246.25 1485.53 3255.3 1465.15 3262.35 1445.53C3269.39 1425.9 3272.91 1409.05 3272.91 1394.96C3272.91 1383.39 3271.4 1373.83 3268.39 1366.28C3265.87 1358.23 3264.86 1351.69 3265.37 1346.66C3265.37 1342.13 3268.13 1338.11 3273.67 1334.59C3279.71 1331.06 3286.75 1328.3 3294.8 1326.28C3302.85 1323.77 3310.9 1322.01 3318.95 1321C3327 1319.49 3333.29 1318.74 3337.82 1318.74C3346.37 1318.74 3352.91 1323.77 3357.44 1333.83C3362.47 1343.89 3363.98 1358.23 3361.97 1376.85L3326.5 1696.84H3273.67C3267.63 1696.84 3262.85 1693.83 3259.33 1687.79C3255.81 1681.25 3253.29 1673.95 3251.78 1665.9C3250.78 1657.85 3250.27 1651.81 3250.27 1647.79C3250.27 1636.22 3251.78 1623.64 3254.8 1610.05C3258.32 1596.47 3263.1 1579.11 3269.14 1557.98C3275.68 1536.85 3283.48 1509.68 3292.54 1476.47V1489.3C3272.91 1540.62 3251.28 1581.63 3227.63 1612.32C3203.98 1643.01 3180.59 1665.15 3157.44 1678.73C3134.3 1692.32 3112.66 1699.11 3092.54 1699.11ZM3531.3 1701.37C3492.56 1701.37 3462.62 1689.3 3441.49 1665.15C3420.36 1640.49 3409.79 1606.78 3409.79 1564.02C3409.79 1528.29 3414.82 1495.59 3424.89 1465.9C3434.95 1436.22 3449.04 1410.31 3467.15 1388.17C3485.26 1366.03 3506.39 1348.92 3530.55 1336.85C3555.2 1324.77 3581.87 1318.74 3610.54 1318.74C3644.76 1318.74 3670.92 1326.03 3689.03 1340.62C3707.15 1355.21 3716.2 1376.09 3716.2 1403.26C3716.2 1430.94 3706.89 1455.09 3688.28 1475.72C3670.17 1496.34 3643.75 1513.95 3609.03 1528.54C3574.82 1543.14 3533.82 1555.46 3486.02 1565.53L3476.21 1520.24C3503.88 1516.72 3529.29 1510.68 3552.43 1502.13C3575.58 1493.58 3594.19 1482.26 3608.28 1468.17C3622.37 1453.58 3629.41 1436.47 3629.41 1416.85C3629.41 1403.26 3626.64 1392.95 3621.11 1385.91C3616.08 1378.86 3606.77 1375.34 3593.19 1375.34C3572.56 1375.34 3554.95 1382.89 3540.36 1397.98C3526.27 1413.07 3515.45 1432.7 3507.9 1456.85C3500.86 1481 3497.34 1506.66 3497.34 1533.83C3497.34 1570.56 3502.87 1595.21 3513.94 1607.79C3525.51 1619.86 3542.37 1625.9 3564.51 1625.9C3587.65 1625.9 3607.78 1622.38 3624.88 1615.34C3642.49 1607.79 3657.59 1599.99 3670.17 1591.94C3674.19 1589.42 3677.71 1587.41 3680.73 1585.9C3683.75 1584.39 3686.27 1583.64 3688.28 1583.64C3690.79 1583.64 3692.81 1584.64 3694.32 1586.66C3695.83 1588.67 3696.58 1590.93 3696.58 1593.45C3696.58 1602.51 3692.56 1613.07 3684.51 1625.15C3676.46 1637.22 3664.88 1649.05 3649.79 1660.62C3635.2 1672.19 3617.84 1681.75 3597.71 1689.3C3577.59 1697.35 3555.45 1701.37 3531.3 1701.37Z" fill="#EDEDED"/>
</svg>
