<svg width="265" height="39" viewBox="0 0 265 39" fill="none" xmlns="http://www.w3.org/2000/svg">
<path d="M2.60638 38.6503C2.13671 38.6503 1.77543 38.4516 1.52253 38.0542C1.26963 37.6929 1.08899 37.2232 0.9806 36.6452C0.872215 36.0671 0.818022 35.4529 0.818022 34.8026C0.818022 34.0801 0.872215 33.1588 0.9806 32.0388C1.08899 30.8827 1.21544 29.5098 1.35995 27.9202L4.23216 1.14894H12.3069C14.872 1.14894 16.8591 1.11281 18.2681 1.04056C19.6771 0.93217 20.7248 0.841849 21.4113 0.769593C22.0977 0.661206 22.6216 0.607013 22.9828 0.607013C23.3803 0.607013 23.6512 0.67927 23.7957 0.823785C23.9764 0.932171 24.0667 1.25733 24.0667 1.79925C24.0667 2.44957 23.9403 3.15407 23.6874 3.91277C23.4345 4.67147 23.0912 5.32178 22.6577 5.86371C22.2603 6.40564 21.7906 6.6766 21.2487 6.6766C21.0319 6.6766 20.7429 6.6766 20.3816 6.6766C20.0564 6.64047 19.659 6.60434 19.1894 6.56821C18.7558 6.49596 18.2861 6.4237 17.7803 6.35144L10.1392 5.2134L6.9418 38.6503H2.60638ZM5.53279 22.0131L6.2373 17.8403H8.83855C10.3921 17.8403 11.8914 17.7861 13.3365 17.6777C14.8178 17.5693 16.0642 17.461 17.0758 17.3526C18.1236 17.2442 18.7739 17.19 19.0268 17.19C19.3158 17.19 19.5326 17.2803 19.6771 17.461C19.8216 17.6055 19.8939 17.8222 19.8939 18.1113C19.8939 18.6532 19.5145 19.2132 18.7558 19.7912C18.0332 20.3693 17.0939 20.857 15.9378 21.2544C14.8178 21.6519 13.6617 21.8686 12.4695 21.9048L5.53279 22.0131ZM30.116 38.8129C27.0089 38.8129 24.5883 37.9097 22.8541 36.1033C21.1561 34.2607 20.3071 31.5691 20.3071 28.0285C20.3071 25.6802 20.6864 23.5125 21.4451 21.5254C22.24 19.5022 23.3057 17.7319 24.6425 16.2145C25.9793 14.6971 27.5147 13.5229 29.2489 12.692C31.0192 11.8249 32.8798 11.3914 34.8307 11.3914C37.9378 11.3914 40.3042 12.3126 41.93 14.1552C43.5919 15.9978 44.4228 18.7796 44.4228 22.5009C44.4228 24.7408 44.0435 26.8544 43.2848 28.8414C42.5622 30.7924 41.5506 32.5265 40.25 34.0439C38.9494 35.5252 37.432 36.6994 35.6978 37.5665C33.9637 38.3974 32.103 38.8129 30.116 38.8129ZM31.4166 34.7484C32.7895 34.7484 33.9637 34.2426 34.9391 33.231C35.9507 32.2194 36.7094 30.8285 37.2152 29.0582C37.7571 27.2879 38.0281 25.3008 38.0281 23.097C38.0281 20.7486 37.6668 18.888 36.9443 17.5151C36.2578 16.1423 35.1017 15.4558 33.4759 15.4558C32.1392 15.4558 30.9469 15.9616 29.8992 16.9732C28.8876 17.9848 28.0928 19.3758 27.5147 21.1461C26.9728 22.8802 26.7018 24.8673 26.7018 27.1073C26.7018 29.6001 27.0992 31.4969 27.8941 32.7975C28.6889 34.0981 29.8631 34.7484 31.4166 34.7484ZM56.5773 38.8129C53.4702 38.8129 51.0496 37.9097 49.3154 36.1033C47.6174 34.2607 46.7684 31.5691 46.7684 28.0285C46.7684 25.6802 47.1477 23.5125 47.9064 21.5254C48.7013 19.5022 49.767 17.7319 51.1038 16.2145C52.4405 14.6971 53.976 13.5229 55.7102 12.692C57.4805 11.8249 59.3411 11.3914 61.292 11.3914C64.3991 11.3914 66.7655 12.3126 68.3913 14.1552C70.0532 15.9978 70.8841 18.7796 70.8841 22.5009C70.8841 24.7408 70.5048 26.8544 69.7461 28.8414C69.0235 30.7924 68.0119 32.5265 66.7113 34.0439C65.4107 35.5252 63.8933 36.6994 62.1591 37.5665C60.4249 38.3974 58.5643 38.8129 56.5773 38.8129ZM57.8779 34.7484C59.2508 34.7484 60.4249 34.2426 61.4004 33.231C62.412 32.2194 63.1707 30.8285 63.6765 29.0582C64.2184 27.2879 64.4894 25.3008 64.4894 23.097C64.4894 20.7486 64.1281 18.888 63.4055 17.5151C62.7191 16.1423 61.563 15.4558 59.9372 15.4558C58.6005 15.4558 57.4082 15.9616 56.3605 16.9732C55.3489 17.9848 54.5541 19.3758 53.976 21.1461C53.4341 22.8802 53.1631 24.8673 53.1631 27.1073C53.1631 29.6001 53.5605 31.4969 54.3554 32.7975C55.1502 34.0981 56.3244 34.7484 57.8779 34.7484ZM78.8657 38.8671C76.9148 38.8671 75.5058 38.0723 74.6387 36.4826C73.8077 34.8929 73.3922 32.5627 73.3922 29.4917C73.3922 26.8544 73.7535 24.4338 74.4761 22.2299C75.2348 20.0261 76.2825 18.1293 77.6193 16.5397C78.956 14.9139 80.5096 13.6675 82.2799 12.8004C84.0502 11.8972 85.965 11.4456 88.0243 11.4456C89.2888 11.4456 90.5352 11.6623 91.7636 12.0959C93.0281 12.4933 94.1119 12.9088 95.0151 13.3423L93.281 18.6532C92.3055 18.0029 91.2758 17.4429 90.192 16.9732C89.1443 16.5035 88.1688 16.1423 87.2656 15.8894C86.3985 15.6365 85.7301 15.51 85.2605 15.51C84.2127 15.51 83.2553 16.0158 82.3882 17.0274C81.5212 18.0029 80.8167 19.3758 80.2747 21.1461C79.7689 22.8802 79.516 24.8854 79.516 27.1615C79.516 29.2569 79.6605 30.8466 79.9496 31.9304C80.2747 33.0143 80.7805 33.5562 81.467 33.5562C82.045 33.5562 82.9302 33.0323 84.1224 31.9846C85.3508 30.9008 86.7598 29.1124 88.3494 26.6195C89.9752 24.1267 91.6733 20.7486 93.4436 16.4855L95.0151 21.3086C93.1003 25.6441 91.2036 29.0943 89.3249 31.6595C87.4462 34.2246 85.6217 36.0671 83.8514 37.1871C82.1173 38.3071 80.4554 38.8671 78.8657 38.8671ZM93.1726 38.5419C92.7752 38.5419 92.432 38.3252 92.1429 37.8916C91.8539 37.4219 91.6371 36.862 91.4926 36.2116C91.3481 35.5613 91.2758 34.9652 91.2758 34.4233C91.2758 33.5201 91.4204 32.4904 91.7094 31.3343C92.0345 30.1782 92.432 28.715 92.9016 26.9447L93.9855 22.8802L92.4139 21.1461L93.01 15.4558L93.7687 14.5345L94.2023 0.281858H98.4293C98.9712 0.281858 99.4048 0.516693 99.7299 0.986364C100.091 1.45603 100.344 2.01603 100.489 2.66634C100.669 3.28052 100.76 3.87664 100.76 4.4547C100.76 4.81598 100.742 5.23146 100.705 5.70113C100.669 6.13467 100.597 6.74886 100.489 7.54368C100.38 8.30238 100.218 9.36817 100.001 10.7411L98.2125 23.2054C97.9596 24.9396 97.7428 26.7098 97.5622 28.5163C97.3816 30.3227 97.237 32.0749 97.1287 33.773C97.0564 35.471 97.0022 37.0607 96.9661 38.5419H93.1726ZM138.635 38.4877C137.695 38.4877 136.612 37.7832 135.383 36.3742C134.191 34.9291 132.981 33.0685 131.752 30.7924C130.524 28.4801 129.35 26.0053 128.23 23.368C128.085 23.0428 127.923 22.7176 127.742 22.3925C127.598 22.0312 127.525 21.6699 127.525 21.3086C127.525 20.9112 127.652 20.6403 127.905 20.4957C128.158 20.3151 128.428 20.2067 128.718 20.1706C131.174 19.7009 133.216 18.7255 134.841 17.2442C136.503 15.7629 137.334 13.8662 137.334 11.5539C137.334 10.2533 137.045 9.09721 136.467 8.08561C135.925 7.03789 134.95 6.20693 133.541 5.59274C132.132 4.97856 130.181 4.67147 127.688 4.67147H127.471L123.894 38.4335H119.505C118.891 38.4335 118.457 38.1445 118.204 37.5665C117.951 36.9884 117.825 36.2116 117.825 35.2362C117.825 34.5136 117.879 33.7007 117.987 32.7975L121.456 1.14894C123.045 0.968299 124.617 0.841849 126.17 0.769593C127.76 0.661206 129.332 0.607013 130.885 0.607013C133.523 0.607013 135.871 0.968299 137.93 1.69087C139.99 2.41344 141.597 3.53342 142.753 5.05082C143.946 6.56821 144.542 8.53722 144.542 10.9578C144.542 12.6559 144.199 14.1733 143.512 15.51C142.862 16.8468 141.959 18.0029 140.803 18.9784C139.683 19.9177 138.436 20.6945 137.063 21.3086C135.69 21.9228 134.299 22.3744 132.89 22.6635L133.324 19.9538C134.552 22.5189 135.745 24.7047 136.901 26.5111C138.093 28.3176 139.159 29.7627 140.098 30.8466C141.037 31.8943 141.76 32.6349 142.266 33.0685C143.169 33.7549 143.819 34.2426 144.217 34.5317C144.65 34.7846 144.867 35.0736 144.867 35.3987C144.867 35.7239 144.632 36.0671 144.162 36.4284C143.729 36.7536 143.169 37.0787 142.482 37.4039C141.796 37.729 141.092 37.9819 140.369 38.1626C139.683 38.3793 139.104 38.4877 138.635 38.4877ZM154.987 38.8671C152.205 38.8671 150.055 38 148.538 36.2658C147.02 34.4955 146.262 32.0749 146.262 29.004C146.262 26.4389 146.623 24.0905 147.345 21.959C148.068 19.8274 149.08 17.9668 150.38 16.3771C151.681 14.7874 153.198 13.5591 154.932 12.692C156.703 11.8249 158.618 11.3914 160.677 11.3914C163.134 11.3914 165.012 11.9152 166.313 12.963C167.614 14.0107 168.264 15.51 168.264 17.461C168.264 19.448 167.595 21.1822 166.259 22.6635C164.958 24.1447 163.061 25.4092 160.568 26.4569C158.112 27.5047 155.167 28.3898 151.735 29.1124L151.031 25.8608C153.018 25.6079 154.842 25.1744 156.504 24.5602C158.166 23.946 159.503 23.1331 160.514 22.1215C161.526 21.0738 162.032 19.8454 162.032 18.4364C162.032 17.461 161.833 16.7203 161.436 16.2145C161.074 15.7087 160.406 15.4558 159.43 15.4558C157.949 15.4558 156.685 15.9978 155.637 17.0816C154.625 18.1655 153.849 19.5745 153.307 21.3086C152.801 23.0428 152.548 24.8854 152.548 26.8363C152.548 29.4737 152.945 31.244 153.74 32.1472C154.571 33.0143 155.781 33.4478 157.371 33.4478C159.033 33.4478 160.478 33.1949 161.707 32.6891C162.971 32.1472 164.055 31.5872 164.958 31.0091C165.247 30.8285 165.5 30.684 165.717 30.5756C165.934 30.4672 166.114 30.413 166.259 30.413C166.439 30.413 166.584 30.4853 166.692 30.6298C166.801 30.7743 166.855 30.9369 166.855 31.1175C166.855 31.7678 166.566 32.5265 165.988 33.3936C165.41 34.2607 164.579 35.1097 163.495 35.9407C162.447 36.7716 161.201 37.4581 159.756 38C158.31 38.5781 156.721 38.8671 154.987 38.8671ZM178.148 38.8671C175.402 38.8671 173.234 38.4516 171.645 37.6207C170.091 36.7536 169.314 35.5975 169.314 34.1523C169.314 33.502 169.405 32.9059 169.585 32.364C169.802 31.7859 170.109 31.4969 170.506 31.4969C170.651 31.4969 170.814 31.533 170.994 31.6053C171.175 31.6775 171.518 31.8762 172.024 32.2014C172.746 32.671 173.541 33.1046 174.408 33.502C175.312 33.8994 176.215 34.2246 177.118 34.4775C178.057 34.6942 178.924 34.8026 179.719 34.8026C180.875 34.8026 181.706 34.5317 182.212 33.9897C182.754 33.4117 183.025 32.653 183.025 31.7136C183.025 31.0272 182.808 30.4672 182.375 30.0337C181.977 29.564 181.327 29.0401 180.424 28.4621L177.064 26.2944C175.655 25.3912 174.463 24.4338 173.487 23.4222C172.548 22.3744 172.078 21.0196 172.078 19.3577C172.078 17.0093 172.981 15.1126 174.788 13.6675C176.594 12.1862 179.141 11.4456 182.429 11.4456C184.741 11.4456 186.439 11.6804 187.523 12.1501C188.607 12.6197 189.149 13.4326 189.149 14.5887C189.149 15.492 189.004 16.2507 188.715 16.8648C188.462 17.479 188.101 17.7861 187.631 17.7861C187.487 17.7861 187.288 17.75 187.035 17.6777C186.818 17.6055 186.62 17.5151 186.439 17.4068C186.15 17.2261 185.698 16.9732 185.084 16.6481C184.47 16.3229 183.784 16.0339 183.025 15.781C182.266 15.492 181.471 15.3474 180.641 15.3474C179.81 15.3474 179.123 15.6003 178.581 16.1061C178.075 16.5758 177.822 17.2261 177.822 18.0571C177.822 18.7435 178.039 19.3216 178.473 19.7912C178.906 20.2609 179.629 20.7486 180.641 21.2544L184.163 22.8802C185.644 23.5667 186.837 24.3796 187.74 25.3189C188.679 26.2221 189.149 27.5769 189.149 29.3834C189.149 31.5149 188.625 33.2852 187.577 34.6942C186.566 36.1033 185.211 37.151 183.513 37.8374C181.851 38.5239 180.062 38.8671 178.148 38.8671ZM200.98 38.8671C198.126 38.8671 195.94 37.9819 194.423 36.2116C192.905 34.4413 192.147 31.8943 192.147 28.5705C192.147 25.3189 192.779 22.3925 194.043 19.7912C195.344 17.19 197.096 15.1487 199.3 13.6675C201.54 12.1501 204.087 11.3914 206.941 11.3914C208.459 11.3914 209.795 11.5901 210.952 11.9875C212.108 12.3849 212.686 13.2159 212.686 14.4804C212.686 15.0223 212.595 15.5642 212.415 16.1061C212.234 16.6481 211.999 17.0997 211.71 17.461C211.421 17.8222 211.132 18.0029 210.843 18.0029C210.699 18.0029 210.5 17.9668 210.247 17.8945C209.994 17.7861 209.777 17.6777 209.597 17.5693C209.199 17.3164 208.712 17.0274 208.134 16.7023C207.592 16.3771 206.977 16.0881 206.291 15.8352C205.641 15.5823 204.954 15.4558 204.232 15.4558C203.112 15.4558 202.1 15.9797 201.197 17.0274C200.33 18.0751 199.643 19.4661 199.138 21.2003C198.632 22.9344 198.379 24.8131 198.379 26.8363C198.379 29.5098 198.776 31.2982 199.571 32.2014C200.402 33.0685 201.594 33.502 203.148 33.502C204.448 33.502 205.55 33.2852 206.454 32.8517C207.357 32.382 208.224 31.8582 209.055 31.2801C209.38 31.0633 209.633 30.9369 209.814 30.9008C209.994 30.8285 210.157 30.7924 210.301 30.7924C210.482 30.7924 210.626 30.8646 210.735 31.0091C210.843 31.1537 210.897 31.3162 210.897 31.4969C210.897 32.1472 210.626 32.9059 210.085 33.773C209.543 34.6039 208.802 35.4168 207.863 36.2116C206.923 36.9703 205.857 37.6026 204.665 38.1084C203.509 38.6142 202.281 38.8671 200.98 38.8671ZM220.064 38.7045C218.655 38.7045 217.554 38.3252 216.759 37.5665C216 36.7716 215.621 35.5975 215.621 34.0439C215.621 33.502 215.621 32.9601 215.621 32.4181C215.657 31.8762 215.711 31.2259 215.783 30.4672C215.892 29.7085 216.018 28.733 216.163 27.5408L218.222 11.3914H222.015C222.63 11.3914 223.027 11.7527 223.208 12.4752C223.424 13.1617 223.533 14.0107 223.533 15.0223C223.533 15.781 223.479 16.7745 223.37 18.0029C223.262 19.2313 223.099 20.5861 222.882 22.0673L222.232 26.5111C222.088 27.5227 221.979 28.426 221.907 29.2208C221.871 30.0156 221.853 30.6659 221.853 31.1717C221.853 31.8943 221.925 32.4543 222.07 32.8517C222.25 33.213 222.575 33.3936 223.045 33.3936C223.587 33.3936 224.273 32.9962 225.104 32.2014C225.935 31.4066 226.802 30.3588 227.706 29.0582C228.645 27.7576 229.512 26.3666 230.307 24.8854C231.102 23.368 231.752 21.9048 232.258 20.4957C232.764 19.0867 233.017 17.8764 233.017 16.8648C233.017 16.0339 232.908 15.3474 232.691 14.8055C232.511 14.2275 232.438 13.7578 232.475 13.3965C232.475 13.0713 232.673 12.7823 233.071 12.5294C233.504 12.2765 234.01 12.0778 234.588 11.9333C235.166 11.7527 235.744 11.6262 236.322 11.5539C236.9 11.4456 237.352 11.3914 237.677 11.3914C238.291 11.3914 238.761 11.7527 239.086 12.4752C239.447 13.1978 239.556 14.2275 239.411 15.5642L236.864 38.5419H233.071C232.637 38.5419 232.294 38.3252 232.041 37.8916C231.788 37.4219 231.607 36.8981 231.499 36.32C231.427 35.742 231.391 35.3084 231.391 35.0194C231.391 34.1884 231.499 33.2852 231.716 32.3098C231.969 31.3343 232.312 30.0879 232.746 28.5705C233.215 27.0531 233.775 25.1021 234.426 22.7176V23.6389C233.017 27.324 231.463 30.2685 229.765 32.4723C228.067 34.6762 226.387 36.2658 224.725 37.2413C223.063 38.2168 221.51 38.7045 220.064 38.7045ZM251.57 38.8671C248.788 38.8671 246.639 38 245.121 36.2658C243.604 34.4955 242.845 32.0749 242.845 29.004C242.845 26.4389 243.207 24.0905 243.929 21.959C244.652 19.8274 245.663 17.9668 246.964 16.3771C248.265 14.7874 249.782 13.5591 251.516 12.692C253.286 11.8249 255.201 11.3914 257.261 11.3914C259.717 11.3914 261.596 11.9152 262.897 12.963C264.197 14.0107 264.848 15.51 264.848 17.461C264.848 19.448 264.179 21.1822 262.842 22.6635C261.542 24.1447 259.645 25.4092 257.152 26.4569C254.695 27.5047 251.751 28.3898 248.319 29.1124L247.614 25.8608C249.601 25.6079 251.426 25.1744 253.088 24.5602C254.75 23.946 256.086 23.1331 257.098 22.1215C258.11 21.0738 258.615 19.8454 258.615 18.4364C258.615 17.461 258.417 16.7203 258.019 16.2145C257.658 15.7087 256.99 15.4558 256.014 15.4558C254.533 15.4558 253.268 15.9978 252.221 17.0816C251.209 18.1655 250.432 19.5745 249.89 21.3086C249.385 23.0428 249.132 24.8854 249.132 26.8363C249.132 29.4737 249.529 31.244 250.324 32.1472C251.155 33.0143 252.365 33.4478 253.955 33.4478C255.617 33.4478 257.062 33.1949 258.29 32.6891C259.555 32.1472 260.639 31.5872 261.542 31.0091C261.831 30.8285 262.084 30.684 262.3 30.5756C262.517 30.4672 262.698 30.413 262.842 30.413C263.023 30.413 263.168 30.4853 263.276 30.6298C263.384 30.7743 263.439 30.9369 263.439 31.1175C263.439 31.7678 263.15 32.5265 262.571 33.3936C261.993 34.2607 261.162 35.1097 260.079 35.9407C259.031 36.7716 257.784 37.4581 256.339 38C254.894 38.5781 253.304 38.8671 251.57 38.8671Z" fill="#4D774E"/>
</svg>
