<svg width="1920" height="1080" viewBox="0 0 1920 1080" fill="none" xmlns="http://www.w3.org/2000/svg">
<g clip-path="url(#clip0_130_2560)">
<rect width="1920" height="1080" fill="white"/>
<rect width="1920" height="1080" fill="#4D774E"/>
<path d="M528.247 792.372H569.806V779.145H528.247V792.372Z" fill="#EBEBEB"/>
<path d="M275.665 579.187H317.224V565.96H275.665V579.187Z" fill="#EBEBEB"/>
<path d="M551.426 809.062L572.347 808.707L582.69 808.565H592.985L592.441 809.109V795.883L593.032 796.474L572.252 796.391L561.863 796.285L551.473 796.154L551.757 795.883L551.426 809.062ZM551.426 809.062L551.154 795.835V795.528H551.437L561.827 795.398L572.217 795.292L592.997 795.221H593.588V795.824V809.05V809.582H593.056H582.571L572.134 809.44L551.426 809.062Z" fill="#EBEBEB"/>
<path d="M353.819 710.424L374.741 710.081L385.083 709.939L395.378 709.88L394.835 710.424V697.197L395.426 697.788L374.646 697.706L364.256 697.611L353.866 697.481L354.15 697.197L353.819 710.424ZM353.819 710.424L353.535 697.197V696.925H353.819L364.209 696.795L374.599 696.701L395.378 696.618H395.969V697.209L395.91 710.424V710.968H395.378L384.894 710.909L374.457 710.767L353.819 710.424Z" fill="#EBEBEB"/>
<path d="M376.998 727.138L397.919 726.795L408.262 726.653L418.557 726.594L418.013 727.138V713.911L418.604 714.502L397.825 714.419L387.435 714.325L377.045 714.195L377.329 713.911L376.998 727.138ZM376.998 727.138L376.714 713.97V713.698H376.998L387.388 713.568L397.778 713.474L418.557 713.391H419.148V713.982V727.209V727.752H418.616L408.132 727.693L397.695 727.551L376.998 727.138Z" fill="#EBEBEB"/>
<path d="M400.082 710.459H441.642V697.233H400.082V710.459Z" fill="#EBEBEB"/>
<path d="M104.015 809.05H145.574V795.823H104.015V809.05Z" fill="#EBEBEB"/>
<path d="M127.194 384.346H168.753V371.119H127.194V384.346Z" fill="#EBEBEB"/>
<path d="M104.015 401.012L124.937 400.669L135.279 400.527H145.574L145.031 401.059V387.833L145.622 388.424L124.842 388.341L114.464 388.199L104.074 388.069L104.299 387.738L104.015 401.012ZM104.015 401.012L103.731 387.738V387.466H104.015L114.464 387.383L124.854 387.277L145.633 387.194H146.224V387.738V400.965V401.508H145.692H135.208L124.771 401.367L104.015 401.012Z" fill="#EBEBEB"/>
<path d="M528.247 384.334L549.168 383.991L559.51 383.85H569.806L569.262 384.381V371.155L569.853 371.746L549.073 371.663L538.684 371.569L528.294 371.439L528.578 371.155L528.247 384.334ZM528.247 384.334L527.963 371.108V370.836H528.247L538.636 370.706L549.026 370.599L569.806 370.517H570.397V371.108L570.338 384.334V384.878H569.806H559.321L548.884 384.736L528.247 384.334Z" fill="#EBEBEB"/>
<path d="M445.471 839.77H583.481L587.926 752.196H441.027L445.471 839.77Z" fill="#EBEBEB"/>
<path d="M573.423 792.337H451.771L450.152 761.83H575.444L573.423 792.337ZM452.859 791.155H572.241L574.049 763.012H451.334L452.859 791.155Z" fill="#DBDBDB"/>
<path d="M571.768 827.312H455.258L453.899 799.771H573.494L571.768 827.312ZM456.393 826.13H570.716L572.288 800.953H455.14L456.393 826.13Z" fill="#DBDBDB"/>
<path d="M526.615 780.434H500.753L499.796 772.999H527.573L526.615 780.434ZM501.793 779.252H525.575L526.237 774.181H501.143L501.793 779.252Z" fill="#DBDBDB"/>
<path d="M526.615 817.265H500.753L499.796 809.818H527.573L526.615 817.265ZM501.793 816.083H525.575L526.237 811H501.143L501.793 816.083Z" fill="#DBDBDB"/>
<path d="M464.608 839.771L463.272 849.309L460.577 868.481H455.306V839.771H464.608Z" fill="#EBEBEB"/>
<path d="M464.608 839.771L463.272 849.309H455.306V839.771H464.608Z" fill="#DBDBDB"/>
<path d="M564.345 839.771L565.681 849.309L568.376 868.481H573.647V839.771H564.345Z" fill="#EBEBEB"/>
<path d="M564.345 839.771L565.681 849.309H573.647V839.771H564.345Z" fill="#DBDBDB"/>
<path d="M595.81 533.987H397.163V363.022H595.81V533.987ZM398.345 532.805H594.628V364.204H398.345V532.805Z" fill="#EBEBEB"/>
<path d="M407.068 369.571C407.056 370.035 406.908 370.487 406.641 370.867C406.375 371.248 406.001 371.542 405.569 371.712C405.136 371.882 404.662 371.92 404.208 371.823C403.753 371.725 403.337 371.495 403.013 371.162C402.688 370.829 402.469 370.408 402.382 369.951C402.296 369.494 402.346 369.022 402.526 368.594C402.707 368.165 403.01 367.799 403.397 367.542C403.784 367.285 404.239 367.148 404.704 367.147C405.02 367.147 405.332 367.21 405.623 367.333C405.913 367.455 406.177 367.635 406.397 367.861C406.617 368.086 406.79 368.354 406.905 368.648C407.021 368.941 407.076 369.255 407.068 369.571Z" fill="#A6A6A6"/>
<path d="M416.938 369.571C416.926 370.035 416.778 370.487 416.511 370.867C416.244 371.248 415.871 371.542 415.438 371.712C415.005 371.882 414.532 371.92 414.077 371.823C413.623 371.725 413.207 371.495 412.882 371.162C412.558 370.829 412.338 370.408 412.252 369.951C412.165 369.494 412.215 369.022 412.396 368.594C412.576 368.165 412.879 367.799 413.267 367.542C413.654 367.285 414.109 367.148 414.574 367.147C414.889 367.147 415.202 367.21 415.492 367.333C415.783 367.455 416.046 367.635 416.267 367.861C416.487 368.086 416.66 368.354 416.775 368.648C416.89 368.941 416.946 369.255 416.938 369.571Z" fill="#EBEBEB"/>
<path d="M426.808 369.571C426.796 370.033 426.649 370.482 426.385 370.861C426.12 371.241 425.751 371.535 425.321 371.706C424.892 371.878 424.421 371.92 423.968 371.827C423.515 371.733 423.1 371.51 422.773 371.183C422.446 370.856 422.222 370.44 422.129 369.987C422.036 369.534 422.077 369.063 422.249 368.634C422.421 368.205 422.714 367.835 423.094 367.571C423.473 367.306 423.922 367.159 424.384 367.148C424.705 367.14 425.024 367.197 425.321 367.316C425.619 367.435 425.889 367.613 426.116 367.839C426.343 368.066 426.521 368.336 426.64 368.634C426.759 368.932 426.816 369.25 426.808 369.571Z" fill="#4D774E"/>
<path d="M595.219 374.866H397.754V376.048H595.219V374.866Z" fill="#EBEBEB"/>
<path d="M527.963 737.302C528.933 743.946 528.6 750.715 526.982 757.231C526.216 760.247 525.196 763.193 523.932 766.037C522.348 769.689 520.694 773.247 521.084 777.23C521.474 777.49 520.15 777.455 520.103 777.065C509.465 770.989 495.777 769.878 487.574 759.949C483.685 755.221 481.723 749.311 480.789 743.401C479.785 736.912 479.501 729.726 481.179 723.308C482.586 717.906 485.754 712.67 490.825 710.034C496.073 707.303 502.94 707.54 508.472 709.254C520.363 712.918 526.284 725.79 527.963 737.302Z" fill="#4D774E"/>
<path d="M533.447 816.224C531.982 811.378 530.528 806.52 529.039 801.686C526.119 792.23 523.07 782.774 519.701 773.436C517.691 767.841 515.568 762.306 513.33 756.829C513.576 753.378 513.998 749.942 514.595 746.534C515.493 742.397 516.781 738.402 517.987 734.359C518.058 734.111 517.656 733.981 517.561 734.217C515.197 739.784 512.041 746.912 511.959 753.519C509.358 747.314 506.581 741.203 503.578 735.175C503.24 730.081 503.399 724.966 504.051 719.903C504.051 719.667 503.732 719.596 503.697 719.832C502.781 724.266 502.431 728.797 502.656 733.319C500.363 728.788 497.936 724.32 495.375 719.915C495.139 719.525 494.595 719.915 494.796 720.317C498.807 728.031 502.546 735.888 506.013 743.886C501.1 739.634 495.425 736.353 489.288 734.217C489.028 734.111 488.827 734.501 489.099 734.619C495.792 737.496 501.917 741.547 507.183 746.581C509.689 752.436 512.077 758.346 514.346 764.311C507.668 757.775 498.543 753.472 489.713 751.167C489.418 751.084 489.335 751.545 489.619 751.64C499.843 754.713 507.786 760.505 515.552 767.467C516.45 769.831 517.337 772.278 518.211 774.677C521.497 783.818 524.649 793.01 527.667 802.253C529.094 806.69 530.504 811.126 531.899 815.563C533.388 820.35 534.559 825.397 536.497 830.007C536.674 830.456 537.466 830.349 537.372 829.829C536.297 825.23 534.987 820.689 533.447 816.224Z" fill="#263238"/>
<path d="M515.753 727.964C513.864 730.877 512.559 734.128 511.911 737.539C511.911 737.621 512.041 737.68 512.065 737.539C513.259 734.326 514.652 731.192 516.238 728.153C516.344 727.882 515.942 727.692 515.753 727.964Z" fill="#263238"/>
<path d="M496.734 750.175C493.766 748.538 490.527 747.448 487.172 746.959C487.078 746.959 487.03 747.078 487.113 747.113C488.661 747.751 490.269 748.201 491.841 748.792C493.413 749.383 494.926 750.127 496.51 750.671C496.542 750.686 496.578 750.694 496.613 750.695C496.649 750.696 496.685 750.69 496.718 750.678C496.752 750.665 496.782 750.646 496.809 750.621C496.835 750.597 496.856 750.568 496.87 750.535C496.885 750.502 496.893 750.467 496.894 750.431C496.896 750.396 496.89 750.36 496.877 750.327C496.864 750.293 496.845 750.262 496.821 750.236C496.796 750.21 496.767 750.189 496.734 750.175Z" fill="#263238"/>
<path d="M491.38 723.426C490.418 722.689 489.385 722.052 488.295 721.523C488.26 721.508 488.22 721.507 488.184 721.518C488.147 721.53 488.116 721.554 488.095 721.586C488.074 721.618 488.065 721.656 488.069 721.694C488.073 721.732 488.09 721.768 488.118 721.794C489.066 722.543 490.083 723.2 491.156 723.757C491.357 723.91 491.522 723.579 491.38 723.426Z" fill="#263238"/>
<path d="M563.908 773.507C556.237 775.788 548.542 777.892 540.835 780.15C540.173 780.351 527.195 755.47 531.876 742.657C536.213 730.837 546.142 721.925 557.986 717.894C563.459 716.038 570.208 714.466 576 715.743C581.141 716.925 584.782 721.097 586.46 725.943C588.742 732.527 587.973 740.376 586.732 747.101C585.75 753.414 583.148 759.364 579.179 764.37C575.101 769.216 569.9 771.734 563.908 773.507Z" fill="#4D774E"/>
<path d="M575.042 749.867C570.187 752.233 565.152 754.209 559.983 755.777C556.538 756.702 553.178 757.916 549.936 759.406C553.175 752.184 556.745 745.103 560.515 738.13C565.48 736.688 570.692 734.454 574.439 730.943C574.461 730.924 574.479 730.902 574.492 730.876C574.505 730.851 574.513 730.823 574.515 730.794C574.517 730.766 574.513 730.737 574.505 730.71C574.496 730.683 574.482 730.657 574.463 730.636C574.444 730.614 574.422 730.596 574.396 730.583C574.371 730.57 574.343 730.562 574.314 730.56C574.286 730.558 574.257 730.561 574.23 730.57C574.203 730.579 574.177 730.593 574.156 730.612C570.066 733.508 565.551 735.245 561.024 737.196C562.052 735.316 563.08 733.425 564.132 731.546C564.416 731.026 563.695 730.506 563.352 731.014C559.314 736.873 555.669 742.993 552.442 749.335C551.611 743.781 551.345 738.158 551.65 732.551C551.643 732.527 551.628 732.506 551.607 732.492C551.587 732.477 551.563 732.469 551.538 732.469C551.513 732.469 551.489 732.477 551.469 732.492C551.449 732.506 551.433 732.527 551.426 732.551C550.466 738.669 550.53 744.904 551.615 751.002C548.92 756.38 546.461 761.888 544.263 767.455C543.388 764.11 542.253 760.812 541.485 757.432C540.324 752.598 539.953 747.609 540.386 742.657C540.378 742.633 540.363 742.612 540.343 742.598C540.323 742.583 540.298 742.575 540.274 742.575C540.249 742.575 540.224 742.583 540.204 742.598C540.184 742.612 540.169 742.633 540.161 742.657C538.793 751.844 539.907 761.231 543.388 769.843C542.1 773.199 540.882 776.568 539.759 779.937C533.974 797.157 530.547 815.082 529.571 833.221C529.571 833.306 529.604 833.387 529.664 833.447C529.724 833.507 529.805 833.541 529.89 833.541C529.974 833.541 530.055 833.507 530.115 833.447C530.175 833.387 530.209 833.306 530.209 833.221C532.225 815.325 536.062 797.681 541.662 780.563C543.885 773.873 546.45 767.372 549.263 760.989C553.79 759.654 558.317 757.833 562.773 756.261C567.229 754.689 571.567 753.011 575.219 750.15C575.361 750.02 575.208 749.784 575.042 749.867Z" fill="#263238"/>
<path d="M582.205 742.645C577.477 744.312 573.056 746.652 568.364 748.342C568.151 748.425 568.269 748.768 568.494 748.732C573.458 747.704 578.387 746.167 582.382 742.917C582.536 742.787 582.371 742.586 582.205 742.645Z" fill="#263238"/>
<path d="M543.861 732.515C543.92 732.267 543.554 732.125 543.471 732.373C542.182 736.699 541.296 741.297 542.549 745.718C542.549 745.895 542.868 745.907 542.88 745.718C543.104 741.238 542.856 736.9 543.861 732.515Z" fill="#263238"/>
<path d="M563.257 722.515C561.758 724.661 561.04 727.256 561.224 729.868C561.224 730.033 561.496 730.139 561.544 729.938C562.111 727.468 563.068 725.21 563.825 722.846C563.869 722.771 563.881 722.682 563.859 722.597C563.837 722.513 563.782 722.441 563.707 722.397C563.631 722.353 563.542 722.341 563.458 722.363C563.373 722.386 563.301 722.44 563.257 722.515Z" fill="#263238"/>
<path d="M472.61 784.476C474.868 791.627 480.21 801.496 488.685 801.579C494.17 801.579 499.701 800.976 505.233 800.905C511.143 800.811 517.053 800.823 522.963 801.177C523.448 801.177 522.254 783.53 508.094 774.913C504.122 772.549 499.264 771.746 494.761 770.764C489.604 769.546 484.313 768.994 479.016 769.122C475.766 769.252 473.106 769.949 471.924 773.282C470.742 776.615 471.499 781.083 472.61 784.476Z" fill="#4D774E"/>
<path d="M478.674 775.54C482.113 776.427 485.588 777.443 489.04 778.543C488.141 777.563 487.19 776.631 486.191 775.753C484.702 774.571 483.071 773.531 481.463 772.455C481.333 772.361 481.463 772.112 481.581 772.172C484.933 773.567 487.828 775.872 489.938 778.826C494.241 780.209 498.508 781.746 502.621 783.436C505.453 784.599 508.168 786.028 510.73 787.703C509.908 785.916 508.927 784.207 507.798 782.597C505.919 780.162 503.366 778.803 500.907 777.077C500.869 777.042 500.844 776.995 500.836 776.944C500.829 776.893 500.839 776.841 500.865 776.796C500.892 776.752 500.933 776.718 500.981 776.7C501.03 776.682 501.083 776.682 501.132 776.699C503.705 777.816 506.017 779.459 507.92 781.52C509.823 783.582 511.275 786.018 512.183 788.672C515.135 790.79 517.832 793.241 520.221 795.977C529.594 806.615 536.97 820.799 536.994 835.243C536.994 835.586 536.45 835.68 536.379 835.326C533.972 821.154 527.799 807.89 518.507 796.923C517.833 796.143 517.148 795.398 516.439 794.677C513.872 794.328 511.286 794.138 508.696 794.109C505.682 794.109 502.692 794.547 499.69 794.795C494.737 795.197 489.276 795.256 484.808 792.762C484.619 792.656 484.749 792.313 484.974 792.396C494.914 796.013 505.34 791.415 515.316 793.578C511.054 789.527 506.065 786.319 500.612 784.122L499.701 783.755C493.319 784.524 486.581 786.178 480.364 784.11C480.33 784.096 480.302 784.07 480.285 784.038C480.268 784.005 480.264 783.967 480.272 783.932C480.281 783.896 480.302 783.864 480.332 783.843C480.362 783.821 480.398 783.811 480.435 783.814C486.451 785.315 492.255 783.424 498.165 783.129C491.711 780.611 485.163 778.613 478.662 776.119C478.095 775.883 478.083 775.434 478.674 775.54Z" fill="#263238"/>
<path d="M475.849 781.828C478.931 782.226 482.032 782.458 485.139 782.526C485.21 782.526 485.234 782.644 485.139 782.656C482.014 783.23 478.795 783.027 475.766 782.065C475.75 782.059 475.736 782.051 475.724 782.04C475.712 782.029 475.702 782.016 475.695 782.001C475.687 781.986 475.683 781.97 475.682 781.954C475.681 781.937 475.684 781.921 475.689 781.905C475.695 781.89 475.703 781.875 475.714 781.863C475.725 781.851 475.738 781.841 475.753 781.834C475.768 781.827 475.784 781.822 475.8 781.821C475.817 781.821 475.833 781.823 475.849 781.828Z" fill="#263238"/>
<path d="M496.841 775.694C498.559 776.467 500.118 777.553 501.439 778.897C501.593 779.039 501.38 779.322 501.203 779.192C500.422 778.625 499.619 778.093 498.839 777.573C498.062 777.146 497.312 776.673 496.593 776.155C496.356 775.977 496.581 775.611 496.841 775.694Z" fill="#263238"/>
<path d="M546.863 798.696C546.757 798.932 547.1 799.156 547.23 798.908C547.256 798.946 547.289 798.977 547.328 799.002C547.366 799.026 547.409 799.043 547.454 799.05C553.17 800.411 558.965 801.413 564.806 802.052C569.534 802.478 574.888 802.738 578.99 800.019C584.545 796.331 588.198 786.485 585.195 780.221C581.649 772.786 570.929 776.829 565.562 779.464C557.272 783.491 550.656 790.296 546.863 798.696Z" fill="#4D774E"/>
<path d="M542.703 802.135C545.831 799.116 549.302 796.474 553.045 794.263C555.739 790.012 559.31 786.385 563.518 783.625C563.73 783.483 563.896 783.802 563.719 783.944C560.371 786.606 557.397 789.707 554.877 793.164C559.062 790.88 563.407 788.904 567.879 787.254C569.478 784.301 571.901 781.878 574.853 780.28C574.853 780.28 574.983 780.28 574.924 780.374C572.486 782.22 570.363 784.447 568.636 786.97C571.26 785.989 573.931 785.079 576.591 784.192C576.827 784.121 576.91 784.476 576.685 784.57C571.957 786.414 567.111 788.365 562.418 790.622C568.146 791.513 573.978 791.493 579.699 790.563C579.853 790.563 579.924 790.764 579.77 790.811C573.798 792.573 567.459 792.667 561.437 791.083C558.448 792.541 555.543 794.167 552.738 795.953C555.098 795.765 557.473 795.96 559.771 796.532C563.82 797.474 567.965 797.942 572.123 797.927C572.16 797.927 572.196 797.942 572.223 797.969C572.25 797.995 572.264 798.031 572.264 798.069C572.264 798.106 572.25 798.143 572.223 798.169C572.196 798.196 572.16 798.211 572.123 798.211C564.96 799.393 558.187 796.189 551.083 797.029C548.45 798.824 545.978 800.845 543.696 803.069C539.261 807.511 535.608 812.67 532.892 818.328C529.902 824.416 528.282 830.858 525.871 837.146C525.855 837.204 525.817 837.253 525.765 837.283C525.713 837.313 525.651 837.321 525.593 837.305C525.535 837.29 525.486 837.252 525.456 837.2C525.426 837.147 525.418 837.086 525.434 837.028C527.514 824.64 533.684 810.964 542.703 802.135Z" fill="#263238"/>
<path d="M564.31 785.138C564.782 784.293 565.403 783.541 566.142 782.916C566.744 782.262 567.461 781.726 568.258 781.332C568.273 781.327 568.289 781.328 568.304 781.333C568.319 781.339 568.331 781.349 568.339 781.363C568.348 781.377 568.351 781.393 568.349 781.408C568.347 781.424 568.34 781.439 568.328 781.45C567.737 782.124 566.922 782.632 566.295 783.247C565.669 783.861 565.113 784.641 564.475 785.268C564.392 785.362 564.262 785.244 564.31 785.138Z" fill="#263238"/>
<path d="M576.13 788.991C577.182 788.719 578.316 788.743 579.392 788.518C580.468 788.294 581.496 787.904 582.56 787.573C582.589 787.568 582.619 787.573 582.646 787.587C582.672 787.602 582.692 787.625 582.703 787.653C582.714 787.68 582.715 787.711 582.707 787.74C582.698 787.768 582.679 787.793 582.654 787.809C580.702 789.011 578.411 789.542 576.13 789.322C576.086 789.322 576.044 789.305 576.013 789.274C575.982 789.243 575.964 789.201 575.964 789.157C575.964 789.113 575.982 789.071 576.013 789.04C576.044 789.009 576.086 788.991 576.13 788.991Z" fill="#263238"/>
<path d="M513.188 821.756L514.134 832.43L517.325 868.481H545.551L549.546 832.43L550.716 821.756H513.188Z" fill="#37474F"/>
<path d="M513.188 821.756L514.134 832.43H549.546L550.716 821.756H513.188Z" fill="#263238"/>
<path d="M510.398 827.5H553.518V818.836H510.398V827.5Z" fill="#37474F"/>
<path d="M109.074 868.481L168.93 868.197L228.787 868.091L348.5 867.89L468.213 868.091L528.069 868.197L587.926 868.481L528.069 868.777L468.213 868.883L348.5 869.072L228.787 868.883L168.93 868.777L109.074 868.481Z" fill="#263238"/>
<path d="M303.832 573.324V593.205H309.069V602.271L318.134 593.205H379.681V573.324H303.832Z" fill="white"/>
<path d="M303.832 573.312C303.832 580.014 304.069 586.645 304.08 593.193L303.832 592.945H309.329V593.205V602.271L308.832 602.058L317.863 592.981L317.957 592.886H318.099L348.831 592.815H379.563L379.137 593.241V573.359L379.516 573.726L341.692 573.596L303.832 573.312ZM303.832 573.312L341.656 573.076L379.681 572.946H380.048V573.312L380.107 593.193V593.619H379.681H348.949L318.217 593.548L318.442 593.453L309.352 602.496L308.868 602.98V602.295V593.229L309.128 593.489H303.584V593.241C303.584 586.503 303.785 579.872 303.832 573.312Z" fill="#263238"/>
<path d="M317.094 580.511V583.182H316.338V580.511C316.357 580.273 316.328 580.034 316.25 579.808C316.173 579.582 316.049 579.375 315.888 579.199C315.726 579.024 315.53 578.884 315.311 578.788C315.093 578.692 314.857 578.642 314.618 578.642C314.379 578.642 314.143 578.692 313.925 578.788C313.706 578.884 313.51 579.024 313.348 579.199C313.187 579.375 313.063 579.582 312.986 579.808C312.908 580.034 312.878 580.273 312.898 580.511V583.182H312.142V580.511C312.118 580.171 312.165 579.83 312.279 579.51C312.392 579.189 312.571 578.895 312.803 578.646C313.035 578.397 313.316 578.199 313.629 578.063C313.941 577.927 314.278 577.857 314.618 577.857C314.958 577.857 315.295 577.927 315.607 578.063C315.919 578.199 316.2 578.397 316.433 578.646C316.665 578.895 316.843 579.189 316.957 579.51C317.071 579.83 317.118 580.171 317.094 580.511Z" fill="#263238"/>
<path d="M312.154 581.208L312.898 581.243V583.182H312.154V581.208Z" fill="#263238"/>
<path d="M317.094 581.409V583.182H316.338V581.374L317.094 581.409Z" fill="#263238"/>
<path d="M318.052 582.201H311.184V587.91H318.052V582.201Z" fill="#263238"/>
<path d="M329.021 580.913C328.554 581.817 327.947 582.643 327.224 583.359C326.497 584.079 325.659 584.678 324.742 585.132C325.216 584.223 325.834 583.396 326.574 582.686C327.286 581.963 328.113 581.364 329.021 580.913Z" fill="#263238"/>
<path d="M324.742 580.913C325.668 581.387 326.507 582.014 327.224 582.768C327.956 583.483 328.57 584.309 329.044 585.215C328.134 584.747 327.307 584.132 326.597 583.395C325.847 582.675 325.22 581.836 324.742 580.913Z" fill="#263238"/>
<path d="M329.895 583.04C328.921 583.351 327.904 583.503 326.881 583.489C325.859 583.508 324.84 583.357 323.867 583.04C324.84 582.728 325.859 582.58 326.881 582.603C327.903 582.585 328.921 582.733 329.895 583.04Z" fill="#263238"/>
<path d="M326.881 580.026C327.48 581.991 327.48 584.089 326.881 586.054C326.568 585.081 326.421 584.062 326.444 583.04C326.426 582.018 326.573 581 326.881 580.026Z" fill="#263238"/>
<path d="M339.422 580.913C338.956 581.824 338.341 582.651 337.602 583.359C336.89 584.094 336.064 584.709 335.155 585.18C335.629 584.273 336.244 583.447 336.976 582.733C337.684 581.994 338.511 581.379 339.422 580.913Z" fill="#263238"/>
<path d="M335.155 580.913C336.965 581.887 338.448 583.37 339.422 585.18C337.613 584.206 336.129 582.722 335.155 580.913Z" fill="#263238"/>
<path d="M340.309 583.04C339.335 583.351 338.317 583.503 337.295 583.489C336.272 583.508 335.253 583.357 334.281 583.04C335.254 582.728 336.273 582.58 337.295 582.603C338.316 582.585 339.334 582.733 340.309 583.04Z" fill="#263238"/>
<path d="M337.295 580.026C337.602 581 337.75 582.018 337.732 583.04C337.755 584.062 337.607 585.081 337.295 586.054C336.978 585.081 336.827 584.063 336.846 583.04C336.832 582.018 336.984 581 337.295 580.026Z" fill="#263238"/>
<path d="M349.836 580.913C349.37 581.824 348.754 582.651 348.015 583.359C347.301 584.091 346.475 584.706 345.569 585.18C346.039 584.271 346.654 583.445 347.389 582.733C348.097 581.994 348.924 581.379 349.836 580.913Z" fill="#263238"/>
<path d="M345.569 580.913C347.378 581.887 348.862 583.37 349.836 585.18C348.026 584.206 346.543 582.722 345.569 580.913Z" fill="#263238"/>
<path d="M350.722 583.04C349.748 583.351 348.73 583.502 347.708 583.489C346.682 583.508 345.659 583.356 344.682 583.04C345.66 582.728 346.682 582.58 347.708 582.603C348.73 582.585 349.748 582.732 350.722 583.04Z" fill="#263238"/>
<path d="M347.708 580.026C348.289 581.993 348.289 584.087 347.708 586.054C347.109 584.089 347.109 581.991 347.708 580.026Z" fill="#263238"/>
<path d="M360.249 580.913C359.779 581.821 359.164 582.648 358.429 583.359C357.714 584.091 356.888 584.706 355.982 585.18C356.452 584.271 357.067 583.445 357.802 582.733C358.511 581.994 359.338 581.379 360.249 580.913Z" fill="#263238"/>
<path d="M355.982 580.913C357.791 581.887 359.275 583.37 360.249 585.18C359.343 584.706 358.517 584.091 357.802 583.359C357.067 582.648 356.452 581.821 355.982 580.913Z" fill="#263238"/>
<path d="M361.135 583.04C360.161 583.351 359.144 583.503 358.121 583.489C357.095 583.508 356.072 583.357 355.095 583.04C356.073 582.728 357.095 582.58 358.121 582.603C359.143 582.585 360.161 582.733 361.135 583.04Z" fill="#263238"/>
<path d="M358.122 580.026C358.703 581.993 358.703 584.087 358.122 586.054C357.523 584.089 357.523 581.991 358.122 580.026Z" fill="#263238"/>
<path d="M370.663 580.913C370.192 581.821 369.577 582.648 368.842 583.359C368.128 584.091 367.302 584.706 366.396 585.18C366.866 584.271 367.481 583.445 368.216 582.733C368.924 581.994 369.751 581.379 370.663 580.913Z" fill="#263238"/>
<path d="M366.396 580.913C367.307 581.379 368.134 581.994 368.842 582.733C369.577 583.445 370.192 584.271 370.663 585.18C369.756 584.706 368.93 584.091 368.216 583.359C367.481 582.648 366.866 581.821 366.396 580.913Z" fill="#263238"/>
<path d="M371.549 583.04C370.571 583.352 369.549 583.503 368.523 583.489C367.5 583.508 366.482 583.357 365.509 583.04C366.482 582.728 367.501 582.58 368.523 582.603C369.549 582.585 370.571 582.733 371.549 583.04Z" fill="#263238"/>
<path d="M368.523 580.026C369.122 581.991 369.122 584.089 368.523 586.054C367.942 584.087 367.942 581.993 368.523 580.026Z" fill="#263238"/>
<path d="M220.738 813.447L152.477 868.481H156.33L235.158 813.447H220.738Z" fill="#C7C7C7"/>
<path d="M227.144 813.447L193.422 868.481H197.263L238.609 813.447H227.144Z" fill="#C7C7C7"/>
<path d="M243.68 813.447L277.403 868.481H273.561L232.227 813.447H243.68Z" fill="#C7C7C7"/>
<path d="M249.578 813.447L317.827 868.481H313.986L235.158 813.447H249.578Z" fill="#C7C7C7"/>
<path d="M363.488 793.259V777.16L269.767 773.318L220.253 641.135H106.816L146.957 793.259L242.841 820.185H248.857L363.488 793.259Z" fill="#455A64"/>
<path opacity="0.1" d="M106.816 641.135H119.795L161.614 779.807L246.446 803.838L363.488 777.16V793.259L248.857 820.185H242.841L146.957 793.259L106.816 641.135Z" fill="black"/>
<path d="M312.461 893.516C309.6 892.417 245.264 839.711 244.082 836.153C243.621 834.806 250.748 824.983 259.708 813.364C261.635 810.859 263.656 808.282 265.713 805.67C279.046 788.72 293.596 771.049 293.596 771.049L336.739 806.166L307.662 839.818L301.279 847.205C301.279 847.205 316.893 878.41 317.768 882.452C318.643 886.495 315.321 894.603 312.461 893.516Z" fill="#FFC4C0"/>
<path d="M312.461 893.516C309.6 892.416 245.264 839.711 244.082 836.153C243.527 834.498 254.176 820.35 265.713 805.669L307.662 839.841L301.279 847.229C301.279 847.229 316.893 878.433 317.768 882.476C318.643 886.518 315.321 894.603 312.461 893.516Z" fill="#EBEBEB"/>
<path d="M312.461 893.516C309.6 892.416 245.264 839.711 244.082 836.153C243.621 834.806 250.748 824.983 259.708 813.364L301.279 847.229C301.279 847.229 316.893 878.433 317.768 882.476C318.643 886.518 315.321 894.603 312.461 893.516Z" fill="#4D774E"/>
<path d="M313.655 890.182C303.017 881.081 259.602 845.373 248.456 837.182C248.373 837.111 248.325 837.182 248.456 837.241C258.668 846.496 302.402 881.814 313.501 890.36C313.737 890.537 313.867 890.372 313.655 890.182Z" fill="#263238"/>
<path d="M315.522 876.767C314.349 875.754 312.979 874.996 311.498 874.54C310.016 874.084 308.457 873.941 306.917 874.119C304.155 874.423 301.616 875.778 299.825 877.902C299.825 877.961 299.896 878.067 299.955 878.008C302.07 876.169 304.724 875.067 307.52 874.869C310.315 874.671 313.098 875.387 315.451 876.909C315.461 876.918 315.472 876.924 315.484 876.928C315.497 876.932 315.51 876.932 315.522 876.93C315.535 876.928 315.547 876.923 315.557 876.915C315.568 876.907 315.576 876.897 315.582 876.886C315.588 876.874 315.591 876.861 315.591 876.848C315.591 876.835 315.588 876.823 315.582 876.811C315.576 876.8 315.568 876.79 315.557 876.782C315.547 876.774 315.535 876.769 315.522 876.767Z" fill="#263238"/>
<path d="M304.589 851.732C300.322 848.127 294.069 845.55 288.49 846.886C288.277 846.945 288.36 847.24 288.49 847.288C293.884 848.395 299.143 850.083 304.175 852.323C304.253 852.378 304.35 852.399 304.444 852.383C304.539 852.366 304.622 852.313 304.677 852.234C304.732 852.156 304.754 852.059 304.737 851.965C304.72 851.871 304.667 851.787 304.589 851.732Z" fill="#263238"/>
<path d="M306.858 855.81C302.591 852.264 296.338 849.628 290.759 850.964C290.547 850.964 290.617 851.319 290.759 851.366C296.154 852.475 301.412 854.163 306.444 856.401C306.523 856.456 306.62 856.477 306.714 856.461C306.808 856.444 306.892 856.391 306.947 856.312C307.002 856.234 307.023 856.137 307.006 856.043C306.99 855.949 306.937 855.865 306.858 855.81Z" fill="#263238"/>
<path d="M309.128 859.793C304.861 856.188 298.608 853.611 293.029 854.947C292.816 854.947 292.887 855.301 293.029 855.349C298.423 856.458 303.682 858.146 308.714 860.384C308.792 860.439 308.889 860.46 308.983 860.444C309.078 860.427 309.161 860.374 309.216 860.295C309.271 860.217 309.293 860.12 309.276 860.026C309.259 859.932 309.206 859.848 309.128 859.793Z" fill="#263238"/>
<path d="M311.397 863.812C307.13 860.266 300.877 857.642 295.298 858.978C295.085 858.978 295.156 859.332 295.298 859.368C300.691 860.487 305.95 862.179 310.983 864.415C311.063 864.47 311.162 864.491 311.257 864.473C311.352 864.455 311.437 864.4 311.491 864.32C311.546 864.24 311.567 864.142 311.549 864.047C311.532 863.951 311.477 863.867 311.397 863.812Z" fill="#263238"/>
<path d="M259.602 829.18C254.744 825.232 248.597 832.726 253.455 836.733C258.313 840.74 264.46 833.139 259.602 829.18Z" fill="white"/>
<path d="M318.69 843.99C317.992 840.385 313.785 839.9 310.9 840.68C305.953 842.097 301.467 844.797 297.898 848.505C297.879 848.517 297.863 848.533 297.851 848.553C297.84 848.572 297.834 848.595 297.834 848.617C297.834 848.64 297.84 848.662 297.851 848.682C297.863 848.702 297.879 848.718 297.898 848.73C297.849 848.825 297.822 848.931 297.82 849.038C297.819 849.146 297.842 849.252 297.89 849.349C297.937 849.445 298.006 849.53 298.092 849.595C298.177 849.659 298.277 849.703 298.383 849.723C303.206 850.113 308.3 851.129 313.087 850.03C315.959 849.439 319.352 847.441 318.69 843.99ZM305.877 848.824C303.513 848.682 301.149 848.434 298.785 848.387C301.267 846.79 303.827 845.318 306.456 843.978C307.742 843.35 309.069 842.809 310.428 842.359C312.532 841.709 319.718 841.567 316.338 846.614C314.411 849.451 308.702 849.025 305.877 848.871V848.824Z" fill="#263238"/>
<path d="M285.854 841.366C289.14 845.018 293.892 847.122 298.052 849.64C298.149 849.685 298.255 849.707 298.362 849.704C298.469 849.701 298.573 849.674 298.667 849.623C298.762 849.573 298.843 849.501 298.904 849.413C298.966 849.326 299.006 849.225 299.021 849.12C299.116 849.12 299.199 849.061 299.175 848.942C298.401 843.866 296.301 839.083 293.088 835.077C291.173 832.713 287.461 830.751 284.814 833.293C282.166 835.834 283.975 839.262 285.854 841.366ZM285.251 836.768C285.369 830.669 291.161 834.924 292.509 836.673C293.375 837.826 294.165 839.034 294.873 840.29C296.338 842.867 297.402 845.597 298.608 848.304C296.634 846.968 294.565 845.822 292.544 844.569C290.145 843.068 285.239 840.125 285.298 836.768H285.251Z" fill="#263238"/>
<path d="M381.596 740.175C378.334 762.775 321.775 827.43 315.238 834.841C314.269 835.929 313.749 836.532 313.749 836.532L268.041 800.516L268.585 799.831L309.86 747.137L188.682 744.95L235.134 709.727C235.134 709.727 238.834 711.925 246.611 710.909C273.396 707.363 333.796 699.384 348.015 700.129C366.289 701.098 384.527 719.443 381.596 740.175Z" fill="#263238"/>
<path d="M324.623 727.539C323.095 729.222 321.674 730.998 320.368 732.858C318.914 734.726 317.425 736.57 315.971 738.437V738.496C316.231 737.941 316.479 737.397 316.751 736.853C317.685 734.986 318.43 733.059 319.517 731.274C319.524 731.263 319.529 731.251 319.531 731.238C319.534 731.226 319.533 731.213 319.531 731.2C319.528 731.187 319.523 731.175 319.515 731.165C319.508 731.154 319.499 731.145 319.488 731.138C319.477 731.131 319.465 731.126 319.452 731.124C319.439 731.122 319.426 731.122 319.414 731.125C319.401 731.128 319.389 731.133 319.378 731.14C319.368 731.148 319.359 731.157 319.352 731.168C318.229 732.941 316.988 734.619 315.971 736.475C315.522 737.35 315.085 738.236 314.683 739.134C314.47 739.631 314.246 740.127 314.045 740.636C313.934 740.868 313.844 741.109 313.773 741.357C313.111 742.219 312.473 743.094 311.846 743.981C310.451 745.943 309.222 748.023 307.804 749.973C307.733 750.068 307.898 750.174 307.981 750.08C309.399 748.248 310.995 746.534 312.437 744.725C313.879 742.917 315.309 740.967 316.692 739.052C318.075 737.137 319.364 735.293 320.711 733.414C322.187 731.575 323.545 729.644 324.777 727.634C324.79 727.613 324.794 727.589 324.788 727.565C324.783 727.542 324.768 727.522 324.748 727.509C324.727 727.497 324.703 727.493 324.679 727.499C324.656 727.504 324.636 727.519 324.623 727.539Z" fill="#37474F"/>
<path d="M319.99 825.917C317.39 823.648 314.6 821.556 311.858 819.452C309.116 817.348 306.35 815.232 303.584 813.152C298.04 808.979 292.509 804.771 286.906 800.682C283.833 798.424 280.736 796.214 277.533 794.121C277.391 794.039 277.237 794.263 277.367 794.37C282.639 798.873 288.242 802.975 293.773 807.135C299.305 811.296 304.896 815.409 310.51 819.546C313.584 821.78 316.645 824.085 319.848 826.13C319.978 826.26 320.132 826.012 319.99 825.917Z" fill="#37474F"/>
<path d="M221.624 650.047C234.201 673.983 249.117 699.384 263.254 703.06C276.694 706.606 308.69 673.061 314.08 661.926C315.96 658.097 290.629 641.3 287.036 644.114C280.287 649.444 265.488 666.3 263.396 665.874C261.304 665.449 243.302 649.468 227.144 636.029C217.298 627.885 212.925 633.464 221.624 650.047Z" fill="#FFC4C0"/>
<path d="M291.646 605.226L281.965 639.114C281.837 639.297 281.763 639.514 281.753 639.738C281.743 639.962 281.797 640.184 281.908 640.379C282.02 640.574 282.184 640.733 282.383 640.837C282.581 640.942 282.805 640.987 283.029 640.969L300.653 641.525C301.193 641.5 301.715 641.323 302.159 641.013C302.602 640.703 302.949 640.274 303.158 639.776L312.839 605.888C313.241 604.895 312.756 604.067 311.775 604.044L294.128 603.5C293.594 603.526 293.078 603.701 292.639 604.006C292.2 604.312 291.856 604.734 291.646 605.226Z" fill="#A6A6A6"/>
<path d="M293.738 605.285L284.057 639.173C283.667 640.166 284.14 640.993 285.121 641.029L302.757 641.584C303.295 641.557 303.815 641.379 304.256 641.069C304.697 640.76 305.042 640.332 305.251 639.835L314.931 605.947C315.333 604.954 314.848 604.127 313.867 604.103L296.244 603.547C295.705 603.571 295.183 603.747 294.74 604.054C294.297 604.362 293.949 604.788 293.738 605.285Z" fill="#DBDBDB"/>
<path d="M298.525 606.999C298.528 607.205 298.489 607.409 298.409 607.599C298.33 607.789 298.212 607.961 298.064 608.103C297.915 608.246 297.739 608.356 297.546 608.428C297.352 608.499 297.147 608.531 296.941 608.519C296.736 608.508 296.534 608.454 296.35 608.362C296.166 608.269 296.003 608.14 295.871 607.982C295.74 607.824 295.642 607.64 295.584 607.443C295.526 607.245 295.509 607.038 295.535 606.834C295.532 606.628 295.571 606.423 295.651 606.233C295.73 606.043 295.848 605.872 295.996 605.729C296.145 605.587 296.321 605.476 296.514 605.405C296.707 605.333 296.913 605.302 297.119 605.313C297.324 605.325 297.525 605.378 297.709 605.471C297.893 605.563 298.056 605.692 298.188 605.85C298.32 606.009 298.418 606.192 298.476 606.39C298.534 606.587 298.551 606.795 298.525 606.999Z" fill="#455A64"/>
<path d="M322.271 642.742C323.761 632.896 322.626 630.142 328.299 622.495C332.023 617.471 330.415 612.944 324.564 615.757C314.99 620.379 310.38 632.684 310.038 637.412L322.271 642.742Z" fill="#FFC4C0"/>
<path d="M309.565 668.558C309.565 668.558 318.761 657.825 321.385 647.483C323.193 640.331 325.404 624.339 309.778 608.831C306.066 605.155 298.182 602.543 302.047 610.746C304.801 616.573 308.312 619.446 309.293 623.122C309.293 623.122 298.856 620.994 295.322 624.847C292.226 628.222 289.374 631.812 286.788 635.592C287.373 636.221 287.997 636.813 288.655 637.365C288.655 637.365 285.688 641.289 286.291 648.735L309.565 668.558Z" fill="#FFC4C0"/>
<path d="M322.023 640.39C320.274 636.939 316.444 629.693 311.255 624.847C305.487 619.481 292.922 610.663 288.998 614.977C286.126 618.133 290.629 621.904 290.629 621.904C290.629 621.904 284.719 619.363 282.686 622.779C280.89 625.899 284.542 628.606 284.542 628.606C284.542 628.606 280.665 627.696 279.507 631.029C278.112 635.036 286.48 636.301 288.573 641.584C289.045 642.766 322.023 640.39 322.023 640.39Z" fill="#FFC4C0"/>
<path d="M306.586 631.892C302.462 627.017 296.949 623.516 290.783 621.856C290.617 621.856 290.511 621.927 290.641 621.986C296.328 624.645 301.667 627.991 306.539 631.951C306.539 631.951 306.61 631.927 306.586 631.892Z" fill="#263238"/>
<path d="M300.995 637.554C298.856 635.19 291.717 629.835 284.613 628.488C284.459 628.488 284.353 628.559 284.495 628.618C290.299 630.989 295.819 634.007 300.948 637.613C300.948 637.613 301.019 637.589 300.995 637.554Z" fill="#263238"/>
<path d="M278.348 648.475L304.766 676.453C304.766 676.453 276.906 707.693 263.821 704.431C250.737 701.169 225.997 665.744 218.066 643.263C212.57 627.684 221.199 630.201 230.3 637.825C239.401 645.449 263.16 664.385 264.2 664.113C265.24 663.841 278.348 648.475 278.348 648.475Z" fill="#164A41"/>
<path opacity="0.1" d="M269.412 704.147C267.592 704.721 265.655 704.819 263.786 704.431C250.701 701.169 225.962 665.756 218.031 643.262C214.414 633.014 216.943 630.603 221.695 632.353C235.95 653.499 254.921 681.843 269.412 704.147Z" fill="black"/>
<path d="M296.173 681.11C292.355 677.245 277.261 660.886 274.282 657.139C274.069 656.879 274.188 656.678 274.436 656.927C286.161 668.215 292.769 677.021 296.326 680.957C296.409 681.051 296.267 681.205 296.173 681.11Z" fill="#263238"/>
<path d="M250.973 725.79C250.973 725.79 164.344 741.629 163.895 741.156C163.446 740.683 173.434 646.986 202.83 631.147C207.558 628.642 218.752 627.164 223.551 632.058C237.238 645.982 252.108 724.525 250.973 725.79Z" fill="#164A41"/>
<path d="M250.063 718.024L164.758 732.657C165.077 730.08 165.503 727.007 166.035 723.544L248.491 709.36C249.129 712.669 249.649 715.589 250.063 718.024Z" fill="#EBEBEB"/>
<path d="M247.581 704.833L166.803 718.698C167.051 717.161 167.323 715.589 167.619 713.97L246.647 700.412C246.978 701.901 247.285 703.391 247.581 704.833Z" fill="#EBEBEB"/>
<path d="M219.721 646.276C214.887 646.276 208.729 637.364 207.003 630.91C206.885 630.473 208.468 626.525 210.171 621.632C211.187 618.665 212.251 615.332 212.996 612.176L231.364 621.632C229.325 625.254 227.738 629.113 226.636 633.121C226.532 633.551 226.473 633.991 226.459 634.433C226.459 634.492 226.459 634.563 226.459 634.646C226.21 637.246 224.39 646.288 219.721 646.276Z" fill="#FFC4C0"/>
<path d="M231.376 621.774C229.336 625.396 227.748 629.254 226.648 633.263C226.544 633.693 226.484 634.133 226.47 634.575C226.475 634.642 226.475 634.709 226.47 634.776C225.782 634.721 225.101 634.599 224.437 634.41C213.149 631.407 213.338 616.573 213.61 612.59L231.376 621.774Z" fill="#263238"/>
<path d="M212.215 590.841C209.272 597.673 210.75 618.523 215.277 623.641C221.849 631.053 233.728 632.991 240.3 624.823C246.682 616.928 244.271 589.789 239.118 585.026C231.482 578.04 216.553 580.735 212.215 590.841Z" fill="#FFC4C0"/>
<path d="M231.234 605.84C231.234 605.781 231.139 605.911 231.139 605.97C231.316 607.365 231.281 608.984 230.063 609.516C230.063 609.516 230.063 609.611 230.063 609.599C231.6 609.28 231.624 607.129 231.234 605.84Z" fill="#263238"/>
<path d="M229.863 604.505C227.605 604.505 227.841 609.043 229.934 609.008C232.026 608.973 231.754 604.469 229.863 604.505Z" fill="#263238"/>
<path d="M239.437 605.392C239.437 605.392 239.555 605.451 239.555 605.51C239.555 606.905 239.851 608.5 241.139 608.902V608.985C239.579 608.843 239.248 606.715 239.437 605.392Z" fill="#263238"/>
<path d="M240.607 603.866C242.841 603.583 243.255 608.074 241.186 608.334C239.118 608.594 238.74 604.115 240.607 603.866Z" fill="#263238"/>
<path d="M227.936 602.531C228.519 602.324 229.091 602.087 229.65 601.822C230.29 601.665 230.858 601.294 231.257 600.77C231.364 600.579 231.402 600.356 231.363 600.141C231.324 599.925 231.212 599.73 231.045 599.588C230.696 599.362 230.294 599.232 229.878 599.211C229.463 599.191 229.05 599.28 228.681 599.47C227.86 599.746 227.173 600.319 226.754 601.077C226.66 601.254 226.62 601.454 226.639 601.653C226.659 601.852 226.736 602.041 226.862 602.196C226.988 602.352 227.158 602.466 227.349 602.526C227.54 602.585 227.744 602.587 227.936 602.531Z" fill="#263238"/>
<path d="M242.226 601.503C241.6 601.432 241.044 601.266 240.418 601.136C239.759 601.091 239.133 600.834 238.633 600.403C238.499 600.236 238.426 600.027 238.426 599.812C238.426 599.597 238.499 599.389 238.633 599.221C238.937 598.919 239.318 598.706 239.735 598.604C240.151 598.502 240.587 598.515 240.997 598.642C241.845 598.759 242.621 599.179 243.184 599.824C243.328 599.983 243.418 600.183 243.441 600.396C243.464 600.609 243.42 600.824 243.313 601.01C243.207 601.197 243.045 601.344 242.85 601.433C242.654 601.521 242.436 601.546 242.226 601.503Z" fill="#263238"/>
<path d="M231.955 614.15C232.338 614.684 232.828 615.132 233.394 615.465C233.959 615.799 234.588 616.011 235.241 616.088C235.809 616.172 236.386 616.172 236.955 616.088C237.166 616.067 237.376 616.028 237.581 615.97C237.655 615.955 237.722 615.915 237.771 615.857C237.821 615.799 237.849 615.727 237.853 615.651L237.605 612.672C238.007 612.85 240.051 613.642 239.969 613.074C239.59 608.235 238.719 603.447 237.368 598.784C237.364 598.767 237.357 598.751 237.347 598.736C237.337 598.722 237.324 598.71 237.309 598.701C237.295 598.691 237.278 598.685 237.261 598.682C237.243 598.679 237.226 598.68 237.209 598.683C237.192 598.687 237.176 598.695 237.161 598.705C237.147 598.715 237.135 598.728 237.125 598.742C237.116 598.757 237.11 598.774 237.107 598.791C237.104 598.808 237.104 598.826 237.108 598.843C237.439 603.311 238.55 607.696 238.952 612.188C238.222 611.894 237.454 611.703 236.671 611.62C236.588 611.62 237.073 615.273 237.061 615.308C236.185 615.441 235.29 615.397 234.432 615.177C233.573 614.958 232.767 614.568 232.061 614.032C231.978 613.937 231.872 614.044 231.955 614.15Z" fill="#263238"/>
<path d="M236.505 615.864C235.892 616.674 235.077 617.31 234.141 617.708C233.623 617.915 233.052 617.952 232.51 617.814C231.328 617.519 231.328 616.443 231.517 615.521C231.636 615.03 231.811 614.554 232.038 614.103C233.303 615.148 234.867 615.765 236.505 615.864Z" fill="#263238"/>
<path d="M234.141 617.719C233.623 617.927 233.052 617.964 232.51 617.826C231.328 617.53 231.328 616.455 231.517 615.533C232.137 615.549 232.733 615.773 233.209 616.17C233.686 616.567 234.014 617.113 234.141 617.719Z" fill="#FF9CBD"/>
<path d="M210.289 609.67C215.726 610.096 218.563 603.63 217.381 598.406C217.381 598.406 231.813 600.427 232.593 588.832C233.741 590.435 235.235 591.76 236.964 592.709C238.692 593.658 240.612 594.207 242.581 594.316L243.538 598.394C245.028 597.98 246.635 593.772 243.03 590.439C243.03 590.439 242.829 584.659 238.586 581.149C237.44 580.144 236.029 579.492 234.521 579.27C233.014 579.047 231.474 579.265 230.087 579.896C227.584 578.059 224.464 577.266 221.388 577.685C219.782 577.93 218.259 578.555 216.944 579.509C215.63 580.464 214.564 581.719 213.835 583.17C213.835 583.17 206.66 584.482 205.407 589.564C205.018 590.998 204.937 592.497 205.169 593.964C205.402 595.431 205.942 596.832 206.755 598.075C206.755 598.075 204.934 600.061 205.821 604.41C206.388 607.2 208.658 609.54 210.289 609.67Z" fill="#263238"/>
<path d="M232.286 587.792C232.381 588.735 232.381 589.685 232.286 590.628C232.212 591.56 232.03 592.481 231.742 593.371C231.174 595.125 229.967 596.601 228.361 597.508C226.708 598.355 224.877 598.8 223.019 598.808C222.085 598.808 221.139 598.808 220.194 598.713C219.248 598.619 218.314 598.489 217.369 598.406C218.291 598.63 219.225 598.831 220.158 599.044C221.092 599.257 222.061 599.221 223.019 599.316C224.98 599.409 226.932 599.002 228.692 598.134C230.424 597.134 231.696 595.496 232.238 593.571C232.74 591.679 232.757 589.691 232.286 587.792Z" fill="#263238"/>
<path d="M239.685 594.588C238.109 594.05 236.635 593.251 235.323 592.224C234.684 591.706 234.115 591.106 233.633 590.439C233.159 589.753 232.762 589.015 232.451 588.241C232.525 589.114 232.787 589.961 233.219 590.723C233.641 591.503 234.216 592.191 234.91 592.744C235.59 593.295 236.352 593.738 237.167 594.056C237.972 594.371 238.822 594.551 239.685 594.588Z" fill="#263238"/>
<path d="M228.491 612.885C227.356 612.829 226.259 612.456 225.325 611.807C224.391 611.158 223.658 610.261 223.209 609.216C222.76 608.172 222.614 607.022 222.785 605.898C222.957 604.775 223.441 603.722 224.182 602.859C224.923 601.996 225.89 601.359 226.975 601.019C228.06 600.68 229.219 600.651 230.319 600.937C231.42 601.223 232.418 601.812 233.2 602.637C233.982 603.462 234.517 604.49 234.744 605.604C235.059 607.18 234.739 608.817 233.853 610.158C232.968 611.499 231.589 612.437 230.016 612.767C229.515 612.871 229.003 612.911 228.491 612.885ZM229.047 601.55C228.607 601.527 228.166 601.562 227.735 601.656C226.429 601.93 225.276 602.692 224.511 603.785C223.746 604.879 223.427 606.224 223.618 607.545C223.809 608.866 224.496 610.064 225.54 610.896C226.584 611.728 227.905 612.131 229.236 612.024C230.566 611.916 231.806 611.305 232.702 610.316C233.598 609.326 234.083 608.033 234.059 606.698C234.035 605.363 233.503 604.088 232.572 603.132C231.641 602.175 230.38 601.61 229.047 601.55Z" fill="#4D774E"/>
<path d="M242.404 611.857C240.04 611.739 238.089 609.257 237.877 606.101C237.736 604.59 238.084 603.073 238.87 601.775C239.169 601.197 239.612 600.705 240.156 600.348C240.7 599.99 241.327 599.779 241.976 599.734C242.625 599.689 243.276 599.811 243.864 600.09C244.452 600.369 244.959 600.794 245.335 601.325C246.272 602.514 246.821 603.963 246.907 605.474C247.132 608.819 245.288 611.68 242.806 611.857H242.404ZM242.333 600.534H242.025C241.511 600.594 241.018 600.777 240.588 601.067C240.158 601.357 239.804 601.745 239.555 602.2C238.869 603.358 238.564 604.701 238.68 606.042C238.881 608.938 240.702 611.183 242.746 611.041C244.791 610.9 246.292 608.429 246.092 605.533C246.026 604.19 245.543 602.901 244.709 601.846C244.43 601.466 244.075 601.15 243.665 600.917C243.256 600.685 242.801 600.542 242.333 600.498V600.534Z" fill="#4D774E"/>
<path d="M234.591 606.313L234.023 605.734C234.886 604.895 236.943 603.713 238.538 605.19L237.983 605.781C236.565 604.457 234.673 606.242 234.591 606.313Z" fill="#4D774E"/>
<path d="M208.882 609.871L208.137 609.54C208.291 609.197 209.662 606.136 211.459 605.71C213.256 605.285 222.853 605.462 223.279 605.474V606.289C219.389 606.151 215.495 606.223 211.613 606.502C210.454 606.786 209.249 609.02 208.882 609.871Z" fill="#4D774E"/>
<path d="M215.419 609.303C215.419 609.303 211.388 602.211 208.232 603.642C205.076 605.072 207.7 614.942 211.104 616.573C211.525 616.819 211.993 616.976 212.477 617.034C212.962 617.091 213.453 617.048 213.92 616.907C214.387 616.767 214.82 616.531 215.192 616.215C215.563 615.899 215.866 615.51 216.081 615.072L215.419 609.303Z" fill="#FFC4C0"/>
<path d="M209.024 606.467C209.024 606.467 208.953 606.538 209.024 606.561C211.388 607.743 212.499 610.19 213.196 612.649C213.076 612.388 212.901 612.156 212.682 611.97C212.463 611.784 212.206 611.648 211.929 611.571C211.652 611.495 211.362 611.48 211.079 611.527C210.795 611.574 210.526 611.683 210.289 611.845C210.276 611.852 210.266 611.863 210.259 611.875C210.252 611.888 210.249 611.902 210.249 611.916C210.249 611.93 210.252 611.944 210.259 611.957C210.266 611.969 210.276 611.979 210.289 611.987C210.736 611.887 211.203 611.927 211.626 612.103C212.049 612.278 212.408 612.581 212.653 612.968C213.054 613.625 213.387 614.322 213.646 615.048C213.74 615.273 214.142 615.19 214.083 614.93V614.871C214.461 611.727 212.404 607.093 209.024 606.467Z" fill="#263238"/>
<path d="M226.683 636.939H226.624C226.423 640.887 225.702 649.941 219.355 648.759C216.845 648.06 214.583 646.667 212.83 644.74C209.41 641.13 206.553 637.026 204.355 632.565C204.296 632.459 204.154 632.565 204.19 632.66C204.955 634.969 205.99 637.178 207.275 639.244C208.703 641.634 210.453 643.818 212.476 645.733C214.402 647.506 216.731 649.279 219.449 649.728C220.615 649.926 221.813 649.722 222.846 649.148C223.88 648.574 224.687 647.666 225.135 646.572C226.399 643.527 226.929 640.227 226.683 636.939Z" fill="#263238"/>
<path d="M193.114 638.582C179.592 650.402 144.924 697.091 153.435 707.079C161.945 717.067 215.454 710.14 230.832 704.62C235.418 702.977 221.541 674.078 216.482 672.931C212.251 671.962 189.403 679.775 188.895 678.451C188.386 677.127 192.842 666.82 200.005 648.357C208.268 627.081 199.095 633.346 193.114 638.582Z" fill="#FFC4C0"/>
<path d="M239.059 666.312C249.827 665.898 252.652 667.494 261.517 662.269C267.356 658.877 272.036 661.146 268.301 667.104C262.19 676.831 248.408 680.283 243.29 680.106L239.059 666.312Z" fill="#FFC4C0"/>
<path d="M209.84 673.699C209.84 673.699 222.428 668.274 233.846 666.69C241.754 665.602 259.212 665.141 274.034 683.805C277.58 688.238 279.4 697.032 271.044 691.878C265.134 688.226 262.45 684.112 258.609 682.611C258.609 682.611 259.649 694.077 255.063 697.422C251.061 700.342 246.859 702.977 242.486 705.306C241.882 704.6 241.321 703.858 240.808 703.083C240.808 703.083 236.245 705.802 228.314 704.265L209.84 673.699Z" fill="#FFC4C0"/>
<path d="M241.564 666.867C245.11 669.16 252.392 674.148 256.93 680.307C262.013 687.15 269.932 701.713 264.874 705.412C261.138 708.131 257.616 702.835 257.616 702.835C257.616 702.835 259.625 709.537 255.713 711.251C252.167 712.812 249.673 708.556 249.673 708.556C249.673 708.556 250.205 712.835 246.482 713.686C242.002 714.703 241.647 705.566 236.222 702.67C235.028 702.02 241.564 666.867 241.564 666.867Z" fill="#FFC4C0"/>
<path d="M248.834 684.42C253.578 689.443 256.678 695.793 257.722 702.623C257.722 702.8 257.616 702.906 257.569 702.753C255.385 696.326 252.432 690.186 248.775 684.467C248.775 684.467 248.81 684.42 248.834 684.42Z" fill="#263238"/>
<path d="M242.12 689.81C244.413 692.386 249.306 700.696 249.909 708.497C249.909 708.674 249.791 708.781 249.744 708.615C247.895 702.09 245.318 695.794 242.061 689.845C242.061 689.845 242.049 689.774 242.12 689.81Z" fill="#263238"/>
<path d="M258.597 682.553C261.954 683.924 264.034 685.838 266.753 688.167C268.081 689.333 269.474 690.422 270.925 691.429C272.261 692.339 274.223 693.699 275.843 692.611C276.228 692.274 276.517 691.84 276.679 691.353C276.841 690.867 276.87 690.347 276.764 689.845C276.479 688.4 275.968 687.008 275.252 685.72C275.252 685.72 275.311 685.626 275.334 685.72C276.041 686.894 276.624 688.137 277.072 689.432C277.34 690.322 277.34 691.272 277.072 692.162C276.374 694.018 274.093 694.042 272.557 693.344C271.642 692.906 270.775 692.375 269.968 691.76C269.176 691.193 268.408 690.578 267.604 689.964C266.067 688.687 264.614 687.328 263.101 686.028C261.601 684.801 260.021 683.676 258.373 682.659C258.358 682.629 258.357 682.595 258.368 682.564C258.379 682.533 258.402 682.508 258.432 682.493C258.461 682.479 258.496 682.478 258.527 682.489C258.558 682.5 258.583 682.523 258.597 682.553Z" fill="#263238"/>
<path d="M209.84 673.699L223.031 710.589C223.031 710.589 156.106 718.698 151.602 706.759C147.099 694.821 176.992 652.754 189.746 640.922C204.532 627.199 205.714 632.494 201.447 645.532C196.991 659.196 189.048 678.793 189.048 678.793L209.84 673.699Z" fill="#164A41"/>
<path d="M168.221 686.169C171.475 684.383 174.853 682.83 178.327 681.524C181.782 680.258 185.326 679.25 188.93 678.51C190.975 678.049 193.031 677.694 195.1 677.328C195.1 677.328 195.171 677.41 195.1 677.422C191.499 678.203 187.947 679.194 184.462 680.389C180.971 681.532 177.516 682.741 174.096 684.018C172.146 684.751 170.242 685.554 168.328 686.382C168.299 686.396 168.267 686.398 168.237 686.388C168.207 686.378 168.182 686.357 168.168 686.329C168.154 686.3 168.152 686.268 168.162 686.238C168.172 686.208 168.193 686.183 168.221 686.169Z" fill="#263238"/>
<path d="M209.674 673.581C209.331 673.64 190.845 677.753 190.23 677.966C190.325 677.706 194.497 668.51 195.112 667.163L195.289 666.761C195.679 666.17 196.069 665.579 196.471 664.976C196.873 664.373 197.405 663.427 197.866 662.612L196.377 664.87C196.152 665.224 195.927 665.579 195.715 665.945C196.128 664.988 196.53 664.03 196.897 663.073C197.535 661.536 198.079 659.988 198.717 658.439H198.634C197.452 661.123 196.093 663.758 194.864 666.442C193.634 669.125 188.954 678.959 188.954 678.959C188.954 678.959 209.367 673.983 209.769 673.853C209.805 673.84 209.834 673.814 209.851 673.78C209.868 673.745 209.87 673.706 209.857 673.67C209.845 673.633 209.818 673.604 209.784 673.587C209.75 673.571 209.71 673.568 209.674 673.581Z" fill="#263238"/>
<path d="M208.575 696.665C207.121 692.552 205.714 688.391 204.107 684.361C203.197 682.056 202.298 679.751 201.377 677.446C201.377 677.363 201.187 677.446 201.211 677.446C202.499 681.63 203.8 685.826 205.289 689.951C206.778 694.077 208.197 698.226 209.721 702.268C210.596 704.585 211.534 706.878 212.535 709.147C212.535 709.147 212.629 709.147 212.617 709.147C211.471 704.939 210.029 700.814 208.575 696.665Z" fill="#263238"/>
<path d="M223.823 711.216C223.279 710.034 222.641 708.426 222.014 707.303C221.86 706.996 221.636 707.043 221.754 707.303C222.156 708.332 222.451 709.478 222.853 710.542C221.908 710.625 220.974 710.696 220.04 710.802L216.79 711.145C214.662 711.366 212.534 711.567 210.407 711.748C206.104 712.102 201.794 712.366 197.476 712.54C188.811 712.94 180.131 712.885 171.472 712.374C169.108 712.221 166.637 712.02 164.226 711.748C161.815 711.476 159.144 711.145 157.134 710.696C157.075 710.696 157.051 710.779 157.134 710.802C159.131 711.438 161.174 711.916 163.245 712.232C165.42 712.552 167.595 712.823 169.782 713.013C174.143 713.403 178.517 713.556 182.89 713.592C191.558 713.663 200.226 713.371 208.894 712.717C211.317 712.54 213.728 712.327 216.151 712.091L219.804 711.701C221.009 711.606 223.917 711.417 223.823 711.216Z" fill="#263238"/>
<path d="M310.049 710.4H225.785V714.17H310.049V710.4Z" fill="#C7C7C7"/>
<path d="M310.05 710.4V714.17H252.77L255.654 710.4H310.05Z" fill="#A6A6A6"/>
<path d="M264.353 714.171H338.098L348.772 662.139H275.027L264.353 714.171Z" fill="#A6A6A6"/>
<path d="M267.805 714.171H341.55L352.223 662.139H278.478L267.805 714.171Z" fill="#C7C7C7"/>
<path d="M316.657 686.217C316.739 687.378 316.426 688.533 315.77 689.494C315.113 690.455 314.151 691.166 313.04 691.512C310.936 691.961 309.175 690.33 309.092 687.86C309.031 686.7 309.36 685.553 310.026 684.602C310.692 683.651 311.658 682.951 312.768 682.612C314.813 682.127 316.586 683.77 316.657 686.217Z" fill="white"/>
<path d="M481.782 822.182C480.683 825.042 427.765 889.201 424.195 890.383C422.848 890.833 413.049 883.67 401.465 874.675C398.959 872.736 396.383 870.715 393.782 868.646C376.88 855.254 359.256 840.657 359.256 840.657L394.598 797.632L428.143 826.804L435.519 833.21C435.519 833.21 466.7 817.702 470.754 816.804C474.808 815.906 482.881 819.322 481.782 822.182Z" fill="#FFC4C0"/>
<path d="M481.782 822.182C480.683 825.043 427.765 889.202 424.195 890.384C422.552 890.915 408.427 880.242 393.782 868.647L428.06 826.804L435.436 833.21C435.436 833.21 466.7 817.702 470.754 816.804C474.808 815.906 482.881 819.322 481.782 822.182Z" fill="#EBEBEB"/>
<path d="M481.782 822.182C480.683 825.043 427.765 889.202 424.195 890.384C422.848 890.833 413.049 883.67 401.465 874.675L435.46 833.21C435.46 833.21 466.7 817.702 470.754 816.804C474.808 815.906 482.882 819.322 481.782 822.182Z" fill="#4D774E"/>
<path d="M478.449 820.988C469.312 831.52 433.474 874.888 425.259 885.998C425.2 886.093 425.259 886.14 425.33 885.998C434.609 875.75 470.116 832.087 478.65 821.071C478.815 820.894 478.65 820.764 478.449 820.988Z" fill="#263238"/>
<path d="M465.045 819.062C464.028 820.233 463.264 821.602 462.802 823.083C462.34 824.564 462.191 826.125 462.362 827.667C462.665 830.423 464.009 832.96 466.121 834.759C466.192 834.759 466.286 834.688 466.227 834.628C464.405 832.502 463.318 829.843 463.129 827.049C462.939 824.255 463.657 821.474 465.175 819.121C465.246 819.085 465.116 818.979 465.045 819.062Z" fill="#263238"/>
<path d="M439.975 829.924C436.358 834.179 433.769 840.42 435.081 845.999C435.081 846.212 435.436 846.141 435.471 845.999C436.607 840.608 438.314 835.354 440.566 830.326C440.619 830.247 440.639 830.151 440.621 830.058C440.604 829.965 440.55 829.883 440.471 829.829C440.393 829.776 440.297 829.756 440.204 829.774C440.11 829.792 440.028 829.846 439.975 829.924Z" fill="#263238"/>
<path d="M444.005 827.666C440.4 831.921 437.8 838.162 439.112 843.741C439.112 843.954 439.478 843.883 439.514 843.741C440.641 838.35 442.345 833.095 444.596 828.068C444.65 827.99 444.67 827.893 444.652 827.8C444.634 827.707 444.58 827.625 444.502 827.572C444.424 827.518 444.327 827.498 444.234 827.516C444.141 827.534 444.059 827.588 444.005 827.666Z" fill="#263238"/>
<path d="M448.048 825.409C444.431 829.664 441.842 835.905 443.154 841.484C443.154 841.709 443.509 841.626 443.545 841.484C444.678 836.093 446.386 830.838 448.639 825.811C448.692 825.732 448.712 825.636 448.694 825.543C448.677 825.45 448.623 825.368 448.544 825.314C448.466 825.261 448.37 825.241 448.277 825.259C448.183 825.276 448.101 825.33 448.048 825.409Z" fill="#263238"/>
<path d="M452.079 823.151C448.473 827.406 445.873 833.659 447.185 839.238C447.244 839.451 447.551 839.38 447.587 839.238C448.718 833.847 450.422 828.593 452.67 823.565C452.724 823.486 452.746 823.389 452.729 823.295C452.713 823.201 452.659 823.117 452.581 823.062C452.502 823.007 452.406 822.986 452.311 823.003C452.217 823.019 452.133 823.073 452.079 823.151Z" fill="#263238"/>
<path d="M417.28 874.84C413.309 879.674 420.826 885.856 424.81 880.998C428.793 876.14 421.264 869.994 417.28 874.84Z" fill="white"/>
<path d="M432.316 815.787C428.77 816.485 428.214 820.681 428.982 823.577C430.397 828.517 433.083 833 436.772 836.579C436.855 836.661 436.949 836.579 437.008 836.579C437.103 836.629 437.208 836.656 437.314 836.657C437.421 836.659 437.527 836.635 437.623 836.588C437.719 836.541 437.802 836.471 437.866 836.385C437.929 836.299 437.972 836.2 437.989 836.094C438.403 831.283 439.431 826.177 438.344 821.39C437.717 818.541 435.732 815.137 432.316 815.787ZM437.15 828.624C437.008 830.988 436.748 833.352 436.689 835.716C435.103 833.23 433.643 830.666 432.316 828.033C431.685 826.749 431.148 825.422 430.708 824.061C430.058 821.957 429.94 814.759 434.987 818.151C437.717 820.09 437.28 825.787 437.15 828.624Z" fill="#263238"/>
<path d="M429.55 848.576C433.214 845.302 435.33 840.562 437.824 836.401C438.084 835.976 437.706 835.527 437.304 835.432C437.305 835.41 437.302 835.388 437.295 835.367C437.287 835.346 437.275 835.327 437.259 835.311C437.243 835.295 437.224 835.283 437.204 835.276C437.183 835.268 437.16 835.265 437.138 835.267C432.059 836.033 427.27 838.12 423.25 841.318C420.886 843.221 418.912 846.933 421.441 849.592C423.971 852.252 427.399 850.491 429.55 848.576ZM424.952 849.155C418.853 849.025 423.132 843.245 424.881 841.898C426.034 841.054 427.243 840.288 428.498 839.605C431.106 838.227 433.785 836.988 436.524 835.893C435.188 837.855 434.03 839.924 432.777 841.933C431.24 844.333 428.309 849.226 424.952 849.155Z" fill="#263238"/>
<path d="M426.358 820.231L387.08 866.779L268.62 782.431L256.942 774.157C256.942 774.157 253.585 776.367 248.538 779.074C241.529 782.845 231.257 787.596 222.215 788.814C207.038 790.8 184.202 790.303 171.637 773.07C160.999 758.555 164.675 739.844 164.675 739.844L181.401 732.882C181.401 732.882 221.163 700.566 246.671 699.892C257.498 699.585 273.171 707.989 287.662 716.735C302.154 725.482 426.358 820.231 426.358 820.231Z" fill="#263238"/>
<path d="M256.942 774.11C256.942 774.11 253.585 776.32 248.538 779.027C239.803 768.306 221.27 748.803 220.702 748.106L256.942 774.11Z" fill="#37474F"/>
<path d="M195.951 722.114C193.587 723.721 191.223 725.423 188.942 727.078C186.661 728.733 184.214 730.222 182.074 731.995C179.935 733.768 177.725 735.731 175.621 737.681C174.604 738.615 173.599 739.56 172.618 740.541C171.586 741.481 170.626 742.496 169.746 743.579C169.675 743.685 169.817 743.804 169.923 743.744C171.037 742.972 172.099 742.127 173.103 741.215L176.424 738.461C178.564 736.688 180.739 734.915 182.878 733.189C185.018 731.464 186.956 729.49 189.06 727.693C191.164 725.896 193.658 724.005 196.022 722.244C196.022 722.161 196.022 722.078 195.951 722.114Z" fill="#37474F"/>
<path d="M414.231 815.752C411.867 818.258 409.645 820.953 407.423 823.601C405.2 826.248 402.978 828.92 400.78 831.603C396.371 836.969 391.938 842.312 387.6 847.737C385.236 850.716 382.872 853.718 380.662 856.827C380.568 856.957 380.792 857.122 380.899 857.004C385.627 851.921 389.964 846.508 394.35 841.141C398.735 835.775 403.144 830.385 407.458 824.96C409.822 821.981 412.257 819.05 414.432 815.906C414.526 815.788 414.325 815.622 414.231 815.752Z" fill="#37474F"/>
<path d="M325.191 822.572C319.175 817.714 305.487 808.211 299.246 803.66C293.005 799.109 286.835 794.57 280.535 790.162C278.727 788.897 276.894 787.656 275.074 786.415C273.254 785.174 271.351 784.051 269.578 782.727C269.471 782.656 269.377 782.833 269.471 782.904C271.114 784.086 272.651 785.457 274.259 786.698C275.866 787.939 277.32 789.062 278.868 790.244C281.894 792.537 284.944 794.783 287.993 797.041C294.163 801.627 300.393 806.142 306.681 810.587C310.227 813.092 321.267 820.539 324.919 822.927C325.132 823.08 325.392 822.714 325.191 822.572Z" fill="#37474F"/>
<path d="M364.091 772.632C358.535 767.904 345.864 758.826 340.037 754.453C334.21 750.08 328.217 745.576 322.307 741.179L304.766 728.154C299.069 723.934 293.407 719.643 287.391 715.896C284.093 713.84 280.712 711.937 277.237 710.223C273.866 708.439 270.346 706.952 266.717 705.778C266.611 705.778 266.552 705.897 266.647 705.956C269.613 707.658 272.734 709.1 275.748 710.755C278.762 712.409 281.658 714.088 284.518 715.884C290.487 719.608 296.126 723.827 301.787 728C313.548 736.676 325.286 745.387 337.129 754.004C343.748 758.732 356.951 768.673 363.842 773.093C364.043 773.129 364.292 772.798 364.091 772.632Z" fill="#37474F"/>
<path d="M552.049 421.633C552.049 421.633 544.283 483.818 531.518 497.801C516.152 514.585 505.076 512.127 498.895 520.791C492.701 512.115 481.59 514.585 466.248 497.789C453.482 483.806 445.74 421.621 445.74 421.621C479.368 405.297 498.93 387 498.93 387C499.497 387.591 518.941 405.569 552.049 421.633Z" fill="#4D774E"/>
<path opacity="0.1" d="M498.895 387.059V520.791C492.701 512.115 481.59 514.585 466.248 497.789C453.482 483.806 445.74 421.621 445.74 421.621C479.368 405.297 498.93 387 498.93 387L498.895 387.059Z" fill="black"/>
<path d="M453.979 426.644C453.979 426.644 460.527 479.172 471.307 490.992C484.309 505.176 493.67 503.108 498.895 510.412C504.119 503.108 513.516 505.188 526.471 490.992C537.25 479.172 543.799 426.644 543.799 426.644C515.431 412.85 498.883 397.39 498.883 397.39C498.883 397.39 482.382 412.85 453.979 426.644Z" fill="#4D774E"/>
<path opacity="0.2" d="M543.787 426.644C543.787 426.644 537.227 479.161 526.447 490.993C513.504 505.177 504.107 503.108 498.883 510.401V397.414C499.379 397.886 515.821 413.063 543.787 426.644Z" fill="white"/>
<path d="M498.883 474.728C510.385 474.728 519.71 465.403 519.71 453.901C519.71 442.399 510.385 433.074 498.883 433.074C487.38 433.074 478.056 442.399 478.056 453.901C478.056 465.403 487.38 474.728 498.883 474.728Z" fill="#455A64"/>
<path d="M496.519 467.435L487.24 457.79L490.68 454.48L495.798 459.799L506.814 442.885L510.821 445.497L496.519 467.435Z" fill="white"/>
<path d="M543.787 511.654L540.844 512.209L540.182 515.306L539.52 512.209L536.577 511.654L539.508 510.945L540.182 508.013L540.855 510.945L543.787 511.654Z" fill="#4D774E"/>
<path d="M456.543 488.049L453.6 488.593L452.938 491.701L452.276 488.593L449.333 488.049L452.265 487.328L452.938 484.396L453.612 487.328L456.543 488.049Z" fill="#4D774E"/>
<path d="M469.983 406.208L467.039 406.751L466.378 409.848L465.727 406.751L462.772 406.196L465.716 405.487L466.378 402.555L467.051 405.487L469.983 406.208Z" fill="#4D774E"/>
<path d="M538.515 497.694L536.872 498.002L536.506 499.739L536.139 498.002L534.484 497.694L536.127 497.292L536.506 495.649L536.872 497.292L538.515 497.694Z" fill="#4D774E"/>
<path d="M549.898 463.144L548.255 463.452L547.888 465.189L547.522 463.452L545.867 463.144L547.51 462.742L547.888 461.111L548.267 462.742L549.898 463.144Z" fill="#4D774E"/>
<path d="M535.927 402.555L534.284 402.862L533.917 404.588L533.539 402.862L531.896 402.555L533.539 402.153L533.917 400.51L534.284 402.153L535.927 402.555Z" fill="#4D774E"/>
<path d="M493.883 528.261L492.24 528.568L491.861 530.294L491.495 528.568L489.852 528.261L491.495 527.859L491.861 526.216L492.24 527.859L493.883 528.261Z" fill="#4D774E"/>
<path d="M447.395 492.091L445.752 492.399L445.373 494.136L445.007 492.399L443.364 492.091L445.007 491.689L445.373 490.046L445.752 491.689L447.395 492.091Z" fill="#4D774E"/>
<path d="M449.96 443.984L448.305 444.291L447.938 446.029L447.572 444.291L445.929 443.984L447.56 443.582L447.938 441.939L448.317 443.582L449.96 443.984Z" fill="#4D774E"/>
<path d="M519.012 505.483C518.898 505.501 518.794 505.559 518.719 505.647C518.644 505.735 518.603 505.847 518.603 505.962C518.603 506.078 518.644 506.189 518.719 506.277C518.794 506.365 518.898 506.423 519.012 506.441C519.126 506.423 519.23 506.365 519.305 506.277C519.38 506.189 519.421 506.078 519.421 505.962C519.421 505.847 519.38 505.735 519.305 505.647C519.23 505.559 519.126 505.501 519.012 505.483Z" fill="#4D774E"/>
<path d="M443.128 418.973C443.014 418.991 442.91 419.049 442.835 419.137C442.76 419.225 442.719 419.336 442.719 419.452C442.719 419.567 442.76 419.679 442.835 419.767C442.91 419.854 443.014 419.913 443.128 419.931C443.242 419.913 443.346 419.854 443.421 419.767C443.496 419.679 443.537 419.567 443.537 419.452C443.537 419.336 443.496 419.225 443.421 419.137C443.346 419.049 443.242 418.991 443.128 418.973Z" fill="#4D774E"/>
<path d="M533.917 508.167C533.803 508.185 533.699 508.243 533.624 508.331C533.549 508.419 533.508 508.53 533.508 508.646C533.508 508.761 533.549 508.873 533.624 508.961C533.699 509.048 533.803 509.106 533.917 509.124C534.031 509.106 534.135 509.048 534.21 508.961C534.285 508.873 534.326 508.761 534.326 508.646C534.326 508.53 534.285 508.419 534.21 508.331C534.135 508.243 534.031 508.185 533.917 508.167Z" fill="#4D774E"/>
<path d="M485.585 433.642C485.46 433.642 485.339 433.691 485.251 433.78C485.162 433.869 485.112 433.989 485.112 434.114C485.112 434.24 485.162 434.36 485.251 434.449C485.339 434.537 485.46 434.587 485.585 434.587C485.71 434.587 485.831 434.537 485.919 434.449C486.008 434.36 486.058 434.24 486.058 434.114C486.058 433.989 486.008 433.869 485.919 433.78C485.831 433.691 485.71 433.642 485.585 433.642Z" fill="#4D774E"/>
<path d="M441.402 452.861C441.288 452.879 441.184 452.937 441.109 453.025C441.034 453.112 440.993 453.224 440.993 453.34C440.993 453.455 441.034 453.567 441.109 453.654C441.184 453.742 441.288 453.8 441.402 453.818C441.516 453.8 441.62 453.742 441.695 453.654C441.77 453.567 441.811 453.455 441.811 453.34C441.811 453.224 441.77 453.112 441.695 453.025C441.62 452.937 441.516 452.879 441.402 452.861Z" fill="#4D774E"/>
<path d="M430.279 447.66C430.201 447.675 430.13 447.717 430.079 447.778C430.028 447.84 430 447.917 430 447.997C430 448.077 430.028 448.154 430.079 448.216C430.13 448.277 430.201 448.319 430.279 448.334C430.358 448.319 430.429 448.277 430.48 448.216C430.531 448.154 430.559 448.077 430.559 447.997C430.559 447.917 430.531 447.84 430.48 447.778C430.429 447.717 430.358 447.675 430.279 447.66Z" fill="#4D774E"/>
<path d="M521.329 396.326C521.25 396.34 521.18 396.382 521.128 396.444C521.077 396.505 521.05 396.583 521.05 396.663C521.05 396.742 521.077 396.82 521.128 396.881C521.18 396.943 521.25 396.985 521.329 396.999C521.407 396.985 521.478 396.943 521.529 396.881C521.58 396.82 521.608 396.742 521.608 396.663C521.608 396.583 521.58 396.505 521.529 396.444C521.478 396.382 521.407 396.34 521.329 396.326Z" fill="#4D774E"/>
<path d="M474.214 511.89C474.136 511.905 474.065 511.947 474.014 512.008C473.963 512.07 473.935 512.147 473.935 512.227C473.935 512.307 473.963 512.384 474.014 512.446C474.065 512.507 474.136 512.549 474.214 512.564C474.293 512.549 474.364 512.507 474.415 512.446C474.466 512.384 474.494 512.307 474.494 512.227C474.494 512.147 474.466 512.07 474.415 512.008C474.364 511.947 474.293 511.905 474.214 511.89Z" fill="#4D774E"/>
<path d="M463.659 505.685C463.434 505.71 463.226 505.818 463.075 505.987C462.925 506.156 462.841 506.374 462.841 506.601C462.841 506.827 462.925 507.046 463.075 507.215C463.226 507.384 463.434 507.491 463.659 507.517C463.884 507.491 464.092 507.384 464.243 507.215C464.393 507.046 464.477 506.827 464.477 506.601C464.477 506.374 464.393 506.156 464.243 505.987C464.092 505.818 463.884 505.71 463.659 505.685Z" fill="#4D774E"/>
<path d="M1582.13 422.938L1576.63 440.602L1571.15 422.938H1582.13Z" fill="#4D774E"/>
<path d="M1531.7 380.739H1621.58C1629.43 380.739 1635.8 387.106 1635.8 394.959V414.114C1635.8 421.967 1629.43 428.334 1621.58 428.334H1531.7C1523.85 428.334 1517.48 421.967 1517.48 414.114V394.959C1517.48 387.106 1523.85 380.739 1531.7 380.739Z" fill="#4D774E"/>
<path d="M1607.99 404.512L1604.87 406.267L1605.69 407.69L1608.85 405.836V409.395H1610.5V405.836L1613.67 407.69L1614.48 406.267L1611.33 404.512L1614.48 402.856L1613.67 401.399L1610.5 403.254V399.645H1608.85V403.171L1605.69 401.317L1604.87 402.773L1607.99 404.512Z" fill="white"/>
<path d="M1596.99 404.512L1593.88 406.267L1594.69 407.69L1597.86 405.836V409.395H1599.41V405.836L1602.61 407.69L1603.42 406.267L1600.27 404.512L1603.42 402.856L1602.61 401.399L1599.44 403.254V399.645H1597.89V403.171L1594.73 401.317L1593.92 402.773L1596.99 404.512Z" fill="white"/>
<path d="M1586.05 404.511L1582.94 406.266L1583.75 407.69L1586.91 405.836V409.395H1588.57V405.836L1591.73 407.69L1592.54 406.266L1589.41 404.511L1592.54 402.856L1591.73 401.399L1588.57 403.253V399.727H1586.91V403.253L1583.75 401.399L1582.94 402.856L1586.05 404.511Z" fill="white"/>
<path d="M1575.01 404.511L1571.9 406.266L1572.71 407.69L1575.87 405.836V409.395H1577.44V405.836L1580.61 407.69L1581.42 406.266L1578.29 404.511L1581.42 402.856L1580.61 401.399L1577.44 403.253V399.727H1575.87V403.253L1572.71 401.399L1571.9 402.856L1575.01 404.511Z" fill="white"/>
<path d="M1564.02 404.511L1560.9 406.266L1561.72 407.69L1564.89 405.836V409.395H1566.55V405.836L1569.5 407.69L1570.32 406.266L1567.18 404.511L1570.32 402.856L1569.5 401.399L1566.33 403.253V399.727H1564.68V403.253L1561.5 401.399L1560.69 402.856L1564.02 404.511Z" fill="white"/>
<path d="M1553.04 404.511L1549.91 406.266L1550.72 407.69L1553.9 405.836V409.395H1555.47V405.836L1558.65 407.69L1559.46 406.266L1556.32 404.511L1559.46 402.856L1558.65 401.399L1555.47 403.253V399.727H1553.9V403.253L1550.72 401.399L1549.91 402.856L1553.04 404.511Z" fill="white"/>
<path d="M1542.05 404.512L1538.94 406.267L1539.75 407.69L1542.91 405.836V409.395H1544.57V405.836L1547.73 407.69L1548.54 406.267L1545.39 404.512L1548.54 402.856L1547.73 401.399L1544.57 403.254V399.645H1542.91V403.171L1539.75 401.317L1538.94 402.773L1542.05 404.512Z" fill="white"/>
<path d="M1504.82 546.272L1494.72 539.733L1506.09 532.747C1506.09 532.747 1514.75 539.12 1511.27 543.441L1504.82 546.272Z" fill="#B55B52"/>
<path d="M1489.54 528.989L1501.36 526.307L1506.09 532.747L1494.72 539.733L1489.54 528.989Z" fill="#B55B52"/>
<path d="M1546.32 525.048C1539.93 534.716 1533.52 546.47 1524.8 554.003C1524.63 554.135 1524.7 554.003 1525.34 554.003C1525.68 554.086 1525.51 554.251 1524.83 554.003C1522.84 552.871 1521.1 551.364 1519.68 549.566C1516.45 545.642 1513.56 541.437 1511.07 537.001C1510.96 536.819 1511.07 537.001 1511.07 537.2C1511.12 537.502 1511.12 537.808 1511.07 538.11C1510.93 538.259 1511.46 537.829 1510.43 540.097C1509.94 540.82 1509.26 541.384 1508.45 541.717C1507.65 542.05 1506.76 542.137 1505.91 541.968C1505.36 541.85 1504.85 541.62 1504.39 541.292C1503.94 540.964 1503.56 540.546 1503.28 540.064C1503.54 540.369 1503.77 540.696 1503.97 541.04L1511.39 537.878C1511.21 536.825 1510.78 535.831 1510.13 534.981C1509.53 534.307 1508.74 533.833 1507.86 533.624C1507 533.455 1506.11 533.545 1505.3 533.88C1504.49 534.216 1503.8 534.783 1503.31 535.511C1502.28 537.796 1502.8 537.365 1502.65 537.531C1502.63 538.059 1502.68 538.588 1502.8 539.104C1505.4 550.146 1512.18 568.34 1526.26 568.439C1536.19 567.528 1543.72 556.619 1549.3 549.732C1553.26 544.43 1556.91 538.902 1560.23 533.177L1546.4 525.065L1546.32 525.048Z" fill="#B55B52"/>
<path d="M1551.42 517.781C1544.8 519.966 1531.37 550.477 1531.37 550.477L1554.18 561.304C1554.18 561.304 1558.82 537.332 1557.91 529.601C1557.34 524.976 1555.01 520.745 1551.42 517.781Z" fill="#4D774E"/>
<path opacity="0.7" d="M1551.42 517.781C1544.8 519.966 1531.37 550.477 1531.37 550.477L1554.18 561.304C1554.18 561.304 1558.82 537.332 1557.91 529.601C1557.34 524.976 1555.01 520.745 1551.42 517.781Z" fill="white"/>
<path d="M1524.6 871.511L1536.22 874.805L1538.99 856.711L1540.48 847.042L1528.85 843.748L1526.87 856.711L1524.6 871.511Z" fill="#B55B52"/>
<path d="M1591.42 872.455L1603.4 874.044L1603.52 856.711L1603.6 845.934L1591.6 844.377L1591.51 856.711L1591.42 872.455Z" fill="#B55B52"/>
<path opacity="0.2" d="M1591.6 844.377L1591.51 856.711H1603.52L1603.6 845.934L1591.6 844.377Z" fill="black"/>
<path opacity="0.2" d="M1526.87 856.711H1538.99L1540.48 847.042L1528.85 843.748L1526.87 856.711Z" fill="black"/>
<path d="M1524.8 869.689L1538.04 869.342C1538.28 869.334 1538.52 869.409 1538.71 869.553C1538.9 869.698 1539.04 869.903 1539.1 870.136L1541.87 880.765C1541.95 881.021 1541.98 881.294 1541.93 881.562C1541.89 881.829 1541.78 882.081 1541.62 882.297C1541.46 882.512 1541.24 882.684 1541 882.798C1540.75 882.912 1540.48 882.964 1540.21 882.95C1535.44 882.95 1528.62 882.95 1522.58 883.066C1515.58 883.265 1511.12 882.917 1502.91 883.066C1497.95 883.198 1496.41 878.248 1498.46 877.735C1507.85 875.418 1513.97 875.881 1521.97 870.65C1522.81 870.076 1523.78 869.744 1524.8 869.689Z" fill="#263238"/>
<path d="M1523.79 871.163C1523.8 871.104 1523.79 871.043 1523.76 870.989C1523.74 870.936 1523.69 870.892 1523.64 870.865C1523.08 870.6 1518.13 868.266 1516.69 869.127C1516.55 869.205 1516.44 869.319 1516.36 869.456C1516.28 869.592 1516.24 869.747 1516.24 869.905C1516.22 870.164 1516.27 870.424 1516.37 870.663C1516.48 870.902 1516.64 871.113 1516.84 871.279C1518.19 872.405 1521.64 871.842 1523.57 871.395C1523.63 871.384 1523.68 871.356 1523.72 871.314C1523.76 871.273 1523.78 871.22 1523.79 871.163ZM1522.61 871.03C1519.95 871.544 1517.96 871.477 1517.2 870.832C1517.06 870.728 1516.96 870.591 1516.89 870.435C1516.83 870.278 1516.8 870.107 1516.82 869.938C1516.81 869.875 1516.83 869.812 1516.86 869.756C1516.89 869.701 1516.93 869.655 1516.98 869.623H1517.08C1517.99 869.243 1520.66 870.17 1522.61 871.03Z" fill="#4D774E"/>
<path d="M1523.69 871.345C1523.73 871.319 1523.76 871.281 1523.78 871.236C1523.8 871.192 1523.8 871.143 1523.79 871.096C1523.61 869.39 1522.9 867.784 1521.75 866.511C1521.52 866.321 1521.26 866.183 1520.97 866.106C1520.69 866.029 1520.39 866.015 1520.1 866.064C1519.32 866.163 1519.1 866.56 1519.05 866.892C1518.89 868.249 1521.87 870.782 1523.36 871.394C1523.42 871.411 1523.49 871.411 1523.56 871.394L1523.69 871.345ZM1520.23 866.627C1520.44 866.599 1520.65 866.614 1520.85 866.671C1521.05 866.728 1521.24 866.825 1521.4 866.958C1522.32 867.977 1522.9 869.255 1523.06 870.616C1521.54 869.772 1519.5 867.785 1519.62 866.958C1519.62 866.958 1519.62 866.776 1519.87 866.693L1520.23 866.627Z" fill="#4D774E"/>
<path d="M1591.9 869.689L1605.14 869.342C1605.38 869.334 1605.62 869.409 1605.81 869.553C1606 869.698 1606.14 869.903 1606.2 870.136L1608.98 880.765C1609.05 881.02 1609.06 881.288 1609.01 881.547C1608.96 881.807 1608.85 882.051 1608.69 882.262C1608.53 882.472 1608.32 882.644 1608.09 882.763C1607.85 882.882 1607.59 882.946 1607.32 882.95C1602.57 882.95 1595.74 882.95 1589.69 883.066C1582.69 883.265 1578.25 882.917 1570.04 883.066C1565.08 883.198 1563.52 878.248 1565.59 877.735C1574.96 875.418 1581.1 875.881 1589.08 870.65C1589.92 870.081 1590.89 869.749 1591.9 869.689Z" fill="#263238"/>
<path d="M1591.02 871.163C1591.03 871.102 1591.02 871.04 1590.99 870.986C1590.96 870.932 1590.91 870.89 1590.85 870.865C1590.29 870.6 1585.36 868.266 1583.92 869.127C1583.78 869.205 1583.67 869.319 1583.59 869.456C1583.51 869.592 1583.47 869.747 1583.47 869.905C1583.45 870.163 1583.49 870.422 1583.6 870.661C1583.7 870.899 1583.85 871.111 1584.05 871.279C1585.42 872.405 1588.87 871.842 1590.8 871.395C1590.86 871.38 1590.91 871.351 1590.94 871.31C1590.98 871.269 1591.01 871.218 1591.02 871.163ZM1589.83 871.03C1587.18 871.544 1585.17 871.477 1584.41 870.832C1584.28 870.726 1584.18 870.589 1584.11 870.433C1584.04 870.277 1584.02 870.107 1584.03 869.938C1584.03 869.874 1584.05 869.811 1584.08 869.756C1584.11 869.701 1584.16 869.655 1584.21 869.623H1584.31C1585.14 869.243 1587.81 870.17 1589.76 871.03H1589.83Z" fill="#4D774E"/>
<path d="M1590.84 871.345C1590.88 871.32 1590.91 871.283 1590.93 871.239C1590.95 871.194 1590.96 871.145 1590.95 871.097C1590.77 869.39 1590.05 867.784 1588.9 866.511C1588.67 866.321 1588.41 866.182 1588.12 866.105C1587.83 866.028 1587.54 866.014 1587.24 866.064C1586.47 866.164 1586.25 866.561 1586.22 866.892C1586.04 868.25 1589.03 870.782 1590.5 871.395C1590.58 871.411 1590.65 871.411 1590.72 871.395L1590.84 871.345ZM1587.38 866.627C1587.58 866.598 1587.8 866.613 1588 866.67C1588.2 866.727 1588.39 866.825 1588.55 866.958C1589.46 867.982 1590.04 869.258 1590.21 870.617C1588.68 869.773 1586.65 867.786 1586.75 866.958C1586.76 866.893 1586.79 866.834 1586.84 866.787C1586.89 866.74 1586.95 866.708 1587.01 866.693C1587.13 866.649 1587.25 866.627 1587.38 866.627Z" fill="#4D774E"/>
<path d="M1616.13 609.065C1622.49 636.579 1611.6 853.069 1611.6 853.069H1590.54L1581.53 672.619L1548.42 853.069L1525.91 851.413C1540.63 711.656 1553.62 628.219 1553.62 628.219V617.674L1616.13 609.065Z" fill="#263238"/>
<path opacity="0.2" d="M1525.87 851.38L1548.39 853.035L1574.46 710.994L1581.52 672.603L1590.52 853.052H1611.58C1611.58 853.052 1622.47 636.53 1616.13 609.065L1553.55 617.69V628.236C1553.55 628.236 1540.59 711.706 1525.87 851.38Z" fill="white"/>
<path d="M1617.51 516.01C1615.3 529 1614.07 542.137 1613.81 555.311C1613.6 564.499 1613.81 573.24 1614.13 581.153C1614.96 599.711 1616.74 613.75 1616.66 618.568L1553.49 619.693C1538.42 553.639 1551.37 517.781 1551.37 517.781C1556.27 516.421 1561.24 515.36 1566.27 514.602C1567.37 514.459 1568.48 514.326 1569.58 514.205C1578.51 513.526 1587.48 513.36 1596.43 513.708C1598.09 513.708 1599.86 513.857 1601.53 513.99C1609.97 514.702 1617.51 516.01 1617.51 516.01Z" fill="#164A41"/>
<path d="M1567.53 516.357C1567.53 516.357 1571.28 521.804 1574.3 522.184C1578.57 522.764 1594.16 513.212 1594.16 513.212C1590.55 510.546 1588.78 504.735 1588.01 498.593C1587.45 493.608 1587.34 488.583 1587.69 483.578L1573.11 499.438C1575.03 504.404 1576.17 509.702 1572.39 513.427C1571.01 514.749 1569.34 515.75 1567.53 516.357Z" fill="#B55B52"/>
<path opacity="0.2" d="M1572.43 513.377C1578.85 509.872 1584.24 504.732 1588.04 498.478C1587.48 493.492 1587.38 488.467 1587.72 483.462L1573.14 499.322C1575.06 504.338 1576.12 509.735 1572.43 513.377Z" fill="black"/>
<path d="M1556.25 469.274C1555.01 473.86 1556.25 483.164 1562.41 479.853C1568.57 476.542 1558.32 461.361 1556.25 469.274Z" fill="#263238"/>
<path d="M1589.16 473.993C1590.37 485.581 1591.66 492.369 1586.81 499.206C1579.5 509.47 1564.35 506.407 1559.7 495.332C1555.49 485.399 1554.23 468.016 1564.78 461.659C1567.12 460.253 1569.78 459.463 1572.5 459.364C1575.23 459.264 1577.94 459.858 1580.38 461.091C1582.81 462.323 1584.9 464.152 1586.43 466.409C1587.97 468.665 1588.91 471.275 1589.16 473.993Z" fill="#B55B52"/>
<path d="M1580.72 468L1580.14 454.971C1580.14 454.971 1593.98 453.315 1593.67 460.467C1601.51 463.944 1598.4 476.045 1588.34 482.353C1582.48 478.082 1582.66 467.139 1582.66 467.139C1582.06 467.437 1581.4 467.718 1580.72 468Z" fill="#263238"/>
<path d="M1595.21 482.85C1594.99 484.287 1594.5 485.669 1593.75 486.913C1593 488.158 1592.01 489.242 1590.84 490.101C1587.69 492.385 1584.73 489.869 1584.46 486.194C1584.21 482.883 1585.55 477.701 1589.26 476.873C1590.08 476.712 1590.93 476.756 1591.72 477C1592.52 477.243 1593.25 477.68 1593.83 478.272C1594.42 478.863 1594.85 479.59 1595.09 480.388C1595.33 481.187 1595.37 482.032 1595.21 482.85Z" fill="#B55B52"/>
<path d="M1572.16 479.936C1572.33 480.88 1571.95 481.707 1571.33 481.807C1570.72 481.906 1570.09 481.227 1569.94 480.284C1569.79 479.34 1570.16 478.512 1570.77 478.413C1571.38 478.314 1572.01 478.992 1572.16 479.936Z" fill="#263238"/>
<path d="M1561.53 481.592C1561.68 482.535 1561.3 483.38 1560.69 483.462C1560.08 483.545 1559.45 482.883 1559.3 481.939C1559.15 480.996 1559.51 480.168 1560.13 480.069C1560.74 479.969 1561.37 480.665 1561.53 481.592Z" fill="#263238"/>
<path d="M1564.99 481.591C1564.28 484.544 1563.17 487.385 1561.68 490.034C1562.41 490.357 1563.19 490.523 1563.98 490.523C1564.78 490.523 1565.56 490.357 1566.29 490.034L1564.99 481.591Z" fill="#A02724"/>
<path d="M1571.93 492.849C1571.54 492.973 1571.13 493.067 1570.72 493.13C1570.65 493.14 1570.58 493.121 1570.52 493.078C1570.46 493.034 1570.42 492.97 1570.41 492.898C1570.4 492.861 1570.4 492.823 1570.41 492.786C1570.42 492.75 1570.43 492.715 1570.45 492.684C1570.47 492.653 1570.5 492.627 1570.53 492.607C1570.57 492.587 1570.6 492.573 1570.64 492.567C1571.81 492.411 1572.92 491.982 1573.9 491.314C1574.87 490.647 1575.67 489.761 1576.23 488.726C1576.25 488.692 1576.27 488.66 1576.29 488.633C1576.32 488.606 1576.35 488.585 1576.38 488.571C1576.42 488.557 1576.45 488.55 1576.49 488.551C1576.53 488.553 1576.57 488.561 1576.6 488.578C1576.67 488.607 1576.72 488.661 1576.75 488.729C1576.78 488.797 1576.78 488.874 1576.75 488.942C1576.25 489.888 1575.57 490.723 1574.74 491.395C1573.92 492.067 1572.96 492.562 1571.93 492.849Z" fill="#263238"/>
<path d="M1574.88 475.996C1574.78 476.027 1574.68 476.032 1574.59 476.008C1574.49 475.985 1574.4 475.935 1574.33 475.863C1573.83 475.365 1573.22 474.989 1572.55 474.765C1571.88 474.541 1571.17 474.475 1570.47 474.572C1570.4 474.588 1570.33 474.591 1570.26 474.579C1570.19 474.567 1570.12 474.541 1570.06 474.502C1570 474.464 1569.94 474.414 1569.9 474.355C1569.86 474.296 1569.83 474.229 1569.81 474.158C1569.8 474.088 1569.79 474.014 1569.8 473.943C1569.82 473.871 1569.84 473.803 1569.88 473.741C1569.92 473.68 1569.97 473.627 1570.03 473.585C1570.09 473.542 1570.15 473.512 1570.23 473.496C1571.1 473.347 1572 473.412 1572.85 473.686C1573.7 473.96 1574.47 474.434 1575.09 475.069C1575.2 475.174 1575.26 475.317 1575.26 475.466C1575.26 475.615 1575.2 475.758 1575.09 475.863C1575.03 475.922 1574.96 475.967 1574.88 475.996Z" fill="#263238"/>
<path d="M1556.25 478.661C1556.15 478.694 1556.04 478.694 1555.94 478.661C1555.8 478.619 1555.68 478.522 1555.6 478.392C1555.53 478.262 1555.52 478.109 1555.56 477.966C1555.79 477.112 1556.23 476.327 1556.83 475.678C1557.43 475.029 1558.18 474.536 1559.02 474.241C1559.16 474.204 1559.31 474.223 1559.44 474.294C1559.57 474.365 1559.67 474.482 1559.71 474.622C1559.75 474.764 1559.74 474.918 1559.67 475.048C1559.59 475.178 1559.47 475.275 1559.33 475.317C1558.67 475.55 1558.08 475.945 1557.61 476.465C1557.13 476.986 1556.8 477.615 1556.63 478.297C1556.6 478.384 1556.55 478.463 1556.49 478.526C1556.42 478.59 1556.34 478.636 1556.25 478.661Z" fill="#263238"/>
<path d="M1593.67 460.467C1593.67 460.467 1600.82 453.365 1576.55 454.011C1552.28 454.656 1548.24 468.265 1559.37 471.427L1559.86 469.208C1561.77 470.193 1563.87 470.759 1566.02 470.867C1568.17 470.976 1570.31 470.625 1572.31 469.837L1570.56 468.745C1570.56 468.745 1587.13 470.433 1593.67 460.467Z" fill="#263238"/>
<path d="M1574.3 522.134C1574.3 522.134 1577.39 525.71 1580.92 529.236C1586.07 526.637 1598.12 519.668 1597.47 513.228C1596.76 511.357 1591.86 510.165 1591.86 510.165C1591.86 510.165 1586.66 517.102 1574.3 522.134Z" fill="#4D774E"/>
<path d="M1574.3 522.135C1571.77 524.176 1569.54 526.567 1567.68 529.237C1563.88 526.787 1565.79 514.801 1567.18 513.476C1569.18 512.381 1571.43 511.812 1573.72 511.821C1572.97 513.457 1572.63 515.252 1572.73 517.05C1572.83 518.847 1573.37 520.593 1574.3 522.135Z" fill="#4D774E"/>
<g opacity="0.5">
<path d="M1574.3 522.134C1574.3 522.134 1577.39 525.71 1580.92 529.236C1586.07 526.637 1598.12 519.668 1597.47 513.228C1596.76 511.357 1591.86 510.165 1591.86 510.165C1591.86 510.165 1586.66 517.102 1574.3 522.134Z" fill="white"/>
<path d="M1574.3 522.135C1571.77 524.176 1569.54 526.567 1567.68 529.237C1563.88 526.787 1565.79 514.801 1567.18 513.476C1569.18 512.381 1571.43 511.812 1573.72 511.821C1572.97 513.457 1572.63 515.252 1572.73 517.05C1572.83 518.847 1573.37 520.593 1574.3 522.135Z" fill="white"/>
</g>
<path opacity="0.2" d="M1574.46 710.994L1581.52 672.603L1580.16 652.29C1580.16 652.29 1570.51 687.519 1574.46 710.994Z" fill="black"/>
<path d="M1610.88 533.541C1617.01 543.756 1626.5 558.374 1631.69 568.754C1634.46 574.631 1635.32 580.922 1636.83 587.262C1638.27 594.033 1639.71 600.936 1641.3 607.757L1649.21 607.062C1649.49 599.893 1649.42 592.791 1648.99 585.623C1648.45 578.157 1648.05 570.095 1645.24 563.009C1639.64 549.384 1632.27 537.2 1624.38 524.933L1610.88 533.574V533.541Z" fill="#B55B52"/>
<path d="M1617.51 516.009C1626.4 518.31 1642.34 550.261 1642.34 550.261L1623.45 562.496L1606.41 545.941C1605.44 539.948 1605.8 533.812 1607.49 527.979C1610.26 518.012 1617.51 516.009 1617.51 516.009Z" fill="#4D774E"/>
<path opacity="0.7" d="M1617.51 516.009C1626.4 518.31 1642.34 550.261 1642.34 550.261L1623.45 562.496L1606.41 545.941C1605.44 539.948 1605.8 533.812 1607.49 527.979C1610.26 518.012 1617.51 516.009 1617.51 516.009Z" fill="white"/>
<path d="M1610.81 614.501L1479.58 475.341C1478.87 474.592 1478.02 473.988 1477.08 473.566C1476.14 473.144 1475.13 472.911 1474.1 472.881C1473.07 472.851 1472.04 473.024 1471.08 473.39C1470.12 473.757 1469.23 474.309 1468.48 475.016L1465.32 478.003C1463.8 479.431 1462.92 481.402 1462.86 483.482C1462.8 485.562 1463.56 487.582 1464.99 489.096L1596.22 628.255L1610.81 614.501Z" fill="#263238"/>
<path opacity="0.6" d="M1610.81 614.501L1479.58 475.341C1478.87 474.592 1478.02 473.988 1477.08 473.566C1476.14 473.144 1475.13 472.911 1474.1 472.881C1473.07 472.851 1472.04 473.024 1471.08 473.39C1470.12 473.757 1469.23 474.309 1468.48 475.016L1465.32 478.003C1463.8 479.431 1462.92 481.402 1462.86 483.482C1462.8 485.562 1463.56 487.582 1464.99 489.096L1596.22 628.255L1610.81 614.501Z" fill="white"/>
<path opacity="0.2" d="M1467.52 475.947L1465.32 478.016C1464.57 478.721 1463.96 479.567 1463.54 480.506C1463.12 481.444 1462.89 482.457 1462.86 483.485C1462.82 484.514 1463 485.538 1463.36 486.5C1463.73 487.462 1464.28 488.343 1464.99 489.091L1596.22 628.269L1598.4 626.2L1467.17 487.022C1466.47 486.272 1465.92 485.391 1465.55 484.428C1465.19 483.466 1465.02 482.441 1465.05 481.412C1465.08 480.384 1465.32 479.372 1465.74 478.434C1466.16 477.496 1466.77 476.651 1467.52 475.947Z" fill="black"/>
<path d="M1509.39 529.833L1485.07 552.778L1481.9 549.417L1485.05 546.454L1480.05 541.14L1481.89 539.402L1474.37 531.439L1472.53 533.177L1467.83 528.194L1464.69 531.174L1461.43 527.697L1463.26 525.959L1458.56 520.959L1462.25 517.483L1459.17 514.221L1453.63 519.436L1448 513.476L1472.32 490.531L1509.39 529.833Z" fill="#263238"/>
<path opacity="0.6" d="M1509.39 529.833L1485.07 552.778L1481.9 549.417L1485.05 546.454L1480.05 541.14L1481.89 539.402L1474.37 531.439L1472.53 533.177L1467.83 528.194L1464.69 531.174L1461.43 527.697L1463.26 525.959L1458.56 520.959L1462.25 517.483L1459.17 514.221L1453.63 519.436L1448 513.476L1472.32 490.531L1509.39 529.833Z" fill="white"/>
<g opacity="0.2">
<path opacity="0.6" d="M1484.1 547.371L1487.25 550.719L1485.06 552.786L1481.9 549.438L1484.1 547.371Z" fill="black"/>
<path opacity="0.6" d="M1472.53 533.177L1474.37 531.422L1481.89 539.402L1480.05 541.14L1485.05 546.454L1487.25 544.385L1482.24 539.071L1484.09 537.332L1476.57 529.353L1474.72 531.108L1470.03 526.125L1467.83 528.194L1472.53 533.177Z" fill="black"/>
<path opacity="0.6" d="M1465.47 523.874L1460.75 518.891L1458.55 520.96L1463.26 525.96L1461.41 527.698L1464.69 531.174L1466.87 529.105L1463.61 525.629L1465.47 523.874Z" fill="black"/>
<path opacity="0.6" d="M1461.38 512.146L1464.46 515.41L1462.27 517.477L1459.19 514.213L1461.38 512.146Z" fill="black"/>
<path opacity="0.6" d="M1450.2 511.419L1455.83 517.393L1453.64 519.46L1448.01 513.486L1450.2 511.419Z" fill="black"/>
</g>
<path d="M1483.07 476.483L1523.3 519.144C1523.96 519.849 1523.93 520.959 1523.23 521.624L1508.63 535.39C1507.92 536.055 1506.81 536.022 1506.15 535.317L1465.92 492.657C1465.25 491.951 1465.29 490.841 1465.99 490.176L1480.59 476.41C1481.29 475.745 1482.4 475.778 1483.07 476.483Z" fill="#263238"/>
<path d="M1595.46 673.248C1598.51 676.487 1602.17 679.093 1606.23 680.916C1610.29 682.74 1614.67 683.745 1619.12 683.876C1623.57 684.007 1628 683.26 1632.16 681.678C1636.32 680.096 1640.13 677.709 1643.37 674.655L1654.36 664.292C1657.6 661.239 1660.2 657.578 1662.03 653.517C1663.85 649.457 1664.85 645.078 1664.99 640.628C1665.12 636.179 1664.37 631.748 1662.79 627.588C1661.2 623.428 1658.82 619.62 1655.76 616.382C1652.71 613.13 1649.04 610.514 1644.97 608.683C1640.9 606.852 1636.51 605.842 1632.05 605.711C1627.59 605.581 1623.15 606.332 1618.98 607.921C1614.81 609.511 1611 611.908 1607.76 614.975L1596.78 625.338C1593.55 628.397 1590.95 632.062 1589.13 636.126C1587.31 640.189 1586.32 644.57 1586.19 649.019C1586.07 653.468 1586.83 657.897 1588.41 662.055C1590 666.212 1592.4 670.016 1595.46 673.248Z" fill="#263238"/>
<path d="M1608.09 661.329C1609.61 662.943 1611.43 664.242 1613.45 665.151C1615.47 666.06 1617.65 666.562 1619.87 666.628C1622.08 666.695 1624.29 666.323 1626.36 665.536C1628.43 664.749 1630.33 663.561 1631.94 662.041L1642.34 652.108C1643.95 650.588 1645.25 648.764 1646.16 646.743C1647.06 644.721 1647.56 642.54 1647.63 640.324C1647.69 638.109 1647.32 635.902 1646.53 633.831C1645.74 631.76 1644.56 629.864 1643.03 628.252C1641.52 626.638 1639.69 625.339 1637.67 624.43C1635.65 623.522 1633.47 623.02 1631.26 622.956C1629.04 622.891 1626.84 623.264 1624.77 624.054C1622.7 624.844 1620.8 626.034 1619.19 627.557L1608.7 637.49C1605.46 640.571 1603.57 644.813 1603.46 649.283C1603.34 653.753 1605.01 658.086 1608.09 661.329Z" fill="white"/>
<path opacity="0.5" d="M1483.07 476.483L1523.3 519.144C1523.96 519.849 1523.93 520.959 1523.23 521.624L1508.63 535.39C1507.92 536.055 1506.81 536.022 1506.15 535.317L1465.92 492.657C1465.25 491.951 1465.29 490.841 1465.99 490.176L1480.59 476.41C1481.29 475.745 1482.4 475.778 1483.07 476.483Z" fill="white"/>
<g opacity="0.5">
<path d="M1595.46 673.248C1598.51 676.487 1602.17 679.093 1606.23 680.916C1610.29 682.74 1614.67 683.745 1619.12 683.876C1623.57 684.007 1628 683.26 1632.16 681.678C1636.32 680.096 1640.13 677.709 1643.37 674.655L1654.36 664.292C1657.6 661.239 1660.2 657.578 1662.03 653.517C1663.85 649.457 1664.85 645.078 1664.99 640.628C1665.12 636.179 1664.37 631.748 1662.79 627.588C1661.2 623.428 1658.82 619.62 1655.76 616.382C1652.71 613.13 1649.04 610.514 1644.97 608.683C1640.9 606.852 1636.51 605.842 1632.05 605.711C1627.59 605.581 1623.15 606.332 1618.98 607.921C1614.81 609.511 1611 611.908 1607.76 614.975L1596.78 625.338C1593.55 628.397 1590.95 632.062 1589.13 636.126C1587.31 640.189 1586.32 644.57 1586.19 649.019C1586.07 653.468 1586.83 657.897 1588.41 662.055C1590 666.212 1592.4 670.016 1595.46 673.248Z" fill="white"/>
<path d="M1608.09 661.329C1609.61 662.943 1611.43 664.242 1613.45 665.151C1615.47 666.06 1617.65 666.562 1619.87 666.628C1622.08 666.695 1624.29 666.323 1626.36 665.536C1628.43 664.749 1630.33 663.561 1631.94 662.041L1642.34 652.108C1643.95 650.588 1645.25 648.764 1646.16 646.743C1647.06 644.721 1647.56 642.54 1647.63 640.324C1647.69 638.109 1647.32 635.902 1646.53 633.831C1645.74 631.76 1644.56 629.864 1643.03 628.252C1641.52 626.638 1639.69 625.339 1637.67 624.43C1635.65 623.522 1633.47 623.02 1631.26 622.956C1629.04 622.891 1626.84 623.264 1624.77 624.054C1622.7 624.844 1620.8 626.034 1619.19 627.557L1608.7 637.49C1605.46 640.571 1603.57 644.813 1603.46 649.283C1603.34 653.753 1605.01 658.086 1608.09 661.329Z" fill="white"/>
</g>
<path opacity="0.2" d="M1470.38 486.028L1465.98 490.167C1465.81 490.33 1465.68 490.525 1465.59 490.739C1465.5 490.954 1465.46 491.184 1465.46 491.417C1465.46 491.65 1465.5 491.88 1465.59 492.094C1465.68 492.309 1465.81 492.504 1465.98 492.667L1506.21 535.312C1506.37 535.478 1506.56 535.609 1506.78 535.698C1506.99 535.788 1507.22 535.834 1507.45 535.834C1507.68 535.834 1507.91 535.788 1508.12 535.698C1508.34 535.609 1508.53 535.478 1508.69 535.312L1513.08 531.174C1512.75 531.498 1512.31 531.68 1511.84 531.68C1511.38 531.68 1510.94 531.498 1510.61 531.174L1470.38 488.512C1470.22 488.35 1470.09 488.157 1470 487.943C1469.91 487.73 1469.86 487.501 1469.86 487.27C1469.86 487.039 1469.91 486.81 1470 486.597C1470.09 486.383 1470.22 486.19 1470.38 486.028Z" fill="black"/>
<g opacity="0.2">
<path d="M1622.47 624.494L1619.16 627.59C1622.45 624.746 1626.71 623.281 1631.05 623.5C1635.4 623.719 1639.49 625.605 1642.48 628.765C1645.46 631.925 1647.12 636.115 1647.09 640.464C1647.06 644.812 1645.36 648.983 1642.34 652.108L1645.65 648.995C1648.91 645.922 1650.81 641.681 1650.94 637.206C1651.06 632.73 1649.41 628.387 1646.34 625.131C1643.26 621.876 1639.02 619.974 1634.55 619.845C1630.07 619.717 1625.73 621.371 1622.47 624.444V624.494Z" fill="black"/>
<path d="M1600.14 622.309L1596.83 625.421C1590.5 631.639 1586.85 640.091 1586.68 648.965C1586.51 657.838 1589.83 666.424 1595.92 672.88C1602.01 679.336 1610.39 683.147 1619.25 683.495C1628.12 683.842 1636.77 680.698 1643.35 674.739L1646.66 671.643C1640.11 677.743 1631.4 681.003 1622.46 680.711C1613.51 680.419 1605.04 676.599 1598.89 670.084C1592.75 663.57 1589.43 654.89 1589.67 645.94C1589.9 636.989 1593.67 628.494 1600.14 622.309Z" fill="black"/>
</g>
<g opacity="0.2">
<path d="M1622.47 624.494L1619.16 627.59C1622.45 624.746 1626.71 623.281 1631.05 623.5C1635.4 623.719 1639.49 625.605 1642.48 628.765C1645.46 631.925 1647.12 636.115 1647.09 640.464C1647.06 644.812 1645.36 648.983 1642.34 652.108L1645.65 648.995C1648.91 645.922 1650.81 641.681 1650.94 637.206C1651.06 632.73 1649.41 628.387 1646.34 625.131C1643.26 621.876 1639.02 619.974 1634.55 619.845C1630.07 619.717 1625.73 621.371 1622.47 624.444V624.494Z" fill="black"/>
<path d="M1622.47 624.494L1619.16 627.59C1622.45 624.746 1626.71 623.281 1631.05 623.5C1635.4 623.719 1639.49 625.605 1642.48 628.765C1645.46 631.925 1647.12 636.115 1647.09 640.464C1647.06 644.812 1645.36 648.983 1642.34 652.108L1645.65 648.995C1648.91 645.922 1650.81 641.681 1650.94 637.206C1651.06 632.73 1649.41 628.387 1646.34 625.131C1643.26 621.876 1639.02 619.974 1634.55 619.845C1630.07 619.717 1625.73 621.371 1622.47 624.444V624.494Z" fill="black"/>
</g>
<path d="M1647.67 625.967L1635.5 622.921L1636.86 614.031L1651.69 617.028L1647.67 625.967Z" fill="#B55B52"/>
<path d="M1648.86 605.39L1651.69 616.978L1636.79 613.982C1636.79 613.982 1636.59 603.569 1642.12 602.89L1648.86 605.39Z" fill="#B55B52"/>
</g>
<defs>
<clipPath id="clip0_130_2560">
<rect width="1920" height="1080" fill="white"/>
</clipPath>
</defs>
</svg>
